ply
format ascii 1.0
comment Created by Blender 2.73 (sub 0) - www.blender.org, source file: '0.blend'
element vertex 160
property float x
property float y
property float z
property float nx
property float ny
property float nz
property float s
property float t
property uchar red
property uchar green
property uchar blue
element face 112
property list uchar uint vertex_indices
end_header
-0.400000 0.100000 0.300000 0.000000 -0.000000 1.000000 0.693359 0.500000 30 30 30
-0.400000 -0.100000 0.300000 0.000000 -0.000000 1.000000 0.693359 0.500000 30 30 30
-0.300000 -0.100000 0.300000 0.000000 -0.000000 1.000000 0.693359 0.500000 30 30 30
0.200000 -0.100000 -0.200000 0.000000 -0.000000 1.000000 0.693359 0.500000 30 30 30
0.200000 0.100000 -0.200000 0.000000 -0.000000 1.000000 0.693359 0.500000 30 30 30
0.100000 0.100000 -0.200000 0.000000 -0.000000 1.000000 0.693359 0.500000 30 30 30
-0.100000 0.100000 -0.300000 1.000000 -0.000000 0.000000 0.693359 0.500000 30 30 30
-0.100000 0.100000 -0.200000 1.000000 -0.000000 0.000000 0.693359 0.500000 30 30 30
-0.100000 -0.100000 -0.200000 1.000000 -0.000000 0.000000 0.693359 0.500000 30 30 30
-0.400000 0.100000 -0.300000 0.000000 0.000000 -1.000000 0.693359 0.500000 30 30 30
-0.300000 0.100000 -0.300000 0.000000 0.000000 -1.000000 0.693359 0.500000 30 30 30
-0.300000 -0.100000 -0.300000 0.000000 0.000000 -1.000000 0.693359 0.500000 30 30 30
-0.400000 -0.100000 -0.300000 -1.000000 -0.000000 -0.000000 0.693359 0.500000 30 30 30
-0.400000 -0.100000 0.300000 -1.000000 -0.000000 -0.000000 0.693359 0.500000 30 30 30
-0.400000 0.100000 0.300000 -1.000000 -0.000000 -0.000000 0.693359 0.500000 30 30 30
0.200000 0.100000 0.200000 -1.000000 0.000000 0.000000 0.693359 0.500000 30 30 30
0.200000 0.100000 -0.200000 -1.000000 0.000000 0.000000 0.693359 0.500000 30 30 30
0.200000 -0.100000 -0.200000 -1.000000 0.000000 0.000000 0.693359 0.500000 30 30 30
0.100000 0.100000 0.200000 0.000000 0.000000 -1.000000 0.693359 0.500000 30 30 30
0.200000 0.100000 0.200000 0.000000 0.000000 -1.000000 0.693359 0.500000 30 30 30
0.200000 -0.100000 0.200000 0.000000 0.000000 -1.000000 0.693359 0.500000 30 30 30
0.400000 0.100000 0.300000 1.000000 0.000000 -0.000000 0.693359 0.500000 30 30 30
0.400000 -0.100000 0.300000 1.000000 0.000000 -0.000000 0.693359 0.500000 30 30 30
0.400000 -0.100000 -0.300000 1.000000 0.000000 -0.000000 0.693359 0.500000 30 30 30
0.400000 -0.100000 0.300000 -0.000000 0.000000 1.000000 0.693359 0.500000 30 30 30
0.400000 0.100000 0.300000 -0.000000 0.000000 1.000000 0.693359 0.500000 30 30 30
0.300000 0.100000 0.300000 -0.000000 0.000000 1.000000 0.693359 0.500000 30 30 30
-0.300000 0.100000 -0.400000 -1.000000 0.000000 0.000000 0.693359 0.500000 30 30 30
-0.300000 -0.100000 -0.400000 -1.000000 0.000000 0.000000 0.693359 0.500000 30 30 30
-0.300000 -0.100000 -0.300000 -1.000000 0.000000 0.000000 0.693359 0.500000 30 30 30
-0.100000 -0.100000 -0.200000 0.000000 -0.000000 1.000000 0.693359 0.500000 30 30 30
-0.100000 0.100000 -0.200000 0.000000 -0.000000 1.000000 0.693359 0.500000 30 30 30
-0.200000 0.100000 -0.200000 0.000000 -0.000000 1.000000 0.693359 0.500000 30 30 30
-0.200000 -0.100000 0.200000 1.000000 0.000000 0.000000 0.693359 0.500000 30 30 30
-0.200000 -0.100000 -0.200000 1.000000 0.000000 0.000000 0.693359 0.500000 30 30 30
-0.200000 0.100000 -0.200000 1.000000 0.000000 0.000000 0.693359 0.500000 30 30 30
-0.200000 -0.100000 0.200000 -0.000000 -1.000000 -0.000000 0.693359 0.500000 30 30 30
-0.400000 -0.100000 0.300000 -0.000000 -1.000000 -0.000000 0.693359 0.500000 30 30 30
-0.200000 -0.100000 -0.200000 -0.000000 -1.000000 -0.000000 0.693359 0.500000 30 30 30
0.200000 -0.100000 -0.200000 -0.000000 -1.000000 -0.000000 0.693359 0.500000 30 30 30
0.100000 -0.100000 -0.300000 -0.000000 -1.000000 -0.000000 0.693359 0.500000 30 30 30
0.300000 -0.100000 -0.300000 -0.000000 -1.000000 -0.000000 0.693359 0.500000 30 30 30
-0.400000 0.100000 0.300000 0.000000 1.000000 0.000000 0.693359 0.500000 30 30 30
-0.200000 0.100000 0.200000 0.000000 1.000000 0.000000 0.693359 0.500000 30 30 30
-0.200000 0.100000 -0.200000 0.000000 1.000000 0.000000 0.693359 0.500000 30 30 30
0.200000 0.100000 0.200000 -0.000000 1.000000 0.000000 0.693359 0.500000 30 30 30
0.400000 0.100000 0.300000 -0.000000 1.000000 0.000000 0.693359 0.500000 30 30 30
0.200000 0.100000 -0.200000 -0.000000 1.000000 0.000000 0.693359 0.500000 30 30 30
-0.100000 0.100000 0.200000 1.000000 -0.000000 0.000000 0.693359 0.500000 30 30 30
-0.100000 0.100000 0.300000 1.000000 -0.000000 0.000000 0.693359 0.500000 30 30 30
-0.100000 -0.100000 0.300000 1.000000 -0.000000 0.000000 0.693359 0.500000 30 30 30
0.100000 0.100000 0.300000 -1.000000 0.000000 0.000000 0.693359 0.500000 30 30 30
0.100000 0.100000 0.200000 -1.000000 0.000000 0.000000 0.693359 0.500000 30 30 30
0.100000 -0.100000 0.200000 -1.000000 0.000000 0.000000 0.693359 0.500000 30 30 30
0.000000 -0.100000 -0.400000 0.000000 0.000000 -1.000000 0.693359 0.500000 30 30 30
0.000000 0.100000 -0.400000 0.000000 0.000000 -1.000000 0.693359 0.500000 30 30 30
0.300000 -0.100000 -0.400000 0.000000 0.000000 -1.000000 0.693359 0.500000 30 30 30
0.300000 0.100000 -0.300000 1.000000 0.000000 -0.000000 0.693359 0.500000 30 30 30
0.300000 -0.100000 -0.300000 1.000000 0.000000 -0.000000 0.693359 0.500000 30 30 30
0.300000 -0.100000 -0.400000 1.000000 0.000000 -0.000000 0.693359 0.500000 30 30 30
0.000000 0.100000 0.300000 0.000000 0.000000 -1.000000 0.693359 0.500000 30 30 30
0.100000 -0.100000 0.300000 0.000000 0.000000 -1.000000 0.693359 0.500000 30 30 30
0.000000 -0.100000 0.300000 0.000000 0.000000 -1.000000 0.693359 0.500000 30 30 30
0.300000 0.100000 0.300000 1.000000 -0.000000 0.000000 0.693359 0.500000 30 30 30
0.300000 0.100000 0.400000 1.000000 -0.000000 0.000000 0.693359 0.500000 30 30 30
0.300000 -0.100000 0.400000 1.000000 -0.000000 0.000000 0.693359 0.500000 30 30 30
0.400000 0.100000 -0.300000 0.000000 0.000000 -1.000000 0.693359 0.500000 30 30 30
0.400000 -0.100000 -0.300000 0.000000 0.000000 -1.000000 0.693359 0.500000 30 30 30
0.300000 -0.100000 -0.300000 0.000000 0.000000 -1.000000 0.693359 0.500000 30 30 30
0.000000 -0.100000 0.400000 -0.000000 0.000000 1.000000 0.693359 0.500000 30 30 30
0.000000 0.100000 0.400000 -0.000000 0.000000 1.000000 0.693359 0.500000 30 30 30
-0.300000 -0.100000 0.400000 -0.000000 0.000000 1.000000 0.693359 0.500000 30 30 30
0.100000 -0.100000 -0.200000 -1.000000 -0.000000 0.000000 0.693359 0.500000 30 30 30
0.100000 0.100000 -0.200000 -1.000000 -0.000000 0.000000 0.693359 0.500000 30 30 30
0.100000 0.100000 -0.300000 -1.000000 -0.000000 0.000000 0.693359 0.500000 30 30 30
0.100000 0.100000 -0.300000 0.000000 -0.000000 1.000000 0.693359 0.500000 30 30 30
0.000000 0.100000 -0.300000 0.000000 -0.000000 1.000000 0.693359 0.500000 30 30 30
0.000000 -0.100000 -0.300000 0.000000 -0.000000 1.000000 0.693359 0.500000 30 30 30
-0.200000 0.100000 0.200000 0.000000 0.000000 -1.000000 0.693359 0.500000 30 30 30
-0.100000 0.100000 0.200000 0.000000 0.000000 -1.000000 0.693359 0.500000 30 30 30
-0.100000 -0.100000 0.200000 0.000000 0.000000 -1.000000 0.693359 0.500000 30 30 30
-0.300000 -0.100000 0.400000 -1.000000 0.000000 0.000000 0.693359 0.500000 30 30 30
-0.300000 0.100000 0.400000 -1.000000 0.000000 0.000000 0.693359 0.500000 30 30 30
-0.300000 0.100000 0.300000 -1.000000 0.000000 0.000000 0.693359 0.500000 30 30 30
-0.300000 0.100000 0.300000 0.000000 -0.000000 1.000000 0.693359 0.500000 30 30 30
0.100000 -0.100000 -0.200000 0.000000 -0.000000 1.000000 0.693359 0.500000 30 30 30
-0.100000 -0.100000 -0.300000 1.000000 0.000000 0.000000 0.693359 0.500000 30 30 30
-0.400000 -0.100000 -0.300000 0.000000 0.000000 -1.000000 0.693359 0.500000 30 30 30
-0.400000 0.100000 -0.300000 -1.000000 0.000000 -0.000000 0.693359 0.500000 30 30 30
0.200000 -0.100000 0.200000 -1.000000 0.000000 0.000000 0.693359 0.500000 30 30 30
0.100000 -0.100000 0.200000 -0.000000 -0.000000 -1.000000 0.693359 0.500000 30 30 30
0.400000 0.100000 -0.300000 1.000000 -0.000000 0.000000 0.693359 0.500000 30 30 30
0.300000 -0.100000 0.300000 0.000000 0.000000 1.000000 0.693359 0.500000 30 30 30
-0.300000 0.100000 -0.300000 -1.000000 0.000000 0.000000 0.693359 0.500000 30 30 30
-0.200000 -0.100000 -0.200000 0.000000 -0.000000 1.000000 0.693359 0.500000 30 30 30
-0.200000 0.100000 0.200000 1.000000 0.000000 -0.000000 0.693359 0.500000 30 30 30
-0.100000 -0.100000 0.200000 -0.000000 -1.000000 -0.000000 0.693359 0.500000 30 30 30
-0.100000 -0.100000 0.300000 -0.000000 -1.000000 -0.000000 0.693359 0.500000 30 30 30
-0.100000 -0.100000 -0.300000 0.000000 -1.000000 -0.000000 0.693359 0.500000 30 30 30
-0.100000 -0.100000 -0.200000 0.000000 -1.000000 -0.000000 0.693359 0.500000 30 30 30
0.000000 -0.100000 0.300000 -0.000000 -1.000000 -0.000000 0.693359 0.500000 30 30 30
0.000000 -0.100000 0.400000 -0.000000 -1.000000 -0.000000 0.693359 0.500000 30 30 30
0.000000 -0.100000 -0.400000 0.000000 -1.000000 -0.000000 0.693359 0.500000 30 30 30
0.000000 -0.100000 -0.300000 0.000000 -1.000000 -0.000000 0.693359 0.500000 30 30 30
-0.300000 -0.100000 0.400000 0.000000 -1.000000 -0.000000 0.693359 0.500000 30 30 30
-0.300000 -0.100000 -0.300000 -0.000000 -1.000000 -0.000000 0.693359 0.500000 30 30 30
-0.300000 -0.100000 0.300000 -0.000000 -1.000000 -0.000000 0.693359 0.500000 30 30 30
-0.300000 -0.100000 -0.400000 -0.000000 -1.000000 -0.000000 0.693359 0.500000 30 30 30
-0.400000 -0.100000 -0.300000 0.000000 -1.000000 -0.000000 0.693359 0.500000 30 30 30
0.100000 -0.100000 0.300000 0.000000 -1.000000 -0.000000 0.693359 0.500000 30 30 30
0.200000 -0.100000 0.200000 0.000000 -1.000000 -0.000000 0.693359 0.500000 30 30 30
0.400000 -0.100000 0.300000 0.000000 -1.000000 -0.000000 0.693359 0.500000 30 30 30
0.300000 -0.100000 0.300000 0.000000 -1.000000 -0.000000 0.693359 0.500000 30 30 30
0.300000 -0.100000 0.400000 0.000000 -1.000000 -0.000000 0.693359 0.500000 30 30 30
0.400000 -0.100000 -0.300000 -0.000000 -1.000000 -0.000000 0.693359 0.500000 30 30 30
0.100000 -0.100000 0.200000 -0.000000 -1.000000 -0.000000 0.693359 0.500000 30 30 30
0.100000 -0.100000 -0.200000 0.000000 -1.000000 -0.000000 0.693359 0.500000 30 30 30
0.300000 -0.100000 -0.400000 0.000000 -1.000000 -0.000000 0.693359 0.500000 30 30 30
-0.100000 0.100000 -0.300000 0.000000 1.000000 0.000000 0.693359 0.500000 30 30 30
-0.300000 0.100000 -0.400000 0.000000 1.000000 0.000000 0.693359 0.500000 30 30 30
-0.300000 0.100000 -0.300000 0.000000 1.000000 0.000000 0.693359 0.500000 30 30 30
-0.400000 0.100000 -0.300000 -0.000000 1.000000 0.000000 0.693359 0.500000 30 30 30
-0.100000 0.100000 0.300000 0.000000 1.000000 0.000000 0.693359 0.500000 30 30 30
-0.300000 0.100000 0.400000 0.000000 1.000000 0.000000 0.693359 0.500000 30 30 30
0.000000 0.100000 0.400000 0.000000 1.000000 0.000000 0.693359 0.500000 30 30 30
-0.300000 0.100000 0.300000 0.000000 1.000000 0.000000 0.693359 0.500000 30 30 30
0.000000 0.100000 -0.300000 0.000000 1.000000 0.000000 0.693359 0.500000 30 30 30
0.000000 0.100000 -0.400000 0.000000 1.000000 0.000000 0.693359 0.500000 30 30 30
0.000000 0.100000 0.300000 -0.000000 1.000000 0.000000 0.693359 0.500000 30 30 30
-0.100000 0.100000 0.200000 0.000000 1.000000 0.000000 0.693359 0.500000 30 30 30
-0.100000 0.100000 -0.200000 0.000000 1.000000 0.000000 0.693359 0.500000 30 30 30
0.100000 0.100000 0.300000 0.000000 1.000000 0.000000 0.693359 0.500000 30 30 30
0.300000 0.100000 0.400000 0.000000 1.000000 0.000000 0.693359 0.500000 30 30 30
0.100000 0.100000 0.200000 -0.000000 1.000000 0.000000 0.693359 0.500000 30 30 30
0.400000 0.100000 -0.300000 0.000000 1.000000 0.000000 0.693359 0.500000 30 30 30
0.300000 0.100000 0.300000 0.000000 1.000000 0.000000 0.693359 0.500000 30 30 30
0.100000 0.100000 -0.300000 0.000000 1.000000 0.000000 0.693359 0.500000 30 30 30
0.100000 0.100000 -0.200000 0.000000 1.000000 0.000000 0.693359 0.500000 30 30 30
0.300000 0.100000 -0.300000 -0.000000 1.000000 0.000000 0.693359 0.500000 30 30 30
0.300000 0.100000 -0.400000 -0.000000 1.000000 0.000000 0.693359 0.500000 30 30 30
-0.100000 -0.100000 0.200000 1.000000 0.000000 0.000000 0.693359 0.500000 30 30 30
0.100000 -0.100000 0.300000 -1.000000 0.000000 0.000000 0.693359 0.500000 30 30 30
-0.300000 -0.100000 -0.400000 0.000000 0.000000 -1.000000 0.693359 0.500000 30 30 30
0.300000 0.100000 -0.400000 0.000000 0.000000 -1.000000 0.693359 0.500000 30 30 30
-0.300000 0.100000 -0.400000 0.000000 0.000000 -1.000000 0.693359 0.500000 30 30 30
0.300000 0.100000 -0.400000 1.000000 -0.000000 0.000000 0.693359 0.500000 30 30 30
-0.100000 -0.100000 0.300000 -0.000000 -0.000000 -1.000000 0.693359 0.500000 30 30 30
-0.100000 0.100000 0.300000 -0.000000 -0.000000 -1.000000 0.693359 0.500000 30 30 30
0.100000 0.100000 0.300000 0.000000 0.000000 -1.000000 0.693359 0.500000 30 30 30
0.300000 -0.100000 0.300000 1.000000 0.000000 0.000000 0.693359 0.500000 30 30 30
0.300000 0.100000 -0.300000 0.000000 0.000000 -1.000000 0.693359 0.500000 30 30 30
0.300000 -0.100000 0.400000 0.000000 -0.000000 1.000000 0.693359 0.500000 30 30 30
-0.300000 0.100000 0.400000 0.000000 0.000000 1.000000 0.693359 0.500000 30 30 30
0.300000 0.100000 0.400000 -0.000000 0.000000 1.000000 0.693359 0.500000 30 30 30
0.100000 -0.100000 -0.300000 -1.000000 -0.000000 -0.000000 0.693359 0.500000 30 30 30
0.100000 -0.100000 -0.300000 0.000000 -0.000000 1.000000 0.693359 0.500000 30 30 30
-0.100000 0.100000 -0.300000 0.000000 -0.000000 1.000000 0.693359 0.500000 30 30 30
-0.100000 -0.100000 -0.300000 0.000000 -0.000000 1.000000 0.693359 0.500000 30 30 30
-0.200000 -0.100000 0.200000 -0.000000 -0.000000 -1.000000 0.693359 0.500000 30 30 30
-0.300000 -0.100000 0.300000 -1.000000 -0.000000 -0.000000 0.693359 0.500000 30 30 30
3 0 1 2
3 3 4 5
3 6 7 8
3 9 10 11
3 12 13 14
3 15 16 17
3 18 19 20
3 21 22 23
3 24 25 26
3 27 28 29
3 30 31 32
3 33 34 35
3 36 37 38
3 39 40 41
3 42 43 44
3 45 46 47
3 48 49 50
3 51 52 53
3 54 55 56
3 57 58 59
3 60 61 62
3 63 64 65
3 66 67 68
3 69 70 71
3 72 73 74
3 75 76 77
3 78 79 80
3 81 82 83
3 84 0 2
3 85 3 5
3 86 6 8
3 87 9 11
3 88 12 14
3 89 15 17
3 90 18 20
3 91 21 23
3 92 24 26
3 93 27 29
3 94 30 32
3 95 33 35
3 36 96 97
3 98 99 38
3 97 100 101
3 102 103 98
3 104 97 101
3 105 98 38
3 106 97 104
3 107 102 98
3 106 36 97
3 38 37 108
3 37 36 106
3 105 107 98
3 38 108 105
3 109 101 100
3 110 111 112
3 113 101 109
3 39 114 111
3 112 113 109
3 109 115 110
3 39 116 40
3 112 109 110
3 40 103 102
3 111 110 39
3 117 40 102
3 40 117 41
3 41 114 39
3 118 119 120
3 44 121 42
3 122 123 124
3 43 42 125
3 118 126 127
3 124 128 122
3 118 127 119
3 125 123 122
3 44 118 120
3 43 122 129
3 44 130 118
3 125 122 43
3 44 120 121
3 131 124 132
3 45 133 131
3 131 128 124
3 47 46 134
3 131 132 135
3 136 137 47
3 45 131 135
3 127 126 136
3 46 45 135
3 138 136 47
3 136 139 127
3 47 134 138
3 138 139 136
3 140 48 50
3 141 51 53
3 55 54 142
3 55 143 56
3 142 144 55
3 145 57 59
3 146 147 60
3 60 62 146
3 60 148 61
3 149 63 65
3 150 66 68
3 70 69 151
3 70 152 71
3 151 153 70
3 154 72 74
3 77 155 75
3 156 157 77
3 77 76 156
3 158 78 80
3 159 81 83