ply
format ascii 1.0
comment Created by Blender 2.73 (sub 0) - www.blender.org, source file: '0.blend'
element vertex 78
property float x
property float y
property float z
property float nx
property float ny
property float nz
property float s
property float t
property uchar red
property uchar green
property uchar blue
element face 50
property list uchar uint vertex_indices
end_header
-0.100000 -0.000000 -0.300000 -1.000000 -0.000000 -0.000000 0.693359 0.500000 30 30 30
-0.100000 -0.100000 0.200000 -1.000000 -0.000000 -0.000000 0.693359 0.500000 30 30 30
-0.100000 0.100000 0.200000 -1.000000 -0.000000 -0.000000 0.693359 0.500000 30 30 30
0.300000 0.100000 -0.300000 1.000000 0.000000 -0.000000 0.693359 0.500000 30 30 30
0.300000 -0.100000 -0.300000 1.000000 0.000000 -0.000000 0.693359 0.500000 30 30 30
0.300000 -0.100000 -0.400000 1.000000 0.000000 -0.000000 0.693359 0.500000 30 30 30
-0.200000 0.100000 0.200000 0.000000 0.000000 -1.000000 0.693359 0.500000 30 30 30
-0.100000 0.100000 0.200000 0.000000 0.000000 -1.000000 0.693359 0.500000 30 30 30
-0.100000 -0.100000 0.200000 0.000000 0.000000 -1.000000 0.693359 0.500000 30 30 30
0.100000 -0.100000 -0.300000 1.000000 0.000000 0.000000 0.693359 0.500000 30 30 30
0.100000 -0.000000 -0.300000 1.000000 0.000000 0.000000 0.693359 0.500000 30 30 30
0.100000 -0.000000 0.400000 1.000000 0.000000 0.000000 0.693359 0.500000 30 30 30
-0.100000 -0.100000 0.300000 -0.000000 0.000000 1.000000 0.693359 0.500000 30 30 30
-0.100000 0.100000 0.300000 -0.000000 0.000000 1.000000 0.693359 0.500000 30 30 30
-0.200000 0.100000 0.300000 -0.000000 0.000000 1.000000 0.693359 0.500000 30 30 30
-0.100000 -0.100000 0.200000 0.000000 -1.000000 -0.000000 0.693359 0.500000 30 30 30
0.100000 -0.100000 0.400000 0.000000 -1.000000 -0.000000 0.693359 0.500000 30 30 30
-0.100000 -0.100000 0.300000 0.000000 -1.000000 -0.000000 0.693359 0.500000 30 30 30
-0.200000 -0.100000 0.300000 -1.000000 0.000000 0.000000 0.693359 0.500000 30 30 30
-0.200000 0.100000 0.300000 -1.000000 0.000000 0.000000 0.693359 0.500000 30 30 30
-0.200000 0.100000 0.200000 -1.000000 0.000000 0.000000 0.693359 0.500000 30 30 30
-0.100000 0.100000 0.200000 -0.000000 1.000000 0.000000 0.693359 0.500000 30 30 30
-0.100000 0.100000 0.300000 -0.000000 1.000000 0.000000 0.693359 0.500000 30 30 30
0.100000 0.100000 0.400000 -0.000000 1.000000 0.000000 0.693359 0.500000 30 30 30
0.300000 -0.100000 -0.400000 0.000000 0.000000 -1.000000 0.693359 0.500000 30 30 30
-0.300000 -0.100000 -0.400000 0.000000 0.000000 -1.000000 0.693359 0.500000 30 30 30
-0.300000 0.100000 -0.400000 0.000000 0.000000 -1.000000 0.693359 0.500000 30 30 30
-0.300000 0.100000 -0.400000 -1.000000 0.000000 0.000000 0.693359 0.500000 30 30 30
-0.300000 -0.100000 -0.400000 -1.000000 0.000000 0.000000 0.693359 0.500000 30 30 30
-0.300000 -0.100000 -0.300000 -1.000000 0.000000 0.000000 0.693359 0.500000 30 30 30
-0.100000 -0.000000 -0.300000 0.000000 -0.000000 1.000000 0.693359 0.500000 30 30 30
-0.100000 0.100000 -0.300000 0.000000 -0.000000 1.000000 0.693359 0.500000 30 30 30
-0.300000 0.100000 -0.300000 0.000000 -0.000000 1.000000 0.693359 0.500000 30 30 30
0.100000 -0.000000 -0.300000 -0.000000 -0.000000 1.000000 0.693359 0.500000 30 30 30
0.300000 -0.100000 -0.300000 -0.000000 -0.000000 1.000000 0.693359 0.500000 30 30 30
0.300000 0.100000 -0.300000 -0.000000 -0.000000 1.000000 0.693359 0.500000 30 30 30
-0.100000 -0.100000 0.400000 0.000000 0.000000 1.000000 0.693359 0.500000 30 30 30
0.100000 -0.100000 0.400000 0.000000 0.000000 1.000000 0.693359 0.500000 30 30 30
0.100000 -0.000000 0.400000 0.000000 0.000000 1.000000 0.693359 0.500000 30 30 30
-0.100000 -0.100000 0.400000 -1.000000 0.000000 0.000000 0.693359 0.500000 30 30 30
-0.100000 0.100000 0.400000 -1.000000 0.000000 0.000000 0.693359 0.500000 30 30 30
-0.100000 0.100000 0.300000 -1.000000 0.000000 0.000000 0.693359 0.500000 30 30 30
-0.100000 -0.100000 -0.300000 -1.000000 0.000000 0.000000 0.693359 0.500000 30 30 30
-0.100000 0.100000 -0.300000 -1.000000 -0.000000 0.000000 0.693359 0.500000 30 30 30
0.300000 0.100000 -0.400000 1.000000 -0.000000 0.000000 0.693359 0.500000 30 30 30
-0.200000 -0.100000 0.200000 -0.000000 -0.000000 -1.000000 0.693359 0.500000 30 30 30
0.100000 -0.100000 0.400000 1.000000 0.000000 -0.000000 0.693359 0.500000 30 30 30
0.100000 0.100000 -0.300000 1.000000 -0.000000 0.000000 0.693359 0.500000 30 30 30
0.100000 0.100000 0.400000 1.000000 -0.000000 0.000000 0.693359 0.500000 30 30 30
-0.200000 -0.100000 0.300000 0.000000 0.000000 1.000000 0.693359 0.500000 30 30 30
-0.100000 -0.100000 -0.300000 -0.000000 -1.000000 -0.000000 0.693359 0.500000 30 30 30
-0.300000 -0.100000 -0.400000 -0.000000 -1.000000 -0.000000 0.693359 0.500000 30 30 30
0.300000 -0.100000 -0.400000 -0.000000 -1.000000 -0.000000 0.693359 0.500000 30 30 30
-0.200000 -0.100000 0.300000 -0.000000 -1.000000 -0.000000 0.693359 0.500000 30 30 30
-0.200000 -0.100000 0.200000 -0.000000 -1.000000 -0.000000 0.693359 0.500000 30 30 30
-0.300000 -0.100000 -0.300000 0.000000 -1.000000 -0.000000 0.693359 0.500000 30 30 30
0.300000 -0.100000 -0.300000 0.000000 -1.000000 -0.000000 0.693359 0.500000 30 30 30
0.100000 -0.100000 -0.300000 0.000000 -1.000000 -0.000000 0.693359 0.500000 30 30 30
-0.100000 -0.100000 0.400000 0.000000 -1.000000 -0.000000 0.693359 0.500000 30 30 30
-0.200000 -0.100000 0.200000 -1.000000 -0.000000 -0.000000 0.693359 0.500000 30 30 30
-0.300000 0.100000 -0.400000 0.000000 1.000000 0.000000 0.693359 0.500000 30 30 30
-0.300000 0.100000 -0.300000 0.000000 1.000000 0.000000 0.693359 0.500000 30 30 30
-0.100000 0.100000 -0.300000 0.000000 1.000000 0.000000 0.693359 0.500000 30 30 30
0.100000 0.100000 -0.300000 -0.000000 1.000000 0.000000 0.693359 0.500000 30 30 30
0.300000 0.100000 -0.400000 -0.000000 1.000000 0.000000 0.693359 0.500000 30 30 30
0.300000 0.100000 -0.300000 0.000000 1.000000 0.000000 0.693359 0.500000 30 30 30
-0.200000 0.100000 0.200000 -0.000000 1.000000 0.000000 0.693359 0.500000 30 30 30
-0.200000 0.100000 0.300000 -0.000000 1.000000 0.000000 0.693359 0.500000 30 30 30
-0.100000 0.100000 0.400000 0.000000 1.000000 0.000000 0.693359 0.500000 30 30 30
0.300000 0.100000 -0.400000 0.000000 0.000000 -1.000000 0.693359 0.500000 30 30 30
-0.300000 0.100000 -0.300000 -1.000000 0.000000 0.000000 0.693359 0.500000 30 30 30
-0.300000 -0.100000 -0.300000 0.000000 0.000000 1.000000 0.693359 0.500000 30 30 30
-0.100000 -0.100000 -0.300000 0.000000 0.000000 1.000000 0.693359 0.500000 30 30 30
0.100000 -0.100000 -0.300000 -0.000000 0.000000 1.000000 0.693359 0.500000 30 30 30
0.100000 0.100000 -0.300000 0.000000 -0.000000 1.000000 0.693359 0.500000 30 30 30
-0.100000 0.100000 0.400000 -0.000000 0.000000 1.000000 0.693359 0.500000 30 30 30
0.100000 0.100000 0.400000 0.000000 0.000000 1.000000 0.693359 0.500000 30 30 30
-0.100000 -0.100000 0.300000 -1.000000 -0.000000 -0.000000 0.693359 0.500000 30 30 30
3 0 1 2
3 3 4 5
3 6 7 8
3 9 10 11
3 12 13 14
3 15 16 17
3 18 19 20
3 21 22 23
3 24 25 26
3 27 28 29
3 30 31 32
3 33 34 35
3 36 37 38
3 39 40 41
3 1 0 42
3 0 2 43
3 44 3 5
3 45 6 8
3 11 46 9
3 47 48 11
3 11 10 47
3 49 12 14
3 50 51 52
3 53 54 15
3 50 55 51
3 17 53 15
3 52 56 57
3 57 15 50
3 50 52 57
3 17 16 58
3 57 16 15
3 59 18 20
3 60 61 62
3 63 64 60
3 21 23 63
3 63 65 64
3 21 66 67
3 63 60 62
3 21 67 22
3 63 62 21
3 22 68 23
3 69 24 26
3 70 27 29
3 71 72 30
3 30 32 71
3 34 33 73
3 33 35 74
3 38 75 36
3 75 38 76
3 77 39 41