ply
format ascii 1.0
comment Created by Blender 2.73 (sub 0) - www.blender.org, source file: '2.blend'
element vertex 168
property float x
property float y
property float z
property float nx
property float ny
property float nz
property float s
property float t
property uchar red
property uchar green
property uchar blue
element face 108
property list uchar uint vertex_indices
end_header
-0.100000 0.100000 0.200000 1.000000 -0.000000 0.000000 0.693359 0.500000 30 30 30
-0.100000 0.100000 0.300000 1.000000 -0.000000 0.000000 0.693359 0.500000 30 30 30
-0.100000 -0.100000 0.300000 1.000000 -0.000000 0.000000 0.693359 0.500000 30 30 30
-0.200000 -0.100000 -0.100000 0.000000 -0.000000 1.000000 0.693359 0.500000 30 30 30
-0.200000 0.100000 -0.100000 0.000000 -0.000000 1.000000 0.693359 0.500000 30 30 30
-0.300000 0.100000 -0.100000 0.000000 -0.000000 1.000000 0.693359 0.500000 30 30 30
0.200000 -0.100000 0.200000 -1.000000 0.000000 0.000000 0.693359 0.500000 30 30 30
0.200000 0.100000 0.200000 -1.000000 0.000000 0.000000 0.693359 0.500000 30 30 30
0.200000 0.100000 0.000000 -1.000000 0.000000 0.000000 0.693359 0.500000 30 30 30
-0.200000 -0.100000 0.300000 -0.000000 0.000000 1.000000 0.693359 0.500000 30 30 30
-0.200000 0.100000 0.300000 -0.000000 0.000000 1.000000 0.693359 0.500000 30 30 30
-0.300000 0.100000 0.300000 -0.000000 0.000000 1.000000 0.693359 0.500000 30 30 30
-0.300000 -0.100000 -0.100000 -1.000000 -0.000000 0.000000 0.693359 0.500000 30 30 30
-0.300000 0.100000 -0.100000 -1.000000 -0.000000 0.000000 0.693359 0.500000 30 30 30
-0.300000 0.100000 -0.400000 -1.000000 -0.000000 0.000000 0.693359 0.500000 30 30 30
-0.300000 -0.100000 0.300000 -1.000000 0.000000 0.000000 0.693359 0.500000 30 30 30
-0.300000 0.100000 0.300000 -1.000000 0.000000 0.000000 0.693359 0.500000 30 30 30
-0.300000 0.100000 0.100000 -1.000000 0.000000 0.000000 0.693359 0.500000 30 30 30
0.300000 0.100000 0.000000 0.000000 0.000000 -1.000000 0.693359 0.500000 30 30 30
0.400000 0.100000 0.000000 0.000000 0.000000 -1.000000 0.693359 0.500000 30 30 30
0.400000 -0.100000 -0.000000 0.000000 0.000000 -1.000000 0.693359 0.500000 30 30 30
-0.200000 -0.100000 -0.000000 -1.000000 -0.000000 0.000000 0.693359 0.500000 30 30 30
-0.200000 0.100000 0.000000 -1.000000 -0.000000 0.000000 0.693359 0.500000 30 30 30
-0.200000 0.100000 -0.100000 -1.000000 -0.000000 0.000000 0.693359 0.500000 30 30 30
0.200000 0.100000 0.300000 1.000000 -0.000000 0.000000 0.693359 0.500000 30 30 30
0.200000 0.100000 0.400000 1.000000 -0.000000 0.000000 0.693359 0.500000 30 30 30
0.200000 -0.100000 0.400000 1.000000 -0.000000 0.000000 0.693359 0.500000 30 30 30
0.300000 0.100000 -0.400000 1.000000 -0.000000 0.000000 0.693359 0.500000 30 30 30
0.300000 0.100000 -0.300000 1.000000 -0.000000 0.000000 0.693359 0.500000 30 30 30
0.300000 -0.100000 -0.300000 1.000000 -0.000000 0.000000 0.693359 0.500000 30 30 30
-0.100000 0.100000 -0.100000 1.000000 0.000000 -0.000000 0.693359 0.500000 30 30 30
-0.100000 -0.100000 -0.100000 1.000000 0.000000 -0.000000 0.693359 0.500000 30 30 30
-0.100000 -0.100000 -0.300000 1.000000 0.000000 -0.000000 0.693359 0.500000 30 30 30
0.400000 0.100000 0.000000 1.000000 -0.000000 0.000000 0.693359 0.500000 30 30 30
0.400000 0.100000 0.200000 1.000000 -0.000000 0.000000 0.693359 0.500000 30 30 30
0.400000 -0.100000 0.200000 1.000000 -0.000000 0.000000 0.693359 0.500000 30 30 30
0.200000 -0.100000 0.200000 -0.000000 -1.000000 -0.000000 0.693359 0.500000 30 30 30
0.300000 -0.100000 0.200000 -0.000000 -1.000000 -0.000000 0.693359 0.500000 30 30 30
0.200000 -0.100000 0.300000 -0.000000 -1.000000 -0.000000 0.693359 0.500000 30 30 30
0.200000 -0.100000 0.400000 -0.000000 0.000000 1.000000 0.693359 0.500000 30 30 30
0.200000 0.100000 0.400000 -0.000000 0.000000 1.000000 0.693359 0.500000 30 30 30
-0.200000 0.100000 0.400000 -0.000000 0.000000 1.000000 0.693359 0.500000 30 30 30
0.200000 0.100000 0.200000 0.000000 1.000000 0.000000 0.693359 0.500000 30 30 30
0.200000 0.100000 0.300000 0.000000 1.000000 0.000000 0.693359 0.500000 30 30 30
0.300000 0.100000 0.200000 0.000000 1.000000 0.000000 0.693359 0.500000 30 30 30
-0.200000 0.100000 0.200000 0.000000 0.000000 -1.000000 0.693359 0.500000 30 30 30
-0.100000 0.100000 0.200000 0.000000 0.000000 -1.000000 0.693359 0.500000 30 30 30
-0.100000 -0.100000 0.200000 0.000000 0.000000 -1.000000 0.693359 0.500000 30 30 30
0.300000 0.100000 -0.100000 1.000000 -0.000000 0.000000 0.693359 0.500000 30 30 30
0.300000 0.100000 0.000000 1.000000 -0.000000 0.000000 0.693359 0.500000 30 30 30
0.300000 -0.100000 -0.000000 1.000000 -0.000000 0.000000 0.693359 0.500000 30 30 30
0.300000 -0.100000 0.300000 -0.000000 0.000000 1.000000 0.693359 0.500000 30 30 30
0.300000 0.100000 0.300000 -0.000000 0.000000 1.000000 0.693359 0.500000 30 30 30
0.200000 0.100000 0.300000 -0.000000 0.000000 1.000000 0.693359 0.500000 30 30 30
-0.200000 0.100000 0.100000 1.000000 -0.000000 0.000000 0.693359 0.500000 30 30 30
-0.200000 0.100000 0.200000 1.000000 -0.000000 0.000000 0.693359 0.500000 30 30 30
-0.200000 -0.100000 0.200000 1.000000 -0.000000 0.000000 0.693359 0.500000 30 30 30
0.100000 -0.100000 0.300000 -1.000000 0.000000 0.000000 0.693359 0.500000 30 30 30
0.100000 0.100000 0.300000 -1.000000 0.000000 0.000000 0.693359 0.500000 30 30 30
0.100000 0.100000 0.200000 -1.000000 0.000000 0.000000 0.693359 0.500000 30 30 30
0.300000 -0.100000 -0.100000 0.000000 0.000000 -1.000000 0.693359 0.500000 30 30 30
-0.100000 -0.100000 -0.100000 0.000000 0.000000 -1.000000 0.693359 0.500000 30 30 30
-0.100000 0.100000 -0.100000 0.000000 0.000000 -1.000000 0.693359 0.500000 30 30 30
-0.300000 0.100000 -0.400000 0.000000 0.000000 -1.000000 0.693359 0.500000 30 30 30
0.300000 0.100000 -0.400000 0.000000 0.000000 -1.000000 0.693359 0.500000 30 30 30
0.300000 -0.100000 -0.400000 0.000000 0.000000 -1.000000 0.693359 0.500000 30 30 30
0.100000 0.100000 0.300000 0.000000 0.000000 -1.000000 0.693359 0.500000 30 30 30
0.100000 -0.100000 0.300000 0.000000 0.000000 -1.000000 0.693359 0.500000 30 30 30
-0.100000 -0.100000 0.300000 0.000000 0.000000 -1.000000 0.693359 0.500000 30 30 30
0.300000 0.100000 0.200000 1.000000 -0.000000 0.000000 0.693359 0.500000 30 30 30
0.300000 0.100000 0.300000 1.000000 -0.000000 0.000000 0.693359 0.500000 30 30 30
0.300000 -0.100000 0.300000 1.000000 -0.000000 0.000000 0.693359 0.500000 30 30 30
-0.200000 -0.100000 0.400000 -1.000000 0.000000 0.000000 0.693359 0.500000 30 30 30
-0.200000 0.100000 0.400000 -1.000000 0.000000 0.000000 0.693359 0.500000 30 30 30
-0.200000 0.100000 0.300000 -1.000000 0.000000 0.000000 0.693359 0.500000 30 30 30
0.300000 0.100000 -0.300000 0.000000 -0.000000 1.000000 0.693359 0.500000 30 30 30
-0.100000 0.100000 -0.300000 0.000000 -0.000000 1.000000 0.693359 0.500000 30 30 30
-0.100000 -0.100000 -0.300000 0.000000 -0.000000 1.000000 0.693359 0.500000 30 30 30
0.200000 0.100000 0.000000 0.000000 -0.000000 1.000000 0.693359 0.500000 30 30 30
-0.200000 0.100000 0.000000 0.000000 -0.000000 1.000000 0.693359 0.500000 30 30 30
-0.200000 -0.100000 -0.000000 0.000000 -0.000000 1.000000 0.693359 0.500000 30 30 30
0.400000 -0.100000 0.200000 -0.000000 0.000000 1.000000 0.693359 0.500000 30 30 30
0.400000 0.100000 0.200000 -0.000000 0.000000 1.000000 0.693359 0.500000 30 30 30
0.300000 0.100000 0.200000 -0.000000 0.000000 1.000000 0.693359 0.500000 30 30 30
-0.300000 0.100000 0.100000 0.000000 0.000000 -1.000000 0.693359 0.500000 30 30 30
-0.200000 0.100000 0.100000 0.000000 0.000000 -1.000000 0.693359 0.500000 30 30 30
-0.200000 -0.100000 0.100000 0.000000 0.000000 -1.000000 0.693359 0.500000 30 30 30
0.100000 0.100000 0.200000 0.000000 0.000000 -1.000000 0.693359 0.500000 30 30 30
0.200000 0.100000 0.200000 0.000000 0.000000 -1.000000 0.693359 0.500000 30 30 30
0.200000 -0.100000 0.200000 0.000000 0.000000 -1.000000 0.693359 0.500000 30 30 30
-0.100000 -0.100000 0.200000 1.000000 0.000000 0.000000 0.693359 0.500000 30 30 30
-0.300000 -0.100000 -0.100000 0.000000 -0.000000 1.000000 0.693359 0.500000 30 30 30
0.200000 -0.100000 -0.000000 -1.000000 -0.000000 -0.000000 0.693359 0.500000 30 30 30
-0.300000 -0.100000 0.300000 0.000000 0.000000 1.000000 0.693359 0.500000 30 30 30
-0.300000 -0.100000 -0.400000 -1.000000 -0.000000 -0.000000 0.693359 0.500000 30 30 30
-0.300000 -0.100000 0.100000 -1.000000 -0.000000 -0.000000 0.693359 0.500000 30 30 30
0.300000 -0.100000 -0.000000 0.000000 0.000000 -1.000000 0.693359 0.500000 30 30 30
-0.200000 -0.100000 -0.100000 -1.000000 -0.000000 -0.000000 0.693359 0.500000 30 30 30
0.200000 -0.100000 0.300000 1.000000 0.000000 0.000000 0.693359 0.500000 30 30 30
0.300000 -0.100000 -0.400000 1.000000 0.000000 0.000000 0.693359 0.500000 30 30 30
-0.100000 0.100000 -0.300000 1.000000 -0.000000 0.000000 0.693359 0.500000 30 30 30
0.400000 -0.100000 -0.000000 1.000000 0.000000 0.000000 0.693359 0.500000 30 30 30
-0.200000 -0.100000 -0.100000 0.000000 -1.000000 -0.000000 0.693359 0.500000 30 30 30
-0.300000 -0.100000 -0.100000 0.000000 -1.000000 -0.000000 0.693359 0.500000 30 30 30
-0.300000 -0.100000 -0.400000 0.000000 -1.000000 -0.000000 0.693359 0.500000 30 30 30
-0.100000 -0.100000 -0.100000 0.000000 -1.000000 -0.000000 0.693359 0.500000 30 30 30
-0.200000 -0.100000 -0.000000 0.000000 -1.000000 -0.000000 0.693359 0.500000 30 30 30
0.100000 -0.100000 0.300000 -0.000000 -1.000000 -0.000000 0.693359 0.500000 30 30 30
0.100000 -0.100000 0.200000 -0.000000 -1.000000 -0.000000 0.693359 0.500000 30 30 30
-0.100000 -0.100000 -0.300000 0.000000 -1.000000 -0.000000 0.693359 0.500000 30 30 30
0.300000 -0.100000 -0.400000 0.000000 -1.000000 -0.000000 0.693359 0.500000 30 30 30
0.300000 -0.100000 -0.300000 0.000000 -1.000000 -0.000000 0.693359 0.500000 30 30 30
-0.200000 -0.100000 0.200000 -0.000000 -1.000000 -0.000000 0.693359 0.500000 30 30 30
-0.100000 -0.100000 0.200000 -0.000000 -1.000000 -0.000000 0.693359 0.500000 30 30 30
-0.100000 -0.100000 0.300000 -0.000000 -1.000000 -0.000000 0.693359 0.500000 30 30 30
-0.300000 -0.100000 0.100000 -0.000000 -1.000000 -0.000000 0.693359 0.500000 30 30 30
-0.200000 -0.100000 0.100000 -0.000000 -1.000000 -0.000000 0.693359 0.500000 30 30 30
-0.200000 -0.100000 0.300000 0.000000 -1.000000 -0.000000 0.693359 0.500000 30 30 30
-0.300000 -0.100000 0.300000 0.000000 -1.000000 -0.000000 0.693359 0.500000 30 30 30
0.200000 -0.100000 -0.000000 0.000000 -1.000000 -0.000000 0.693359 0.500000 30 30 30
0.300000 -0.100000 -0.100000 -0.000000 -1.000000 -0.000000 0.693359 0.500000 30 30 30
-0.200000 -0.100000 0.400000 -0.000000 -1.000000 -0.000000 0.693359 0.500000 30 30 30
0.300000 -0.100000 -0.000000 0.000000 -1.000000 -0.000000 0.693359 0.500000 30 30 30
0.200000 -0.100000 0.400000 0.000000 -1.000000 -0.000000 0.693359 0.500000 30 30 30
0.400000 -0.100000 -0.000000 -0.000000 -1.000000 -0.000000 0.693359 0.500000 30 30 30
0.400000 -0.100000 0.200000 0.000000 -1.000000 -0.000000 0.693359 0.500000 30 30 30
0.300000 -0.100000 0.300000 0.000000 -1.000000 -0.000000 0.693359 0.500000 30 30 30
-0.200000 -0.100000 0.400000 0.000000 0.000000 1.000000 0.693359 0.500000 30 30 30
-0.100000 0.100000 -0.300000 -0.000000 1.000000 0.000000 0.693359 0.500000 30 30 30
0.300000 0.100000 -0.400000 -0.000000 1.000000 0.000000 0.693359 0.500000 30 30 30
-0.300000 0.100000 -0.400000 -0.000000 1.000000 0.000000 0.693359 0.500000 30 30 30
-0.300000 0.100000 -0.100000 0.000000 1.000000 0.000000 0.693359 0.500000 30 30 30
-0.200000 0.100000 -0.100000 0.000000 1.000000 0.000000 0.693359 0.500000 30 30 30
-0.100000 0.100000 -0.100000 0.000000 1.000000 0.000000 0.693359 0.500000 30 30 30
-0.200000 0.100000 0.000000 0.000000 1.000000 0.000000 0.693359 0.500000 30 30 30
0.200000 0.100000 0.000000 0.000000 1.000000 0.000000 0.693359 0.500000 30 30 30
0.100000 0.100000 0.200000 -0.000000 1.000000 0.000000 0.693359 0.500000 30 30 30
0.100000 0.100000 0.300000 -0.000000 1.000000 0.000000 0.693359 0.500000 30 30 30
0.300000 0.100000 -0.300000 0.000000 1.000000 0.000000 0.693359 0.500000 30 30 30
-0.100000 0.100000 0.300000 -0.000000 1.000000 0.000000 0.693359 0.500000 30 30 30
-0.100000 0.100000 0.200000 -0.000000 1.000000 0.000000 0.693359 0.500000 30 30 30
-0.200000 0.100000 0.200000 -0.000000 1.000000 0.000000 0.693359 0.500000 30 30 30
-0.200000 0.100000 0.100000 -0.000000 1.000000 0.000000 0.693359 0.500000 30 30 30
-0.300000 0.100000 0.100000 -0.000000 1.000000 0.000000 0.693359 0.500000 30 30 30
-0.300000 0.100000 0.300000 -0.000000 1.000000 0.000000 0.693359 0.500000 30 30 30
-0.200000 0.100000 0.300000 0.000000 1.000000 0.000000 0.693359 0.500000 30 30 30
0.300000 0.100000 -0.100000 -0.000000 1.000000 0.000000 0.693359 0.500000 30 30 30
0.300000 0.100000 0.000000 -0.000000 1.000000 0.000000 0.693359 0.500000 30 30 30
-0.200000 0.100000 0.400000 -0.000000 1.000000 0.000000 0.693359 0.500000 30 30 30
0.200000 0.100000 0.400000 0.000000 1.000000 0.000000 0.693359 0.500000 30 30 30
0.400000 0.100000 0.200000 0.000000 1.000000 0.000000 0.693359 0.500000 30 30 30
0.400000 0.100000 0.000000 0.000000 1.000000 0.000000 0.693359 0.500000 30 30 30
0.300000 0.100000 0.300000 0.000000 1.000000 0.000000 0.693359 0.500000 30 30 30
-0.200000 -0.100000 0.200000 -0.000000 -0.000000 -1.000000 0.693359 0.500000 30 30 30
0.300000 -0.100000 -0.100000 1.000000 0.000000 0.000000 0.693359 0.500000 30 30 30
0.200000 -0.100000 0.300000 0.000000 0.000000 1.000000 0.693359 0.500000 30 30 30
-0.200000 -0.100000 0.100000 1.000000 0.000000 0.000000 0.693359 0.500000 30 30 30
0.100000 -0.100000 0.200000 -1.000000 -0.000000 -0.000000 0.693359 0.500000 30 30 30
0.300000 0.100000 -0.100000 0.000000 0.000000 -1.000000 0.693359 0.500000 30 30 30
-0.300000 -0.100000 -0.400000 0.000000 0.000000 -1.000000 0.693359 0.500000 30 30 30
-0.100000 0.100000 0.300000 0.000000 0.000000 -1.000000 0.693359 0.500000 30 30 30
0.300000 -0.100000 0.200000 1.000000 0.000000 0.000000 0.693359 0.500000 30 30 30
-0.200000 -0.100000 0.300000 -1.000000 -0.000000 -0.000000 0.693359 0.500000 30 30 30
0.300000 -0.100000 -0.300000 0.000000 -0.000000 1.000000 0.693359 0.500000 30 30 30
0.200000 -0.100000 -0.000000 0.000000 -0.000000 1.000000 0.693359 0.500000 30 30 30
0.300000 -0.100000 0.200000 0.000000 0.000000 1.000000 0.693359 0.500000 30 30 30
-0.300000 -0.100000 0.100000 0.000000 0.000000 -1.000000 0.693359 0.500000 30 30 30
0.100000 -0.100000 0.200000 -0.000000 -0.000000 -1.000000 0.693359 0.500000 30 30 30
3 0 1 2
3 3 4 5
3 6 7 8
3 9 10 11
3 12 13 14
3 15 16 17
3 18 19 20
3 21 22 23
3 24 25 26
3 27 28 29
3 30 31 32
3 33 34 35
3 36 37 38
3 39 40 41
3 42 43 44
3 45 46 47
3 48 49 50
3 51 52 53
3 54 55 56
3 57 58 59
3 60 61 62
3 63 64 65
3 66 67 68
3 69 70 71
3 72 73 74
3 75 76 77
3 78 79 80
3 81 82 83
3 84 85 86
3 87 88 89
3 90 0 2
3 91 3 5
3 92 6 8
3 93 9 11
3 94 12 14
3 95 15 17
3 96 18 20
3 97 21 23
3 98 24 26
3 99 27 29
3 100 30 32
3 101 33 35
3 102 103 104
3 105 106 102
3 107 108 36
3 109 110 111
3 112 113 114
3 104 110 109
3 115 116 112
3 102 104 109
3 117 112 114
3 102 109 105
3 112 118 115
3 119 106 105
3 117 118 112
3 119 105 120
3 121 114 107
3 122 119 120
3 121 117 114
3 36 119 122
3 123 121 107
3 37 122 124
3 38 123 107
3 37 36 122
3 124 125 37
3 37 126 38
3 38 107 36
3 127 39 41
3 128 129 130
3 130 131 132
3 133 134 135
3 42 136 137
3 128 138 129
3 139 140 141
3 128 130 132
3 141 142 143
3 133 128 132
3 144 141 143
3 133 132 134
3 141 144 145
3 146 133 135
3 139 141 145
3 147 135 42
3 148 139 145
3 147 146 135
3 137 139 148
3 44 147 42
3 137 148 149
3 43 42 137
3 44 150 151
3 43 152 44
3 137 149 43
3 44 151 147
3 153 45 47
3 154 48 50
3 155 51 53
3 156 54 56
3 157 57 59
3 158 60 62
3 159 63 65
3 160 66 68
3 161 69 71
3 162 72 74
3 163 75 77
3 164 78 80
3 165 81 83
3 166 84 86
3 167 87 89
