ply
format ascii 1.0
comment Created by Blender 2.73 (sub 0) - www.blender.org, source file: '4.blend'
element vertex 138
property float x
property float y
property float z
property float nx
property float ny
property float nz
property float s
property float t
property uchar red
property uchar green
property uchar blue
element face 94
property list uchar uint vertex_indices
end_header
0.000000 -0.000000 -0.200000 -1.000000 -0.000000 0.000000 0.693359 0.500000 30 30 30
0.000000 0.100000 -0.200000 -1.000000 -0.000000 0.000000 0.693359 0.500000 30 30 30
0.000000 0.100000 -0.400000 -1.000000 -0.000000 0.000000 0.693359 0.500000 30 30 30
0.100000 -0.100000 -0.100000 -1.000000 0.000000 -0.000000 0.693359 0.500000 30 30 30
0.100000 -0.100000 0.100000 -1.000000 0.000000 -0.000000 0.693359 0.500000 30 30 30
0.100000 0.100000 0.100000 -1.000000 0.000000 -0.000000 0.693359 0.500000 30 30 30
-0.300000 0.100000 -0.200000 -1.000000 0.000000 0.000000 0.693359 0.500000 30 30 30
-0.300000 -0.100000 -0.200000 -1.000000 0.000000 0.000000 0.693359 0.500000 30 30 30
-0.300000 -0.100000 -0.000000 -1.000000 0.000000 0.000000 0.693359 0.500000 30 30 30
-0.100000 -0.100000 0.300000 -1.000000 0.000000 0.000000 0.693359 0.500000 30 30 30
-0.100000 0.100000 0.300000 -1.000000 0.000000 0.000000 0.693359 0.500000 30 30 30
-0.100000 0.100000 0.200000 -1.000000 0.000000 0.000000 0.693359 0.500000 30 30 30
-0.200000 0.100000 0.000000 -1.000000 0.000000 0.000000 0.693359 0.500000 30 30 30
-0.200000 -0.100000 -0.000000 -1.000000 0.000000 0.000000 0.693359 0.500000 30 30 30
-0.200000 -0.100000 0.200000 -1.000000 0.000000 0.000000 0.693359 0.500000 30 30 30
0.000000 -0.100000 0.300000 -0.000000 0.000000 1.000000 0.693359 0.500000 30 30 30
0.000000 0.100000 0.300000 -0.000000 0.000000 1.000000 0.693359 0.500000 30 30 30
-0.100000 0.100000 0.300000 -0.000000 0.000000 1.000000 0.693359 0.500000 30 30 30
0.200000 0.100000 -0.400000 1.000000 -0.000000 0.000000 0.693359 0.500000 30 30 30
0.200000 0.100000 -0.200000 1.000000 -0.000000 0.000000 0.693359 0.500000 30 30 30
0.200000 -0.100000 -0.200000 1.000000 -0.000000 0.000000 0.693359 0.500000 30 30 30
0.000000 0.100000 0.000000 0.000000 0.000000 -1.000000 0.693359 0.500000 30 30 30
0.000000 -0.100000 -0.000000 0.000000 0.000000 -1.000000 0.693359 0.500000 30 30 30
-0.100000 -0.100000 -0.000000 0.000000 0.000000 -1.000000 0.693359 0.500000 30 30 30
0.000000 0.100000 0.000000 1.000000 -0.000000 0.000000 0.693359 0.500000 30 30 30
0.000000 0.100000 0.100000 1.000000 -0.000000 0.000000 0.693359 0.500000 30 30 30
0.000000 -0.100000 0.100000 1.000000 -0.000000 0.000000 0.693359 0.500000 30 30 30
0.200000 0.100000 0.400000 1.000000 0.000000 -0.000000 0.693359 0.500000 30 30 30
0.200000 -0.100000 0.400000 1.000000 0.000000 -0.000000 0.693359 0.500000 30 30 30
0.200000 -0.100000 -0.100000 1.000000 0.000000 -0.000000 0.693359 0.500000 30 30 30
0.200000 0.100000 -0.200000 0.000000 0.000000 -1.000000 0.693359 0.500000 30 30 30
0.300000 0.100000 -0.200000 0.000000 0.000000 -1.000000 0.693359 0.500000 30 30 30
0.300000 -0.100000 -0.200000 0.000000 0.000000 -1.000000 0.693359 0.500000 30 30 30
-0.200000 -0.100000 -0.000000 -0.000000 -1.000000 -0.000000 0.693359 0.500000 30 30 30
-0.300000 -0.100000 -0.200000 -0.000000 -1.000000 -0.000000 0.693359 0.500000 30 30 30
-0.100000 -0.100000 -0.100000 -0.000000 -1.000000 -0.000000 0.693359 0.500000 30 30 30
0.300000 -0.100000 -0.100000 0.000000 -0.000000 1.000000 0.693359 0.500000 30 30 30
0.300000 0.100000 -0.100000 0.000000 -0.000000 1.000000 0.693359 0.500000 30 30 30
0.200000 0.100000 -0.100000 0.000000 -0.000000 1.000000 0.693359 0.500000 30 30 30
-0.300000 0.100000 -0.200000 0.000000 1.000000 0.000000 0.693359 0.500000 30 30 30
-0.200000 0.100000 0.000000 0.000000 1.000000 0.000000 0.693359 0.500000 30 30 30
-0.100000 0.100000 -0.100000 0.000000 1.000000 0.000000 0.693359 0.500000 30 30 30
0.100000 0.100000 0.100000 -0.000000 1.000000 0.000000 0.693359 0.500000 30 30 30
0.000000 0.100000 0.300000 -0.000000 1.000000 0.000000 0.693359 0.500000 30 30 30
0.200000 0.100000 0.400000 -0.000000 1.000000 0.000000 0.693359 0.500000 30 30 30
-0.100000 0.100000 -0.200000 0.000000 0.000000 -1.000000 0.693359 0.500000 30 30 30
0.000000 -0.000000 -0.200000 0.000000 0.000000 -1.000000 0.693359 0.500000 30 30 30
-0.100000 -0.100000 -0.200000 0.000000 0.000000 -1.000000 0.693359 0.500000 30 30 30
0.000000 0.100000 -0.400000 0.000000 0.000000 -1.000000 0.693359 0.500000 30 30 30
0.200000 0.100000 -0.400000 0.000000 0.000000 -1.000000 0.693359 0.500000 30 30 30
0.200000 -0.100000 -0.400000 0.000000 0.000000 -1.000000 0.693359 0.500000 30 30 30
-0.100000 0.100000 -0.100000 1.000000 -0.000000 0.000000 0.693359 0.500000 30 30 30
-0.100000 0.100000 0.000000 1.000000 -0.000000 0.000000 0.693359 0.500000 30 30 30
-0.100000 -0.100000 -0.000000 1.000000 -0.000000 0.000000 0.693359 0.500000 30 30 30
0.000000 0.100000 0.100000 0.000000 0.000000 -1.000000 0.693359 0.500000 30 30 30
0.100000 0.100000 0.100000 0.000000 0.000000 -1.000000 0.693359 0.500000 30 30 30
0.100000 -0.100000 0.100000 0.000000 0.000000 -1.000000 0.693359 0.500000 30 30 30
0.100000 -0.100000 -0.100000 0.000000 -0.000000 1.000000 0.693359 0.500000 30 30 30
0.100000 0.100000 -0.100000 0.000000 -0.000000 1.000000 0.693359 0.500000 30 30 30
-0.100000 0.100000 -0.100000 0.000000 -0.000000 1.000000 0.693359 0.500000 30 30 30
0.000000 0.100000 0.400000 0.000000 -0.000000 1.000000 0.693359 0.500000 30 30 30
0.000000 -0.100000 0.400000 0.000000 -0.000000 1.000000 0.693359 0.500000 30 30 30
0.200000 -0.100000 0.400000 0.000000 -0.000000 1.000000 0.693359 0.500000 30 30 30
-0.100000 0.100000 0.200000 0.000000 0.000000 1.000000 0.693359 0.500000 30 30 30
-0.200000 0.100000 0.200000 0.000000 0.000000 1.000000 0.693359 0.500000 30 30 30
-0.200000 -0.100000 0.200000 0.000000 0.000000 1.000000 0.693359 0.500000 30 30 30
0.300000 0.100000 -0.200000 1.000000 -0.000000 0.000000 0.693359 0.500000 30 30 30
0.300000 0.100000 -0.100000 1.000000 -0.000000 0.000000 0.693359 0.500000 30 30 30
0.300000 -0.100000 -0.100000 1.000000 -0.000000 0.000000 0.693359 0.500000 30 30 30
-0.300000 0.100000 0.000000 0.000000 -0.000000 1.000000 0.693359 0.500000 30 30 30
-0.300000 -0.100000 -0.000000 0.000000 -0.000000 1.000000 0.693359 0.500000 30 30 30
-0.200000 -0.100000 -0.000000 0.000000 -0.000000 1.000000 0.693359 0.500000 30 30 30
0.200000 -0.100000 0.400000 0.000000 -1.000000 -0.000000 0.693359 0.500000 30 30 30
0.000000 -0.100000 0.300000 0.000000 -1.000000 -0.000000 0.693359 0.500000 30 30 30
0.100000 -0.100000 0.100000 0.000000 -1.000000 -0.000000 0.693359 0.500000 30 30 30
0.000000 0.100000 0.400000 -1.000000 0.000000 0.000000 0.693359 0.500000 30 30 30
0.000000 0.100000 0.300000 -1.000000 0.000000 0.000000 0.693359 0.500000 30 30 30
0.000000 -0.100000 0.300000 -1.000000 0.000000 0.000000 0.693359 0.500000 30 30 30
0.000000 -0.100000 -0.400000 -1.000000 0.000000 -0.000000 0.693359 0.500000 30 30 30
0.000000 -0.100000 -0.200000 -1.000000 0.000000 -0.000000 0.693359 0.500000 30 30 30
0.100000 0.100000 -0.100000 -1.000000 0.000000 -0.000000 0.693359 0.500000 30 30 30
-0.300000 0.100000 0.000000 -1.000000 0.000000 0.000000 0.693359 0.500000 30 30 30
-0.100000 -0.100000 0.200000 -1.000000 -0.000000 -0.000000 0.693359 0.500000 30 30 30
-0.200000 0.100000 0.200000 -1.000000 0.000000 0.000000 0.693359 0.500000 30 30 30
-0.100000 -0.100000 0.300000 0.000000 0.000000 1.000000 0.693359 0.500000 30 30 30
0.200000 -0.100000 -0.400000 1.000000 0.000000 0.000000 0.693359 0.500000 30 30 30
-0.100000 0.100000 0.000000 0.000000 0.000000 -1.000000 0.693359 0.500000 30 30 30
0.000000 -0.100000 -0.000000 1.000000 0.000000 0.000000 0.693359 0.500000 30 30 30
0.200000 0.100000 -0.100000 1.000000 -0.000000 0.000000 0.693359 0.500000 30 30 30
0.200000 -0.100000 -0.200000 0.000000 0.000000 -1.000000 0.693359 0.500000 30 30 30
-0.100000 -0.100000 -0.000000 0.000000 -1.000000 -0.000000 0.693359 0.500000 30 30 30
-0.100000 -0.100000 -0.200000 -0.000000 -1.000000 -0.000000 0.693359 0.500000 30 30 30
-0.300000 -0.100000 -0.000000 0.000000 -1.000000 -0.000000 0.693359 0.500000 30 30 30
0.200000 -0.100000 -0.100000 0.000000 -0.000000 1.000000 0.693359 0.500000 30 30 30
-0.300000 0.100000 0.000000 0.000000 1.000000 0.000000 0.693359 0.500000 30 30 30
-0.100000 0.100000 -0.200000 0.000000 1.000000 0.000000 0.693359 0.500000 30 30 30
-0.100000 0.100000 0.000000 0.000000 1.000000 0.000000 0.693359 0.500000 30 30 30
0.200000 0.100000 -0.400000 -0.000000 1.000000 0.000000 0.693359 0.500000 30 30 30
0.000000 0.100000 -0.400000 -0.000000 1.000000 0.000000 0.693359 0.500000 30 30 30
0.000000 0.100000 -0.200000 -0.000000 1.000000 0.000000 0.693359 0.500000 30 30 30
0.000000 0.100000 0.100000 -0.000000 1.000000 0.000000 0.693359 0.500000 30 30 30
0.000000 0.100000 0.000000 -0.000000 1.000000 0.000000 0.693359 0.500000 30 30 30
0.100000 0.100000 -0.100000 0.000000 1.000000 0.000000 0.693359 0.500000 30 30 30
-0.100000 0.100000 0.200000 -0.000000 1.000000 0.000000 0.693359 0.500000 30 30 30
0.200000 0.100000 -0.200000 -0.000000 1.000000 0.000000 0.693359 0.500000 30 30 30
-0.200000 0.100000 0.200000 0.000000 1.000000 0.000000 0.693359 0.500000 30 30 30
0.200000 0.100000 -0.100000 -0.000000 1.000000 0.000000 0.693359 0.500000 30 30 30
-0.100000 0.100000 0.300000 0.000000 1.000000 0.000000 0.693359 0.500000 30 30 30
0.300000 0.100000 -0.100000 -0.000000 1.000000 0.000000 0.693359 0.500000 30 30 30
0.300000 0.100000 -0.200000 -0.000000 1.000000 0.000000 0.693359 0.500000 30 30 30
0.000000 0.100000 0.400000 0.000000 1.000000 0.000000 0.693359 0.500000 30 30 30
-0.300000 -0.100000 -0.200000 0.000000 0.000000 -1.000000 0.693359 0.500000 30 30 30
-0.300000 0.100000 -0.200000 0.000000 0.000000 -1.000000 0.693359 0.500000 30 30 30
0.000000 -0.100000 -0.200000 0.000000 0.000000 -1.000000 0.693359 0.500000 30 30 30
0.000000 0.100000 -0.200000 0.000000 0.000000 -1.000000 0.693359 0.500000 30 30 30
0.000000 -0.100000 -0.400000 0.000000 0.000000 -1.000000 0.693359 0.500000 30 30 30
-0.100000 -0.100000 -0.100000 1.000000 0.000000 0.000000 0.693359 0.500000 30 30 30
0.000000 -0.100000 0.100000 0.000000 0.000000 -1.000000 0.693359 0.500000 30 30 30
-0.100000 -0.100000 -0.100000 0.000000 -0.000000 1.000000 0.693359 0.500000 30 30 30
0.200000 0.100000 0.400000 0.000000 -0.000000 1.000000 0.693359 0.500000 30 30 30
-0.100000 -0.100000 0.200000 -0.000000 0.000000 1.000000 0.693359 0.500000 30 30 30
0.300000 -0.100000 -0.200000 1.000000 0.000000 0.000000 0.693359 0.500000 30 30 30
-0.200000 0.100000 0.000000 0.000000 -0.000000 1.000000 0.693359 0.500000 30 30 30
0.000000 -0.100000 -0.400000 -0.000000 -1.000000 -0.000000 0.693359 0.500000 30 30 30
0.200000 -0.100000 -0.400000 -0.000000 -1.000000 -0.000000 0.693359 0.500000 30 30 30
0.200000 -0.100000 -0.200000 -0.000000 -1.000000 -0.000000 0.693359 0.500000 30 30 30
0.000000 -0.100000 -0.200000 -0.000000 -1.000000 -0.000000 0.693359 0.500000 30 30 30
0.300000 -0.100000 -0.200000 -0.000000 -1.000000 -0.000000 0.693359 0.500000 30 30 30
0.300000 -0.100000 -0.100000 -0.000000 -1.000000 -0.000000 0.693359 0.500000 30 30 30
0.000000 -0.100000 0.400000 0.000000 -1.000000 -0.000000 0.693359 0.500000 30 30 30
0.200000 -0.100000 -0.100000 0.000000 -1.000000 -0.000000 0.693359 0.500000 30 30 30
0.100000 -0.100000 -0.100000 -0.000000 -1.000000 -0.000000 0.693359 0.500000 30 30 30
0.000000 -0.100000 -0.000000 -0.000000 -1.000000 -0.000000 0.693359 0.500000 30 30 30
0.000000 -0.100000 0.100000 -0.000000 -1.000000 -0.000000 0.693359 0.500000 30 30 30
-0.100000 -0.100000 0.200000 -0.000000 -1.000000 -0.000000 0.693359 0.500000 30 30 30
-0.100000 -0.100000 0.300000 0.000000 -1.000000 -0.000000 0.693359 0.500000 30 30 30
-0.200000 -0.100000 0.200000 0.000000 -1.000000 -0.000000 0.693359 0.500000 30 30 30
0.000000 -0.100000 0.400000 -1.000000 0.000000 0.000000 0.693359 0.500000 30 30 30
3 0 1 2
3 3 4 5
3 6 7 8
3 9 10 11
3 12 13 14
3 15 16 17
3 18 19 20
3 21 22 23
3 24 25 26
3 27 28 29
3 30 31 32
3 33 34 35
3 36 37 38
3 39 40 41
3 42 43 44
3 45 46 47
3 48 49 50
3 51 52 53
3 54 55 56
3 57 58 59
3 60 61 62
3 63 64 65
3 66 67 68
3 69 70 71
3 72 73 74
3 75 76 77
3 78 79 0
3 0 2 78
3 80 3 5
3 81 6 8
3 82 9 11
3 83 12 14
3 84 15 17
3 85 18 20
3 86 21 23
3 87 24 26
3 88 27 29
3 89 30 32
3 35 90 33
3 34 91 35
3 33 92 34
3 93 36 38
3 40 39 94
3 39 41 95
3 41 40 96
3 97 98 99
3 99 95 41
3 100 101 96
3 99 41 102
3 103 96 40
3 104 99 102
3 103 40 105
3 106 102 42
3 103 100 96
3 103 107 43
3 43 100 103
3 104 97 99
3 108 109 104
3 42 44 106
3 106 108 104
3 42 100 43
3 106 104 102
3 44 43 110
3 111 112 45
3 45 47 111
3 47 46 113
3 46 45 114
3 115 48 50
3 116 51 53
3 117 54 56
3 118 57 59
3 119 60 62
3 120 63 65
3 121 66 68
3 122 69 71
3 123 124 125
3 35 91 126
3 126 123 125
3 125 127 128
3 73 72 129
3 125 128 130
3 131 126 125
3 90 132 133
3 131 35 126
3 134 90 133
3 130 131 125
3 134 33 90
3 74 131 130
3 73 133 74
3 73 135 134
3 134 136 33
3 74 130 72
3 73 134 133
3 137 75 77
