ply
format ascii 1.0
comment Created by Blender 2.73 (sub 0) - www.blender.org, source file: '5.blend'
element vertex 118
property float x
property float y
property float z
property float nx
property float ny
property float nz
property float s
property float t
property uchar red
property uchar green
property uchar blue
element face 72
property list uchar uint vertex_indices
end_header
-0.300000 0.100000 -0.300000 0.000000 0.000000 -1.000000 0.693359 0.500000 30 30 30
-0.200000 0.100000 -0.300000 0.000000 0.000000 -1.000000 0.693359 0.500000 30 30 30
-0.200000 -0.100000 -0.300000 0.000000 0.000000 -1.000000 0.693359 0.500000 30 30 30
0.100000 -0.100000 -0.300000 -1.000000 0.000000 -0.000000 0.693359 0.500000 30 30 30
0.100000 -0.100000 -0.000000 -1.000000 0.000000 -0.000000 0.693359 0.500000 30 30 30
0.100000 0.100000 0.000000 -1.000000 0.000000 -0.000000 0.693359 0.500000 30 30 30
-0.300000 -0.100000 -0.000000 -1.000000 -0.000000 -0.000000 0.693359 0.500000 30 30 30
-0.300000 -0.100000 0.400000 -1.000000 -0.000000 -0.000000 0.693359 0.500000 30 30 30
-0.300000 0.100000 0.400000 -1.000000 -0.000000 -0.000000 0.693359 0.500000 30 30 30
-0.200000 -0.100000 -0.200000 0.000000 -0.000000 1.000000 0.693359 0.500000 30 30 30
-0.200000 0.100000 -0.200000 0.000000 -0.000000 1.000000 0.693359 0.500000 30 30 30
-0.300000 0.100000 -0.200000 0.000000 -0.000000 1.000000 0.693359 0.500000 30 30 30
0.200000 0.100000 0.000000 1.000000 -0.000000 0.000000 0.693359 0.500000 30 30 30
0.200000 0.100000 0.100000 1.000000 -0.000000 0.000000 0.693359 0.500000 30 30 30
0.200000 -0.100000 0.100000 1.000000 -0.000000 0.000000 0.693359 0.500000 30 30 30
-0.200000 0.100000 -0.400000 -1.000000 0.000000 0.000000 0.693359 0.500000 30 30 30
-0.200000 -0.100000 -0.400000 -1.000000 0.000000 0.000000 0.693359 0.500000 30 30 30
-0.200000 -0.100000 -0.300000 -1.000000 0.000000 0.000000 0.693359 0.500000 30 30 30
0.300000 0.100000 0.000000 0.000000 -0.000000 1.000000 0.693359 0.500000 30 30 30
0.200000 0.100000 0.000000 0.000000 -0.000000 1.000000 0.693359 0.500000 30 30 30
0.200000 -0.100000 -0.000000 0.000000 -0.000000 1.000000 0.693359 0.500000 30 30 30
0.300000 0.100000 0.000000 1.000000 0.000000 -0.000000 0.693359 0.500000 30 30 30
0.300000 -0.100000 -0.000000 1.000000 0.000000 -0.000000 0.693359 0.500000 30 30 30
0.300000 -0.100000 -0.300000 1.000000 0.000000 -0.000000 0.693359 0.500000 30 30 30
-0.100000 -0.100000 0.300000 1.000000 0.000000 0.000000 0.693359 0.500000 30 30 30
-0.100000 -0.100000 0.100000 1.000000 0.000000 0.000000 0.693359 0.500000 30 30 30
-0.100000 0.100000 0.100000 1.000000 0.000000 0.000000 0.693359 0.500000 30 30 30
0.200000 -0.100000 -0.300000 0.000000 -1.000000 -0.000000 0.693359 0.500000 30 30 30
0.200000 -0.100000 -0.000000 0.000000 -1.000000 -0.000000 0.693359 0.500000 30 30 30
0.100000 -0.100000 -0.000000 0.000000 -1.000000 -0.000000 0.693359 0.500000 30 30 30
-0.200000 -0.100000 -0.300000 0.000000 -1.000000 -0.000000 0.693359 0.500000 30 30 30
-0.200000 -0.100000 -0.200000 0.000000 -1.000000 -0.000000 0.693359 0.500000 30 30 30
-0.300000 -0.100000 -0.200000 0.000000 -1.000000 -0.000000 0.693359 0.500000 30 30 30
0.300000 0.100000 0.400000 1.000000 0.000000 -0.000000 0.693359 0.500000 30 30 30
0.300000 -0.100000 0.400000 1.000000 0.000000 -0.000000 0.693359 0.500000 30 30 30
0.300000 -0.100000 0.300000 1.000000 0.000000 -0.000000 0.693359 0.500000 30 30 30
0.200000 0.100000 0.000000 -0.000000 1.000000 0.000000 0.693359 0.500000 30 30 30
0.300000 0.100000 -0.300000 -0.000000 1.000000 0.000000 0.693359 0.500000 30 30 30
0.200000 0.100000 -0.300000 -0.000000 1.000000 0.000000 0.693359 0.500000 30 30 30
-0.300000 0.100000 -0.200000 0.000000 1.000000 0.000000 0.693359 0.500000 30 30 30
-0.200000 0.100000 -0.200000 0.000000 1.000000 0.000000 0.693359 0.500000 30 30 30
-0.200000 0.100000 -0.300000 0.000000 1.000000 0.000000 0.693359 0.500000 30 30 30
-0.100000 0.100000 0.300000 0.000000 0.000000 -1.000000 0.693359 0.500000 30 30 30
0.300000 0.100000 0.300000 0.000000 0.000000 -1.000000 0.693359 0.500000 30 30 30
0.300000 -0.100000 0.300000 0.000000 0.000000 -1.000000 0.693359 0.500000 30 30 30
0.200000 -0.100000 -0.400000 0.000000 0.000000 -1.000000 0.693359 0.500000 30 30 30
-0.200000 -0.100000 -0.400000 0.000000 0.000000 -1.000000 0.693359 0.500000 30 30 30
-0.200000 0.100000 -0.400000 0.000000 0.000000 -1.000000 0.693359 0.500000 30 30 30
0.200000 0.100000 -0.300000 1.000000 0.000000 -0.000000 0.693359 0.500000 30 30 30
0.200000 -0.100000 -0.300000 1.000000 0.000000 -0.000000 0.693359 0.500000 30 30 30
0.200000 -0.100000 -0.400000 1.000000 0.000000 -0.000000 0.693359 0.500000 30 30 30
0.100000 0.100000 0.000000 0.000000 0.000000 -1.000000 0.693359 0.500000 30 30 30
0.100000 -0.100000 -0.000000 0.000000 0.000000 -1.000000 0.693359 0.500000 30 30 30
-0.300000 -0.100000 -0.000000 0.000000 0.000000 -1.000000 0.693359 0.500000 30 30 30
-0.300000 -0.100000 -0.200000 -1.000000 -0.000000 0.000000 0.693359 0.500000 30 30 30
-0.300000 0.100000 -0.200000 -1.000000 -0.000000 0.000000 0.693359 0.500000 30 30 30
-0.300000 0.100000 -0.300000 -1.000000 -0.000000 0.000000 0.693359 0.500000 30 30 30
0.300000 0.100000 -0.300000 0.000000 0.000000 -1.000000 0.693359 0.500000 30 30 30
0.300000 -0.100000 -0.300000 0.000000 0.000000 -1.000000 0.693359 0.500000 30 30 30
0.200000 -0.100000 -0.300000 0.000000 0.000000 -1.000000 0.693359 0.500000 30 30 30
-0.200000 0.100000 -0.300000 0.000000 -0.000000 1.000000 0.693359 0.500000 30 30 30
-0.200000 -0.100000 -0.300000 0.000000 -0.000000 1.000000 0.693359 0.500000 30 30 30
0.100000 -0.100000 -0.300000 0.000000 -0.000000 1.000000 0.693359 0.500000 30 30 30
0.200000 0.100000 0.100000 0.000000 -0.000000 1.000000 0.693359 0.500000 30 30 30
-0.100000 0.100000 0.100000 0.000000 -0.000000 1.000000 0.693359 0.500000 30 30 30
-0.100000 -0.100000 0.100000 0.000000 -0.000000 1.000000 0.693359 0.500000 30 30 30
0.300000 -0.100000 0.400000 -0.000000 0.000000 1.000000 0.693359 0.500000 30 30 30
0.300000 0.100000 0.400000 -0.000000 0.000000 1.000000 0.693359 0.500000 30 30 30
-0.300000 0.100000 0.400000 -0.000000 0.000000 1.000000 0.693359 0.500000 30 30 30
-0.200000 0.100000 -0.300000 1.000000 -0.000000 0.000000 0.693359 0.500000 30 30 30
-0.200000 0.100000 -0.200000 1.000000 -0.000000 0.000000 0.693359 0.500000 30 30 30
-0.200000 -0.100000 -0.200000 1.000000 -0.000000 0.000000 0.693359 0.500000 30 30 30
-0.300000 -0.100000 -0.300000 0.000000 0.000000 -1.000000 0.693359 0.500000 30 30 30
0.100000 0.100000 -0.300000 -1.000000 0.000000 -0.000000 0.693359 0.500000 30 30 30
-0.300000 0.100000 0.000000 -1.000000 0.000000 -0.000000 0.693359 0.500000 30 30 30
-0.300000 -0.100000 -0.200000 0.000000 -0.000000 1.000000 0.693359 0.500000 30 30 30
0.200000 -0.100000 -0.000000 1.000000 0.000000 0.000000 0.693359 0.500000 30 30 30
-0.200000 0.100000 -0.300000 -1.000000 0.000000 0.000000 0.693359 0.500000 30 30 30
0.300000 -0.100000 -0.000000 0.000000 -0.000000 1.000000 0.693359 0.500000 30 30 30
0.300000 0.100000 -0.300000 1.000000 -0.000000 0.000000 0.693359 0.500000 30 30 30
-0.100000 0.100000 0.300000 1.000000 0.000000 -0.000000 0.693359 0.500000 30 30 30
0.100000 -0.100000 -0.300000 -0.000000 -1.000000 -0.000000 0.693359 0.500000 30 30 30
-0.200000 -0.100000 -0.400000 -0.000000 -1.000000 -0.000000 0.693359 0.500000 30 30 30
0.200000 -0.100000 -0.400000 -0.000000 -1.000000 -0.000000 0.693359 0.500000 30 30 30
-0.100000 -0.100000 0.300000 0.000000 -1.000000 -0.000000 0.693359 0.500000 30 30 30
0.300000 -0.100000 0.400000 0.000000 -1.000000 -0.000000 0.693359 0.500000 30 30 30
-0.300000 -0.100000 0.400000 0.000000 -1.000000 -0.000000 0.693359 0.500000 30 30 30
0.300000 -0.100000 0.300000 -0.000000 -1.000000 -0.000000 0.693359 0.500000 30 30 30
-0.300000 -0.100000 -0.000000 -0.000000 -1.000000 -0.000000 0.693359 0.500000 30 30 30
-0.100000 -0.100000 0.100000 0.000000 -1.000000 -0.000000 0.693359 0.500000 30 30 30
0.300000 -0.100000 -0.300000 -0.000000 -1.000000 -0.000000 0.693359 0.500000 30 30 30
0.200000 -0.100000 0.100000 0.000000 -1.000000 -0.000000 0.693359 0.500000 30 30 30
0.300000 -0.100000 -0.000000 0.000000 -1.000000 -0.000000 0.693359 0.500000 30 30 30
-0.300000 -0.100000 -0.300000 -0.000000 -1.000000 -0.000000 0.693359 0.500000 30 30 30
0.300000 0.100000 0.300000 1.000000 -0.000000 0.000000 0.693359 0.500000 30 30 30
-0.200000 0.100000 -0.400000 0.000000 1.000000 0.000000 0.693359 0.500000 30 30 30
0.100000 0.100000 -0.300000 0.000000 1.000000 0.000000 0.693359 0.500000 30 30 30
-0.100000 0.100000 0.300000 0.000000 1.000000 0.000000 0.693359 0.500000 30 30 30
0.300000 0.100000 0.400000 0.000000 1.000000 0.000000 0.693359 0.500000 30 30 30
0.300000 0.100000 0.300000 0.000000 1.000000 0.000000 0.693359 0.500000 30 30 30
0.200000 0.100000 -0.400000 -0.000000 1.000000 0.000000 0.693359 0.500000 30 30 30
-0.300000 0.100000 0.400000 0.000000 1.000000 0.000000 0.693359 0.500000 30 30 30
0.100000 0.100000 0.000000 -0.000000 1.000000 0.000000 0.693359 0.500000 30 30 30
-0.300000 0.100000 0.000000 0.000000 1.000000 0.000000 0.693359 0.500000 30 30 30
-0.100000 0.100000 0.100000 0.000000 1.000000 0.000000 0.693359 0.500000 30 30 30
0.200000 0.100000 0.100000 0.000000 1.000000 0.000000 0.693359 0.500000 30 30 30
0.300000 0.100000 0.000000 0.000000 1.000000 0.000000 0.693359 0.500000 30 30 30
-0.300000 0.100000 -0.300000 0.000000 1.000000 0.000000 0.693359 0.500000 30 30 30
-0.100000 -0.100000 0.300000 -0.000000 -0.000000 -1.000000 0.693359 0.500000 30 30 30
0.200000 0.100000 -0.400000 0.000000 0.000000 -1.000000 0.693359 0.500000 30 30 30
0.200000 0.100000 -0.400000 1.000000 -0.000000 0.000000 0.693359 0.500000 30 30 30
-0.300000 0.100000 0.000000 0.000000 0.000000 -1.000000 0.693359 0.500000 30 30 30
-0.300000 -0.100000 -0.300000 -1.000000 -0.000000 -0.000000 0.693359 0.500000 30 30 30
0.200000 0.100000 -0.300000 0.000000 0.000000 -1.000000 0.693359 0.500000 30 30 30
0.100000 0.100000 -0.300000 0.000000 -0.000000 1.000000 0.693359 0.500000 30 30 30
0.200000 -0.100000 0.100000 0.000000 -0.000000 1.000000 0.693359 0.500000 30 30 30
-0.300000 -0.100000 0.400000 0.000000 0.000000 1.000000 0.693359 0.500000 30 30 30
-0.200000 -0.100000 -0.300000 1.000000 0.000000 0.000000 0.693359 0.500000 30 30 30
3 0 1 2
3 3 4 5
3 6 7 8
3 9 10 11
3 12 13 14
3 15 16 17
3 18 19 20
3 21 22 23
3 24 25 26
3 27 28 29
3 30 31 32
3 33 34 35
3 36 37 38
3 39 40 41
3 42 43 44
3 45 46 47
3 48 49 50
3 51 52 53
3 54 55 56
3 57 58 59
3 60 61 62
3 63 64 65
3 66 67 68
3 69 70 71
3 72 0 2
3 73 3 5
3 74 6 8
3 75 9 11
3 76 12 14
3 77 15 17
3 78 18 20
3 79 21 23
3 80 24 26
3 81 82 83
3 84 85 86
3 81 30 82
3 84 87 85
3 27 81 83
3 84 86 88
3 29 81 27
3 89 84 88
3 28 27 90
3 89 88 29
3 29 91 89
3 90 92 28
3 28 91 29
3 93 30 32
3 94 33 35
3 95 41 96
3 97 98 99
3 100 95 96
3 101 98 97
3 38 96 102
3 103 101 97
3 38 100 96
3 103 97 104
3 36 38 102
3 102 103 104
3 102 105 36
3 36 106 37
3 102 104 105
3 107 39 41
3 108 42 44
3 109 45 47
3 110 48 50
3 111 51 53
3 112 54 56
3 113 57 59
3 114 60 62
3 115 63 65
3 116 66 68
3 117 69 71
