ply
format ascii 1.0
comment Created by Blender 2.73 (sub 0) - www.blender.org, source file: '7.blend'
element vertex 84
property float x
property float y
property float z
property float nx
property float ny
property float nz
property float s
property float t
property uchar red
property uchar green
property uchar blue
element face 52
property list uchar uint vertex_indices
end_header
0.000000 0.100000 0.100000 -1.000000 0.000000 0.000000 0.693359 0.500000 30 30 30
0.000000 0.100000 -0.100000 -1.000000 0.000000 0.000000 0.693359 0.500000 30 30 30
0.000000 -0.100000 -0.100000 -1.000000 0.000000 0.000000 0.693359 0.500000 30 30 30
-0.100000 0.100000 -0.100000 -1.000000 0.000000 0.000000 0.693359 0.500000 30 30 30
-0.100000 0.100000 -0.400000 -1.000000 0.000000 0.000000 0.693359 0.500000 30 30 30
-0.100000 -0.100000 -0.400000 -1.000000 0.000000 0.000000 0.693359 0.500000 30 30 30
0.100000 0.100000 0.100000 -1.000000 0.000000 0.000000 0.693359 0.500000 30 30 30
0.100000 -0.100000 0.100000 -1.000000 0.000000 0.000000 0.693359 0.500000 30 30 30
0.100000 -0.100000 0.300000 -1.000000 0.000000 0.000000 0.693359 0.500000 30 30 30
0.300000 0.100000 0.400000 1.000000 0.000000 -0.000000 0.693359 0.500000 30 30 30
0.300000 -0.100000 0.400000 1.000000 0.000000 -0.000000 0.693359 0.500000 30 30 30
0.300000 -0.100000 0.100000 1.000000 0.000000 -0.000000 0.693359 0.500000 30 30 30
0.200000 0.100000 -0.100000 1.000000 -0.000000 0.000000 0.693359 0.500000 30 30 30
0.200000 0.100000 0.100000 1.000000 -0.000000 0.000000 0.693359 0.500000 30 30 30
0.200000 -0.100000 0.100000 1.000000 -0.000000 0.000000 0.693359 0.500000 30 30 30
0.100000 0.100000 -0.400000 1.000000 -0.000000 0.000000 0.693359 0.500000 30 30 30
0.100000 0.100000 -0.100000 1.000000 -0.000000 0.000000 0.693359 0.500000 30 30 30
0.100000 -0.100000 -0.100000 1.000000 -0.000000 0.000000 0.693359 0.500000 30 30 30
0.200000 -0.100000 0.100000 0.000000 -1.000000 -0.000000 0.693359 0.500000 30 30 30
0.300000 -0.100000 0.400000 0.000000 -1.000000 -0.000000 0.693359 0.500000 30 30 30
0.100000 -0.100000 0.300000 0.000000 -1.000000 -0.000000 0.693359 0.500000 30 30 30
0.000000 0.100000 -0.100000 0.000000 1.000000 0.000000 0.693359 0.500000 30 30 30
0.100000 0.100000 -0.100000 0.000000 1.000000 0.000000 0.693359 0.500000 30 30 30
0.100000 0.100000 -0.400000 0.000000 1.000000 0.000000 0.693359 0.500000 30 30 30
0.100000 0.100000 -0.100000 0.000000 0.000000 -1.000000 0.693359 0.500000 30 30 30
0.200000 0.100000 -0.100000 0.000000 0.000000 -1.000000 0.693359 0.500000 30 30 30
0.200000 -0.100000 -0.100000 0.000000 0.000000 -1.000000 0.693359 0.500000 30 30 30
-0.200000 0.100000 0.300000 0.000000 0.000000 -1.000000 0.693359 0.500000 30 30 30
0.100000 0.100000 0.300000 0.000000 0.000000 -1.000000 0.693359 0.500000 30 30 30
0.100000 -0.100000 0.300000 0.000000 0.000000 -1.000000 0.693359 0.500000 30 30 30
0.300000 0.100000 0.100000 0.000000 0.000000 -1.000000 0.693359 0.500000 30 30 30
0.300000 -0.100000 0.100000 0.000000 0.000000 -1.000000 0.693359 0.500000 30 30 30
0.200000 -0.100000 0.100000 0.000000 0.000000 -1.000000 0.693359 0.500000 30 30 30
0.100000 0.100000 -0.400000 0.000000 0.000000 -1.000000 0.693359 0.500000 30 30 30
0.100000 -0.100000 -0.400000 0.000000 0.000000 -1.000000 0.693359 0.500000 30 30 30
-0.100000 -0.100000 -0.400000 0.000000 0.000000 -1.000000 0.693359 0.500000 30 30 30
0.000000 0.100000 -0.100000 0.000000 -0.000000 1.000000 0.693359 0.500000 30 30 30
-0.100000 0.100000 -0.100000 0.000000 -0.000000 1.000000 0.693359 0.500000 30 30 30
-0.100000 -0.100000 -0.100000 0.000000 -0.000000 1.000000 0.693359 0.500000 30 30 30
-0.200000 0.100000 0.400000 -1.000000 0.000000 0.000000 0.693359 0.500000 30 30 30
-0.200000 0.100000 0.300000 -1.000000 0.000000 0.000000 0.693359 0.500000 30 30 30
-0.200000 -0.100000 0.300000 -1.000000 0.000000 0.000000 0.693359 0.500000 30 30 30
-0.200000 0.100000 0.400000 0.000000 -0.000000 1.000000 0.693359 0.500000 30 30 30
-0.200000 -0.100000 0.400000 0.000000 -0.000000 1.000000 0.693359 0.500000 30 30 30
0.300000 -0.100000 0.400000 0.000000 -0.000000 1.000000 0.693359 0.500000 30 30 30
0.000000 0.100000 0.100000 0.000000 -0.000000 1.000000 0.693359 0.500000 30 30 30
0.000000 -0.100000 0.100000 0.000000 -0.000000 1.000000 0.693359 0.500000 30 30 30
0.100000 -0.100000 0.100000 0.000000 -0.000000 1.000000 0.693359 0.500000 30 30 30
0.000000 -0.100000 0.100000 -1.000000 -0.000000 0.000000 0.693359 0.500000 30 30 30
-0.100000 -0.100000 -0.100000 -1.000000 -0.000000 0.000000 0.693359 0.500000 30 30 30
0.100000 0.100000 0.300000 -1.000000 0.000000 0.000000 0.693359 0.500000 30 30 30
0.300000 0.100000 0.100000 1.000000 -0.000000 0.000000 0.693359 0.500000 30 30 30
0.200000 -0.100000 -0.100000 1.000000 0.000000 0.000000 0.693359 0.500000 30 30 30
0.100000 -0.100000 -0.400000 1.000000 0.000000 0.000000 0.693359 0.500000 30 30 30
0.000000 -0.100000 -0.100000 -0.000000 -1.000000 -0.000000 0.693359 0.500000 30 30 30
-0.100000 -0.100000 -0.400000 -0.000000 -1.000000 -0.000000 0.693359 0.500000 30 30 30
0.100000 -0.100000 -0.400000 -0.000000 -1.000000 -0.000000 0.693359 0.500000 30 30 30
0.100000 -0.100000 0.100000 0.000000 -1.000000 -0.000000 0.693359 0.500000 30 30 30
0.000000 -0.100000 0.100000 0.000000 -1.000000 -0.000000 0.693359 0.500000 30 30 30
-0.100000 -0.100000 -0.100000 0.000000 -1.000000 -0.000000 0.693359 0.500000 30 30 30
0.100000 -0.100000 -0.100000 -0.000000 -1.000000 -0.000000 0.693359 0.500000 30 30 30
0.200000 -0.100000 -0.100000 -0.000000 -1.000000 -0.000000 0.693359 0.500000 30 30 30
-0.200000 -0.100000 0.400000 -0.000000 -1.000000 -0.000000 0.693359 0.500000 30 30 30
-0.200000 -0.100000 0.300000 -0.000000 -1.000000 -0.000000 0.693359 0.500000 30 30 30
0.300000 -0.100000 0.100000 -0.000000 -1.000000 -0.000000 0.693359 0.500000 30 30 30
0.000000 0.100000 0.100000 0.000000 1.000000 0.000000 0.693359 0.500000 30 30 30
0.100000 0.100000 0.100000 0.000000 1.000000 0.000000 0.693359 0.500000 30 30 30
0.100000 0.100000 0.300000 -0.000000 1.000000 0.000000 0.693359 0.500000 30 30 30
-0.200000 0.100000 0.300000 -0.000000 1.000000 0.000000 0.693359 0.500000 30 30 30
-0.200000 0.100000 0.400000 -0.000000 1.000000 0.000000 0.693359 0.500000 30 30 30
-0.100000 0.100000 -0.400000 0.000000 1.000000 0.000000 0.693359 0.500000 30 30 30
-0.100000 0.100000 -0.100000 0.000000 1.000000 0.000000 0.693359 0.500000 30 30 30
0.300000 0.100000 0.400000 0.000000 1.000000 0.000000 0.693359 0.500000 30 30 30
0.200000 0.100000 0.100000 -0.000000 1.000000 0.000000 0.693359 0.500000 30 30 30
0.300000 0.100000 0.100000 -0.000000 1.000000 0.000000 0.693359 0.500000 30 30 30
0.200000 0.100000 -0.100000 -0.000000 1.000000 0.000000 0.693359 0.500000 30 30 30
0.100000 -0.100000 -0.100000 0.000000 0.000000 -1.000000 0.693359 0.500000 30 30 30
-0.200000 -0.100000 0.300000 -0.000000 -0.000000 -1.000000 0.693359 0.500000 30 30 30
0.200000 0.100000 0.100000 0.000000 0.000000 -1.000000 0.693359 0.500000 30 30 30
-0.100000 0.100000 -0.400000 0.000000 0.000000 -1.000000 0.693359 0.500000 30 30 30
0.000000 -0.100000 -0.100000 0.000000 -0.000000 1.000000 0.693359 0.500000 30 30 30
-0.200000 -0.100000 0.400000 -1.000000 0.000000 0.000000 0.693359 0.500000 30 30 30
0.300000 0.100000 0.400000 0.000000 -0.000000 1.000000 0.693359 0.500000 30 30 30
0.100000 0.100000 0.100000 0.000000 -0.000000 1.000000 0.693359 0.500000 30 30 30
3 0 1 2
3 3 4 5
3 6 7 8
3 9 10 11
3 12 13 14
3 15 16 17
3 18 19 20
3 21 22 23
3 24 25 26
3 27 28 29
3 30 31 32
3 33 34 35
3 36 37 38
3 39 40 41
3 42 43 44
3 45 46 47
3 48 0 2
3 49 3 5
3 50 6 8
3 51 9 11
3 52 12 14
3 53 15 17
3 54 55 56
3 57 58 54
3 54 59 55
3 60 61 18
3 54 56 60
3 62 63 20
3 57 54 60
3 19 62 20
3 18 57 60
3 18 64 19
3 20 57 18
3 21 65 66
3 67 68 69
3 70 71 21
3 67 69 72
3 22 21 66
3 73 67 72
3 72 74 73
3 73 75 22
3 21 23 70
3 73 66 67
3 66 73 22
3 76 24 26
3 77 27 29
3 78 30 32
3 79 33 35
3 80 36 38
3 81 39 41
3 82 42 44
3 83 45 47
