ply
format ascii 1.0
comment Created by Blender 2.73 (sub 0) - www.blender.org, source file: '3.blend'
element vertex 170
property float x
property float y
property float z
property float nx
property float ny
property float nz
property float s
property float t
property uchar red
property uchar green
property uchar blue
element face 110
property list uchar uint vertex_indices
end_header
-0.300000 0.100000 -0.300000 0.000000 0.000000 -1.000000 0.693359 0.500000 30 30 30
-0.200000 0.100000 -0.300000 0.000000 0.000000 -1.000000 0.693359 0.500000 30 30 30
-0.200000 -0.100000 -0.300000 0.000000 0.000000 -1.000000 0.693359 0.500000 30 30 30
-0.300000 -0.100000 0.300000 -1.000000 0.000000 0.000000 0.693359 0.500000 30 30 30
-0.300000 0.100000 0.300000 -1.000000 0.000000 0.000000 0.693359 0.500000 30 30 30
-0.300000 0.100000 0.200000 -1.000000 0.000000 0.000000 0.693359 0.500000 30 30 30
0.100000 -0.100000 -0.300000 -1.000000 -0.000000 0.000000 0.693359 0.500000 30 30 30
0.100000 -0.000000 -0.100000 -1.000000 -0.000000 0.000000 0.693359 0.500000 30 30 30
0.100000 0.100000 -0.300000 -1.000000 -0.000000 0.000000 0.693359 0.500000 30 30 30
-0.200000 -0.100000 0.300000 -0.000000 0.000000 1.000000 0.693359 0.500000 30 30 30
-0.200000 0.100000 0.300000 -0.000000 0.000000 1.000000 0.693359 0.500000 30 30 30
-0.300000 0.100000 0.300000 -0.000000 0.000000 1.000000 0.693359 0.500000 30 30 30
-0.300000 -0.100000 -0.200000 -1.000000 -0.000000 0.000000 0.693359 0.500000 30 30 30
-0.300000 0.100000 -0.200000 -1.000000 -0.000000 0.000000 0.693359 0.500000 30 30 30
-0.300000 0.100000 -0.300000 -1.000000 -0.000000 0.000000 0.693359 0.500000 30 30 30
0.000000 0.100000 0.000000 -1.000000 0.000000 0.000000 0.693359 0.500000 30 30 30
0.000000 -0.100000 -0.000000 -1.000000 0.000000 0.000000 0.693359 0.500000 30 30 30
0.000000 -0.100000 0.100000 -1.000000 0.000000 0.000000 0.693359 0.500000 30 30 30
0.000000 -0.100000 -0.000000 0.000000 -0.000000 1.000000 0.693359 0.500000 30 30 30
0.000000 0.100000 0.000000 0.000000 -0.000000 1.000000 0.693359 0.500000 30 30 30
-0.100000 0.100000 0.000000 0.000000 -0.000000 1.000000 0.693359 0.500000 30 30 30
0.300000 -0.100000 0.300000 -0.000000 0.000000 1.000000 0.693359 0.500000 30 30 30
0.300000 0.100000 0.300000 -0.000000 0.000000 1.000000 0.693359 0.500000 30 30 30
0.200000 0.100000 0.300000 -0.000000 0.000000 1.000000 0.693359 0.500000 30 30 30
0.200000 0.100000 -0.300000 0.000000 0.000000 -1.000000 0.693359 0.500000 30 30 30
0.300000 0.100000 -0.300000 0.000000 0.000000 -1.000000 0.693359 0.500000 30 30 30
0.300000 -0.100000 -0.300000 0.000000 0.000000 -1.000000 0.693359 0.500000 30 30 30
0.200000 0.100000 0.300000 1.000000 -0.000000 0.000000 0.693359 0.500000 30 30 30
0.200000 0.100000 0.400000 1.000000 -0.000000 0.000000 0.693359 0.500000 30 30 30
0.200000 -0.100000 0.400000 1.000000 -0.000000 0.000000 0.693359 0.500000 30 30 30
0.300000 0.100000 -0.300000 1.000000 -0.000000 0.000000 0.693359 0.500000 30 30 30
0.300000 0.100000 0.000000 1.000000 -0.000000 0.000000 0.693359 0.500000 30 30 30
0.300000 -0.100000 -0.000000 1.000000 -0.000000 0.000000 0.693359 0.500000 30 30 30
0.300000 0.100000 0.100000 1.000000 -0.000000 0.000000 0.693359 0.500000 30 30 30
0.300000 0.100000 0.300000 1.000000 -0.000000 0.000000 0.693359 0.500000 30 30 30
0.300000 -0.100000 0.300000 1.000000 -0.000000 0.000000 0.693359 0.500000 30 30 30
-0.200000 -0.100000 0.400000 -1.000000 0.000000 0.000000 0.693359 0.500000 30 30 30
-0.200000 0.100000 0.400000 -1.000000 0.000000 0.000000 0.693359 0.500000 30 30 30
-0.200000 0.100000 0.300000 -1.000000 0.000000 0.000000 0.693359 0.500000 30 30 30
-0.200000 -0.100000 -0.400000 -1.000000 0.000000 -0.000000 0.693359 0.500000 30 30 30
-0.200000 -0.100000 -0.300000 -1.000000 0.000000 -0.000000 0.693359 0.500000 30 30 30
-0.200000 0.100000 -0.300000 -1.000000 0.000000 -0.000000 0.693359 0.500000 30 30 30
0.100000 0.100000 -0.100000 0.000000 1.000000 0.000000 0.693359 0.500000 30 30 30
0.000000 0.100000 0.000000 0.000000 1.000000 0.000000 0.693359 0.500000 30 30 30
0.100000 0.100000 0.100000 0.000000 1.000000 0.000000 0.693359 0.500000 30 30 30
-0.200000 0.100000 -0.400000 0.000000 0.000000 -1.000000 0.693359 0.500000 30 30 30
0.200000 0.100000 -0.400000 0.000000 0.000000 -1.000000 0.693359 0.500000 30 30 30
0.200000 -0.100000 -0.400000 0.000000 0.000000 -1.000000 0.693359 0.500000 30 30 30
0.200000 0.100000 0.100000 0.000000 0.000000 -1.000000 0.693359 0.500000 30 30 30
0.300000 0.100000 0.100000 0.000000 0.000000 -1.000000 0.693359 0.500000 30 30 30
0.300000 -0.100000 0.100000 0.000000 0.000000 -1.000000 0.693359 0.500000 30 30 30
0.300000 -0.100000 -0.000000 0.000000 -0.000000 1.000000 0.693359 0.500000 30 30 30
0.300000 0.100000 0.000000 0.000000 -0.000000 1.000000 0.693359 0.500000 30 30 30
0.200000 0.100000 0.000000 0.000000 -0.000000 1.000000 0.693359 0.500000 30 30 30
-0.100000 -0.100000 -0.100000 0.000000 0.000000 -1.000000 0.693359 0.500000 30 30 30
-0.100000 0.100000 -0.100000 0.000000 0.000000 -1.000000 0.693359 0.500000 30 30 30
0.100000 -0.000000 -0.100000 0.000000 0.000000 -1.000000 0.693359 0.500000 30 30 30
0.200000 0.100000 -0.400000 1.000000 -0.000000 0.000000 0.693359 0.500000 30 30 30
0.200000 0.100000 -0.300000 1.000000 -0.000000 0.000000 0.693359 0.500000 30 30 30
0.200000 -0.100000 -0.300000 1.000000 -0.000000 0.000000 0.693359 0.500000 30 30 30
0.100000 0.100000 0.200000 0.000000 0.000000 -1.000000 0.693359 0.500000 30 30 30
0.100000 -0.100000 0.200000 0.000000 0.000000 -1.000000 0.693359 0.500000 30 30 30
-0.300000 -0.100000 0.200000 0.000000 0.000000 -1.000000 0.693359 0.500000 30 30 30
-0.100000 -0.100000 -0.000000 -1.000000 -0.000000 0.000000 0.693359 0.500000 30 30 30
-0.100000 0.100000 0.000000 -1.000000 -0.000000 0.000000 0.693359 0.500000 30 30 30
-0.100000 0.100000 -0.100000 -1.000000 -0.000000 0.000000 0.693359 0.500000 30 30 30
0.100000 -0.100000 -0.300000 0.000000 -0.000000 1.000000 0.693359 0.500000 30 30 30
0.100000 0.100000 -0.300000 0.000000 -0.000000 1.000000 0.693359 0.500000 30 30 30
-0.100000 0.100000 -0.300000 0.000000 -0.000000 1.000000 0.693359 0.500000 30 30 30
0.200000 -0.100000 0.300000 -0.000000 -1.000000 -0.000000 0.693359 0.500000 30 30 30
0.200000 -0.100000 0.400000 -0.000000 -1.000000 -0.000000 0.693359 0.500000 30 30 30
0.100000 -0.100000 0.200000 -0.000000 -1.000000 -0.000000 0.693359 0.500000 30 30 30
0.200000 -0.100000 0.400000 -0.000000 0.000000 1.000000 0.693359 0.500000 30 30 30
0.200000 0.100000 0.400000 -0.000000 0.000000 1.000000 0.693359 0.500000 30 30 30
-0.200000 0.100000 0.400000 -0.000000 0.000000 1.000000 0.693359 0.500000 30 30 30
0.200000 0.100000 0.000000 1.000000 -0.000000 0.000000 0.693359 0.500000 30 30 30
0.200000 0.100000 0.100000 1.000000 -0.000000 0.000000 0.693359 0.500000 30 30 30
0.200000 -0.100000 0.100000 1.000000 -0.000000 0.000000 0.693359 0.500000 30 30 30
0.100000 0.100000 0.100000 0.000000 -0.000000 1.000000 0.693359 0.500000 30 30 30
0.000000 0.100000 0.100000 0.000000 -0.000000 1.000000 0.693359 0.500000 30 30 30
0.000000 -0.100000 0.100000 0.000000 -0.000000 1.000000 0.693359 0.500000 30 30 30
-0.100000 -0.100000 -0.200000 0.000000 -0.000000 1.000000 0.693359 0.500000 30 30 30
-0.100000 0.100000 -0.200000 0.000000 -0.000000 1.000000 0.693359 0.500000 30 30 30
-0.300000 0.100000 -0.200000 0.000000 -0.000000 1.000000 0.693359 0.500000 30 30 30
0.100000 -0.100000 0.200000 -1.000000 0.000000 0.000000 0.693359 0.500000 30 30 30
0.100000 0.100000 0.200000 -1.000000 0.000000 0.000000 0.693359 0.500000 30 30 30
0.100000 0.100000 0.100000 -1.000000 0.000000 0.000000 0.693359 0.500000 30 30 30
-0.100000 0.100000 -0.300000 1.000000 -0.000000 0.000000 0.693359 0.500000 30 30 30
-0.100000 0.100000 -0.200000 1.000000 -0.000000 0.000000 0.693359 0.500000 30 30 30
-0.100000 -0.100000 -0.200000 1.000000 -0.000000 0.000000 0.693359 0.500000 30 30 30
-0.300000 -0.100000 -0.300000 0.000000 0.000000 -1.000000 0.693359 0.500000 30 30 30
-0.300000 -0.100000 0.200000 -1.000000 -0.000000 -0.000000 0.693359 0.500000 30 30 30
0.100000 -0.100000 -0.100000 -1.000000 0.000000 0.000000 0.693359 0.500000 30 30 30
0.100000 0.100000 -0.100000 -1.000000 -0.000000 0.000000 0.693359 0.500000 30 30 30
-0.300000 -0.100000 0.300000 0.000000 0.000000 1.000000 0.693359 0.500000 30 30 30
-0.300000 -0.100000 -0.300000 -1.000000 -0.000000 -0.000000 0.693359 0.500000 30 30 30
0.000000 0.100000 0.100000 -1.000000 0.000000 0.000000 0.693359 0.500000 30 30 30
-0.100000 -0.100000 -0.000000 0.000000 -0.000000 1.000000 0.693359 0.500000 30 30 30
0.200000 -0.100000 0.300000 0.000000 0.000000 1.000000 0.693359 0.500000 30 30 30
0.200000 -0.100000 -0.300000 0.000000 0.000000 -1.000000 0.693359 0.500000 30 30 30
0.200000 -0.100000 0.300000 1.000000 0.000000 0.000000 0.693359 0.500000 30 30 30
0.300000 -0.100000 -0.300000 1.000000 0.000000 0.000000 0.693359 0.500000 30 30 30
0.300000 -0.100000 0.100000 1.000000 0.000000 0.000000 0.693359 0.500000 30 30 30
-0.200000 -0.100000 0.300000 -1.000000 -0.000000 -0.000000 0.693359 0.500000 30 30 30
-0.200000 0.100000 -0.400000 -1.000000 0.000000 -0.000000 0.693359 0.500000 30 30 30
0.300000 0.100000 0.000000 -0.000000 1.000000 0.000000 0.693359 0.500000 30 30 30
0.300000 0.100000 -0.300000 -0.000000 1.000000 0.000000 0.693359 0.500000 30 30 30
0.200000 0.100000 -0.300000 -0.000000 1.000000 0.000000 0.693359 0.500000 30 30 30
0.300000 0.100000 0.300000 -0.000000 1.000000 0.000000 0.693359 0.500000 30 30 30
0.300000 0.100000 0.100000 -0.000000 1.000000 0.000000 0.693359 0.500000 30 30 30
0.200000 0.100000 0.100000 -0.000000 1.000000 0.000000 0.693359 0.500000 30 30 30
0.200000 0.100000 0.000000 0.000000 1.000000 0.000000 0.693359 0.500000 30 30 30
0.200000 0.100000 0.300000 0.000000 1.000000 0.000000 0.693359 0.500000 30 30 30
0.100000 0.100000 -0.300000 -0.000000 1.000000 0.000000 0.693359 0.500000 30 30 30
0.200000 0.100000 -0.400000 -0.000000 1.000000 0.000000 0.693359 0.500000 30 30 30
-0.200000 0.100000 -0.400000 -0.000000 1.000000 0.000000 0.693359 0.500000 30 30 30
-0.200000 0.100000 -0.300000 -0.000000 1.000000 0.000000 0.693359 0.500000 30 30 30
-0.300000 0.100000 -0.300000 -0.000000 1.000000 0.000000 0.693359 0.500000 30 30 30
-0.300000 0.100000 -0.200000 -0.000000 1.000000 0.000000 0.693359 0.500000 30 30 30
-0.100000 0.100000 -0.200000 0.000000 1.000000 0.000000 0.693359 0.500000 30 30 30
-0.100000 0.100000 -0.300000 -0.000000 1.000000 0.000000 0.693359 0.500000 30 30 30
0.100000 0.100000 0.200000 0.000000 1.000000 0.000000 0.693359 0.500000 30 30 30
-0.200000 0.100000 0.400000 0.000000 1.000000 0.000000 0.693359 0.500000 30 30 30
0.200000 0.100000 0.400000 0.000000 1.000000 0.000000 0.693359 0.500000 30 30 30
-0.300000 0.100000 0.200000 0.000000 1.000000 0.000000 0.693359 0.500000 30 30 30
-0.300000 0.100000 0.300000 0.000000 1.000000 0.000000 0.693359 0.500000 30 30 30
-0.200000 0.100000 0.300000 0.000000 1.000000 0.000000 0.693359 0.500000 30 30 30
-0.100000 0.100000 -0.100000 0.000000 1.000000 0.000000 0.693359 0.500000 30 30 30
-0.100000 0.100000 0.000000 0.000000 1.000000 0.000000 0.693359 0.500000 30 30 30
0.000000 0.100000 0.100000 0.000000 1.000000 0.000000 0.693359 0.500000 30 30 30
-0.200000 -0.100000 -0.400000 0.000000 0.000000 -1.000000 0.693359 0.500000 30 30 30
0.200000 -0.100000 0.100000 0.000000 0.000000 -1.000000 0.693359 0.500000 30 30 30
0.200000 -0.100000 -0.000000 0.000000 -0.000000 1.000000 0.693359 0.500000 30 30 30
0.100000 -0.100000 -0.100000 0.000000 0.000000 -1.000000 0.693359 0.500000 30 30 30
0.100000 0.100000 -0.100000 0.000000 0.000000 -1.000000 0.693359 0.500000 30 30 30
0.200000 -0.100000 -0.400000 1.000000 0.000000 0.000000 0.693359 0.500000 30 30 30
-0.300000 0.100000 0.200000 0.000000 0.000000 -1.000000 0.693359 0.500000 30 30 30
-0.100000 -0.100000 -0.100000 -1.000000 -0.000000 -0.000000 0.693359 0.500000 30 30 30
-0.100000 -0.100000 -0.300000 0.000000 -0.000000 1.000000 0.693359 0.500000 30 30 30
-0.300000 -0.100000 -0.200000 -0.000000 -1.000000 -0.000000 0.693359 0.500000 30 30 30
-0.300000 -0.100000 -0.300000 -0.000000 -1.000000 -0.000000 0.693359 0.500000 30 30 30
-0.200000 -0.100000 -0.300000 -0.000000 -1.000000 -0.000000 0.693359 0.500000 30 30 30
-0.100000 -0.100000 -0.300000 -0.000000 -1.000000 -0.000000 0.693359 0.500000 30 30 30
-0.200000 -0.100000 -0.400000 -0.000000 -1.000000 -0.000000 0.693359 0.500000 30 30 30
0.200000 -0.100000 -0.400000 -0.000000 -1.000000 -0.000000 0.693359 0.500000 30 30 30
0.200000 -0.100000 -0.300000 -0.000000 -1.000000 -0.000000 0.693359 0.500000 30 30 30
0.300000 -0.100000 -0.300000 -0.000000 -1.000000 -0.000000 0.693359 0.500000 30 30 30
0.300000 -0.100000 -0.000000 -0.000000 -1.000000 -0.000000 0.693359 0.500000 30 30 30
-0.100000 -0.100000 -0.200000 0.000000 -1.000000 -0.000000 0.693359 0.500000 30 30 30
0.200000 -0.100000 -0.000000 0.000000 -1.000000 -0.000000 0.693359 0.500000 30 30 30
0.100000 -0.100000 -0.100000 0.000000 -1.000000 -0.000000 0.693359 0.500000 30 30 30
0.000000 -0.100000 -0.000000 -0.000000 -1.000000 -0.000000 0.693359 0.500000 30 30 30
-0.100000 -0.100000 -0.100000 -0.000000 -1.000000 -0.000000 0.693359 0.500000 30 30 30
0.100000 -0.100000 -0.300000 0.000000 -1.000000 -0.000000 0.693359 0.500000 30 30 30
-0.100000 -0.100000 -0.000000 0.000000 -1.000000 -0.000000 0.693359 0.500000 30 30 30
0.100000 -0.100000 0.100000 0.000000 -1.000000 -0.000000 0.693359 0.500000 30 30 30
0.200000 -0.100000 0.100000 0.000000 -1.000000 -0.000000 0.693359 0.500000 30 30 30
0.300000 -0.100000 0.100000 -0.000000 -1.000000 -0.000000 0.693359 0.500000 30 30 30
0.300000 -0.100000 0.300000 -0.000000 -1.000000 -0.000000 0.693359 0.500000 30 30 30
-0.200000 -0.100000 0.400000 0.000000 -1.000000 -0.000000 0.693359 0.500000 30 30 30
-0.200000 -0.100000 0.300000 -0.000000 -1.000000 -0.000000 0.693359 0.500000 30 30 30
-0.300000 -0.100000 0.200000 -0.000000 -1.000000 -0.000000 0.693359 0.500000 30 30 30
0.000000 -0.100000 0.100000 0.000000 -1.000000 -0.000000 0.693359 0.500000 30 30 30
-0.300000 -0.100000 0.300000 0.000000 -1.000000 -0.000000 0.693359 0.500000 30 30 30
-0.200000 -0.100000 0.400000 0.000000 0.000000 1.000000 0.693359 0.500000 30 30 30
0.200000 -0.100000 -0.000000 1.000000 0.000000 0.000000 0.693359 0.500000 30 30 30
0.100000 -0.100000 0.100000 0.000000 -0.000000 1.000000 0.693359 0.500000 30 30 30
-0.300000 -0.100000 -0.200000 0.000000 -0.000000 1.000000 0.693359 0.500000 30 30 30
0.100000 -0.100000 0.100000 -1.000000 -0.000000 -0.000000 0.693359 0.500000 30 30 30
-0.100000 -0.100000 -0.300000 1.000000 0.000000 0.000000 0.693359 0.500000 30 30 30
3 0 1 2
3 3 4 5
3 6 7 8
3 9 10 11
3 12 13 14
3 15 16 17
3 18 19 20
3 21 22 23
3 24 25 26
3 27 28 29
3 30 31 32
3 33 34 35
3 36 37 38
3 39 40 41
3 42 43 44
3 45 46 47
3 48 49 50
3 51 52 53
3 54 55 56
3 57 58 59
3 60 61 62
3 63 64 65
3 66 67 68
3 69 70 71
3 72 73 74
3 75 76 77
3 78 79 80
3 81 82 83
3 84 85 86
3 87 88 89
3 90 0 2
3 91 3 5
3 7 6 92
3 7 93 8
3 94 9 11
3 95 12 14
3 96 15 17
3 97 18 20
3 98 21 23
3 99 24 26
3 100 27 29
3 101 30 32
3 102 33 35
3 103 36 38
3 104 39 41
3 105 106 107
3 108 109 110
3 111 105 107
3 112 108 110
3 42 111 107
3 113 114 115
3 116 117 118
3 42 44 111
3 116 118 119
3 111 44 110
3 120 116 119
3 121 122 123
3 115 116 120
3 124 125 126
3 115 120 113
3 121 126 122
3 107 114 113
3 121 124 126
3 42 107 113
3 43 127 128
3 44 121 110
3 112 121 123
3 43 129 44
3 42 127 43
3 110 121 112
3 130 45 47
3 131 48 50
3 132 51 53
3 56 133 54
3 55 134 56
3 135 57 59
3 136 60 62
3 137 63 65
3 138 66 68
3 139 140 141
3 142 143 144
3 145 146 147
3 148 139 141
3 145 147 149
3 142 148 141
3 150 145 149
3 142 141 143
3 151 152 150
3 153 142 144
3 151 154 152
3 145 153 144
3 155 149 156
3 156 157 158
3 71 70 159
3 156 158 69
3 150 153 145
3 155 151 150
3 160 161 71
3 155 162 151
3 160 163 161
3 149 155 150
3 71 156 69
3 71 159 160
3 71 155 156
3 164 72 74
3 165 75 77
3 166 78 80
3 167 81 83
3 168 84 86
3 169 87 89
