ply
format ascii 1.0
comment Created by Blender 2.73 (sub 0) - www.blender.org, source file: '8.blend'
element vertex 192
property float x
property float y
property float z
property float nx
property float ny
property float nz
property float s
property float t
property uchar red
property uchar green
property uchar blue
element face 140
property list uchar uint vertex_indices
end_header
-0.300000 0.100000 -0.300000 0.000000 0.000000 -1.000000 0.693359 0.500000 30 30 30
-0.200000 0.100000 -0.300000 0.000000 0.000000 -1.000000 0.693359 0.500000 30 30 30
-0.200000 -0.100000 -0.300000 0.000000 0.000000 -1.000000 0.693359 0.500000 30 30 30
0.100000 0.100000 0.100000 -1.000000 0.000000 0.000000 0.693359 0.500000 30 30 30
0.100000 -0.100000 0.100000 -1.000000 0.000000 0.000000 0.693359 0.500000 30 30 30
0.100000 -0.100000 0.300000 -1.000000 0.000000 0.000000 0.693359 0.500000 30 30 30
-0.300000 0.100000 0.300000 -1.000000 0.000000 0.000000 0.693359 0.500000 30 30 30
-0.300000 0.100000 0.100000 -1.000000 0.000000 0.000000 0.693359 0.500000 30 30 30
-0.300000 -0.100000 0.100000 -1.000000 0.000000 0.000000 0.693359 0.500000 30 30 30
-0.300000 0.100000 0.300000 0.000000 -0.000000 1.000000 0.693359 0.500000 30 30 30
-0.300000 -0.100000 0.300000 0.000000 -0.000000 1.000000 0.693359 0.500000 30 30 30
-0.200000 -0.100000 0.300000 0.000000 -0.000000 1.000000 0.693359 0.500000 30 30 30
-0.200000 0.100000 -0.400000 0.000000 0.000000 -1.000000 0.693359 0.500000 30 30 30
0.000000 0.100000 -0.400000 0.000000 0.000000 -1.000000 0.693359 0.500000 30 30 30
0.000000 -0.100000 -0.400000 0.000000 0.000000 -1.000000 0.693359 0.500000 30 30 30
0.200000 0.100000 -0.300000 0.000000 0.000000 -1.000000 0.693359 0.500000 30 30 30
0.300000 0.100000 -0.300000 0.000000 0.000000 -1.000000 0.693359 0.500000 30 30 30
0.300000 -0.100000 -0.300000 0.000000 0.000000 -1.000000 0.693359 0.500000 30 30 30
0.200000 0.100000 -0.400000 0.000000 0.000000 -1.000000 0.693359 0.500000 30 30 30
0.200000 -0.100000 -0.400000 0.000000 0.000000 -1.000000 0.693359 0.500000 30 30 30
0.100000 0.100000 0.000000 -1.000000 0.000000 0.000000 0.693359 0.500000 30 30 30
0.100000 0.100000 -0.300000 -1.000000 0.000000 0.000000 0.693359 0.500000 30 30 30
0.100000 -0.100000 -0.300000 -1.000000 0.000000 0.000000 0.693359 0.500000 30 30 30
-0.300000 -0.100000 -0.000000 -1.000000 -0.000000 0.000000 0.693359 0.500000 30 30 30
-0.300000 0.100000 0.000000 -1.000000 -0.000000 0.000000 0.693359 0.500000 30 30 30
-0.300000 -0.100000 -0.300000 -1.000000 -0.000000 0.000000 0.693359 0.500000 30 30 30
-0.200000 0.100000 0.300000 0.000000 -0.000000 1.000000 0.693359 0.500000 30 30 30
-0.300000 0.100000 -0.300000 -1.000000 0.000000 0.000000 0.693359 0.500000 30 30 30
-0.100000 0.100000 0.100000 1.000000 -0.000000 0.000000 0.693359 0.500000 30 30 30
-0.100000 0.100000 0.300000 1.000000 -0.000000 0.000000 0.693359 0.500000 30 30 30
-0.100000 -0.100000 0.300000 1.000000 -0.000000 0.000000 0.693359 0.500000 30 30 30
-0.300000 -0.100000 -0.300000 0.000000 0.000000 -1.000000 0.693359 0.500000 30 30 30
0.300000 0.100000 0.100000 0.000000 0.000000 -1.000000 0.693359 0.500000 30 30 30
0.300000 -0.100000 0.100000 0.000000 0.000000 -1.000000 0.693359 0.500000 30 30 30
0.200000 -0.100000 0.100000 0.000000 0.000000 -1.000000 0.693359 0.500000 30 30 30
-0.100000 -0.100000 -0.000000 1.000000 0.000000 0.000000 0.693359 0.500000 30 30 30
-0.100000 -0.100000 -0.300000 1.000000 0.000000 0.000000 0.693359 0.500000 30 30 30
-0.100000 0.100000 -0.300000 1.000000 0.000000 0.000000 0.693359 0.500000 30 30 30
0.200000 0.100000 0.300000 0.000000 -0.000000 1.000000 0.693359 0.500000 30 30 30
0.200000 -0.100000 0.300000 0.000000 -0.000000 1.000000 0.693359 0.500000 30 30 30
0.300000 -0.100000 0.300000 0.000000 -0.000000 1.000000 0.693359 0.500000 30 30 30
0.300000 0.100000 0.300000 1.000000 0.000000 -0.000000 0.693359 0.500000 30 30 30
0.300000 -0.100000 0.300000 1.000000 0.000000 -0.000000 0.693359 0.500000 30 30 30
0.300000 0.100000 0.100000 1.000000 0.000000 -0.000000 0.693359 0.500000 30 30 30
0.300000 -0.100000 0.100000 1.000000 0.000000 0.000000 0.693359 0.500000 30 30 30
0.200000 0.100000 0.100000 0.000000 0.000000 -1.000000 0.693359 0.500000 30 30 30
0.100000 0.100000 0.300000 -1.000000 0.000000 0.000000 0.693359 0.500000 30 30 30
0.300000 0.100000 -0.300000 1.000000 -0.000000 0.000000 0.693359 0.500000 30 30 30
0.300000 0.100000 0.000000 1.000000 -0.000000 0.000000 0.693359 0.500000 30 30 30
0.300000 -0.100000 -0.000000 1.000000 -0.000000 0.000000 0.693359 0.500000 30 30 30
-0.200000 -0.100000 -0.000000 -0.000000 -1.000000 -0.000000 0.693359 0.500000 30 30 30
-0.200000 -0.100000 -0.300000 -0.000000 -1.000000 -0.000000 0.693359 0.500000 30 30 30
-0.100000 -0.100000 -0.300000 -0.000000 -1.000000 -0.000000 0.693359 0.500000 30 30 30
-0.200000 -0.100000 0.300000 0.000000 -1.000000 -0.000000 0.693359 0.500000 30 30 30
-0.300000 -0.100000 0.300000 0.000000 -1.000000 -0.000000 0.693359 0.500000 30 30 30
-0.300000 -0.100000 0.100000 0.000000 -1.000000 -0.000000 0.693359 0.500000 30 30 30
0.000000 -0.100000 -0.400000 0.000000 -1.000000 -0.000000 0.693359 0.500000 30 30 30
0.000000 -0.100000 -0.300000 0.000000 -1.000000 -0.000000 0.693359 0.500000 30 30 30
-0.100000 -0.100000 -0.000000 -0.000000 -1.000000 -0.000000 0.693359 0.500000 30 30 30
0.000000 -0.100000 -0.000000 -0.000000 -1.000000 -0.000000 0.693359 0.500000 30 30 30
-0.100000 -0.100000 0.100000 -0.000000 -1.000000 -0.000000 0.693359 0.500000 30 30 30
-0.100000 -0.100000 0.300000 -0.000000 -1.000000 -0.000000 0.693359 0.500000 30 30 30
0.000000 -0.100000 0.300000 -0.000000 -1.000000 -0.000000 0.693359 0.500000 30 30 30
0.000000 -0.100000 0.400000 -0.000000 -1.000000 -0.000000 0.693359 0.500000 30 30 30
-0.200000 -0.100000 0.400000 0.000000 -1.000000 -0.000000 0.693359 0.500000 30 30 30
-0.300000 -0.100000 -0.300000 -0.000000 -1.000000 -0.000000 0.693359 0.500000 30 30 30
-0.200000 -0.100000 0.100000 -0.000000 -1.000000 -0.000000 0.693359 0.500000 30 30 30
-0.300000 -0.100000 -0.000000 0.000000 -1.000000 -0.000000 0.693359 0.500000 30 30 30
0.200000 -0.100000 0.100000 0.000000 -1.000000 -0.000000 0.693359 0.500000 30 30 30
0.100000 -0.100000 0.100000 0.000000 -1.000000 -0.000000 0.693359 0.500000 30 30 30
0.100000 -0.100000 -0.000000 0.000000 -1.000000 -0.000000 0.693359 0.500000 30 30 30
0.000000 -0.100000 0.100000 0.000000 -1.000000 -0.000000 0.693359 0.500000 30 30 30
0.300000 -0.100000 -0.300000 1.000000 0.000000 0.000000 0.693359 0.500000 30 30 30
0.200000 0.100000 0.100000 1.000000 0.000000 -0.000000 0.693359 0.500000 30 30 30
0.200000 -0.100000 0.100000 1.000000 0.000000 -0.000000 0.693359 0.500000 30 30 30
0.200000 -0.100000 -0.000000 1.000000 0.000000 -0.000000 0.693359 0.500000 30 30 30
0.300000 -0.100000 -0.300000 0.000000 -1.000000 -0.000000 0.693359 0.500000 30 30 30
0.300000 -0.100000 -0.000000 0.000000 -1.000000 -0.000000 0.693359 0.500000 30 30 30
0.200000 -0.100000 -0.000000 0.000000 -1.000000 -0.000000 0.693359 0.500000 30 30 30
0.200000 -0.100000 -0.300000 -0.000000 -1.000000 -0.000000 0.693359 0.500000 30 30 30
0.100000 -0.100000 -0.300000 0.000000 -1.000000 -0.000000 0.693359 0.500000 30 30 30
0.200000 -0.100000 -0.400000 0.000000 -1.000000 -0.000000 0.693359 0.500000 30 30 30
-0.200000 -0.100000 -0.400000 -0.000000 -1.000000 -0.000000 0.693359 0.500000 30 30 30
0.300000 -0.100000 0.100000 -0.000000 -1.000000 -0.000000 0.693359 0.500000 30 30 30
0.300000 -0.100000 0.300000 -0.000000 -1.000000 -0.000000 0.693359 0.500000 30 30 30
-0.200000 0.100000 0.100000 0.000000 1.000000 0.000000 0.693359 0.500000 30 30 30
-0.100000 0.100000 0.100000 0.000000 1.000000 0.000000 0.693359 0.500000 30 30 30
-0.100000 0.100000 0.000000 0.000000 1.000000 0.000000 0.693359 0.500000 30 30 30
0.200000 0.100000 0.300000 -0.000000 1.000000 0.000000 0.693359 0.500000 30 30 30
0.100000 0.100000 0.300000 -0.000000 1.000000 0.000000 0.693359 0.500000 30 30 30
0.200000 0.100000 0.400000 -0.000000 1.000000 0.000000 0.693359 0.500000 30 30 30
0.100000 -0.100000 0.300000 0.000000 -1.000000 -0.000000 0.693359 0.500000 30 30 30
0.200000 -0.100000 0.400000 0.000000 -1.000000 -0.000000 0.693359 0.500000 30 30 30
0.200000 -0.100000 0.300000 -0.000000 -1.000000 -0.000000 0.693359 0.500000 30 30 30
-0.100000 0.100000 0.300000 0.000000 0.000000 -1.000000 0.693359 0.500000 30 30 30
0.000000 0.100000 0.300000 0.000000 0.000000 -1.000000 0.693359 0.500000 30 30 30
0.000000 -0.100000 0.300000 0.000000 0.000000 -1.000000 0.693359 0.500000 30 30 30
-0.300000 0.100000 0.000000 0.000000 -0.000000 1.000000 0.693359 0.500000 30 30 30
-0.300000 -0.100000 -0.000000 0.000000 -0.000000 1.000000 0.693359 0.500000 30 30 30
-0.200000 -0.100000 -0.000000 0.000000 -0.000000 1.000000 0.693359 0.500000 30 30 30
0.200000 0.100000 0.000000 0.000000 -0.000000 1.000000 0.693359 0.500000 30 30 30
0.200000 -0.100000 -0.000000 0.000000 -0.000000 1.000000 0.693359 0.500000 30 30 30
0.300000 -0.100000 -0.000000 0.000000 -0.000000 1.000000 0.693359 0.500000 30 30 30
0.000000 0.100000 0.000000 0.000000 0.000000 -1.000000 0.693359 0.500000 30 30 30
0.000000 -0.100000 -0.000000 0.000000 0.000000 -1.000000 0.693359 0.500000 30 30 30
-0.100000 0.100000 0.000000 0.000000 0.000000 -1.000000 0.693359 0.500000 30 30 30
0.200000 0.100000 -0.400000 1.000000 -0.000000 0.000000 0.693359 0.500000 30 30 30
0.200000 0.100000 -0.300000 1.000000 -0.000000 0.000000 0.693359 0.500000 30 30 30
0.200000 -0.100000 -0.300000 1.000000 -0.000000 0.000000 0.693359 0.500000 30 30 30
-0.200000 0.100000 -0.300000 -1.000000 0.000000 0.000000 0.693359 0.500000 30 30 30
-0.200000 0.100000 -0.400000 -1.000000 0.000000 0.000000 0.693359 0.500000 30 30 30
-0.200000 -0.100000 -0.400000 -1.000000 0.000000 0.000000 0.693359 0.500000 30 30 30
0.300000 0.100000 0.300000 0.000000 -0.000000 1.000000 0.693359 0.500000 30 30 30
0.200000 -0.100000 -0.300000 0.000000 0.000000 -1.000000 0.693359 0.500000 30 30 30
-0.300000 -0.100000 0.300000 -1.000000 0.000000 0.000000 0.693359 0.500000 30 30 30
-0.200000 -0.100000 -0.400000 0.000000 0.000000 -1.000000 0.693359 0.500000 30 30 30
0.200000 0.100000 0.400000 1.000000 0.000000 -0.000000 0.693359 0.500000 30 30 30
0.200000 -0.100000 0.400000 1.000000 0.000000 -0.000000 0.693359 0.500000 30 30 30
0.200000 -0.100000 0.300000 1.000000 0.000000 -0.000000 0.693359 0.500000 30 30 30
-0.200000 0.100000 0.300000 -1.000000 0.000000 0.000000 0.693359 0.500000 30 30 30
-0.200000 -0.100000 0.300000 -1.000000 0.000000 0.000000 0.693359 0.500000 30 30 30
-0.200000 -0.100000 0.400000 -1.000000 0.000000 0.000000 0.693359 0.500000 30 30 30
0.000000 -0.100000 0.100000 0.000000 -0.000000 1.000000 0.693359 0.500000 30 30 30
0.100000 0.100000 0.100000 0.000000 -0.000000 1.000000 0.693359 0.500000 30 30 30
0.000000 0.100000 0.100000 0.000000 -0.000000 1.000000 0.693359 0.500000 30 30 30
0.000000 0.100000 0.400000 0.000000 -0.000000 1.000000 0.693359 0.500000 30 30 30
-0.200000 -0.100000 0.400000 0.000000 -0.000000 1.000000 0.693359 0.500000 30 30 30
0.000000 -0.100000 0.400000 0.000000 -0.000000 1.000000 0.693359 0.500000 30 30 30
-0.200000 0.100000 0.000000 -1.000000 0.000000 0.000000 0.693359 0.500000 30 30 30
-0.200000 -0.100000 -0.000000 -1.000000 0.000000 0.000000 0.693359 0.500000 30 30 30
-0.200000 -0.100000 0.100000 -1.000000 0.000000 0.000000 0.693359 0.500000 30 30 30
-0.300000 0.100000 0.100000 0.000000 0.000000 -1.000000 0.693359 0.500000 30 30 30
-0.200000 0.100000 0.100000 0.000000 0.000000 -1.000000 0.693359 0.500000 30 30 30
-0.200000 -0.100000 0.100000 0.000000 0.000000 -1.000000 0.693359 0.500000 30 30 30
-0.100000 0.100000 0.000000 1.000000 0.000000 -0.000000 0.693359 0.500000 30 30 30
-0.100000 -0.100000 0.100000 1.000000 0.000000 0.000000 0.693359 0.500000 30 30 30
0.100000 -0.100000 -0.000000 -1.000000 -0.000000 0.000000 0.693359 0.500000 30 30 30
0.000000 -0.100000 -0.300000 0.000000 -0.000000 1.000000 0.693359 0.500000 30 30 30
0.100000 0.100000 -0.300000 0.000000 -0.000000 1.000000 0.693359 0.500000 30 30 30
0.000000 0.100000 -0.300000 0.000000 -0.000000 1.000000 0.693359 0.500000 30 30 30
0.200000 0.100000 0.000000 1.000000 -0.000000 0.000000 0.693359 0.500000 30 30 30
-0.300000 0.100000 -0.300000 0.000000 1.000000 0.000000 0.693359 0.500000 30 30 30
-0.300000 0.100000 0.000000 0.000000 1.000000 0.000000 0.693359 0.500000 30 30 30
-0.200000 0.100000 0.000000 0.000000 1.000000 0.000000 0.693359 0.500000 30 30 30
-0.100000 0.100000 -0.300000 0.000000 1.000000 0.000000 0.693359 0.500000 30 30 30
-0.200000 0.100000 -0.400000 0.000000 1.000000 0.000000 0.693359 0.500000 30 30 30
-0.200000 0.100000 -0.300000 0.000000 1.000000 0.000000 0.693359 0.500000 30 30 30
-0.300000 0.100000 0.100000 -0.000000 1.000000 0.000000 0.693359 0.500000 30 30 30
-0.300000 0.100000 0.300000 -0.000000 1.000000 0.000000 0.693359 0.500000 30 30 30
0.000000 0.100000 -0.300000 0.000000 1.000000 0.000000 0.693359 0.500000 30 30 30
0.000000 0.100000 -0.400000 0.000000 1.000000 0.000000 0.693359 0.500000 30 30 30
-0.200000 0.100000 0.300000 0.000000 1.000000 0.000000 0.693359 0.500000 30 30 30
-0.100000 0.100000 0.300000 0.000000 1.000000 0.000000 0.693359 0.500000 30 30 30
-0.200000 0.100000 0.400000 0.000000 1.000000 0.000000 0.693359 0.500000 30 30 30
0.000000 0.100000 0.400000 0.000000 1.000000 0.000000 0.693359 0.500000 30 30 30
0.000000 0.100000 0.300000 -0.000000 1.000000 0.000000 0.693359 0.500000 30 30 30
0.000000 0.100000 0.100000 0.000000 1.000000 0.000000 0.693359 0.500000 30 30 30
0.000000 0.100000 0.000000 0.000000 1.000000 0.000000 0.693359 0.500000 30 30 30
0.100000 0.100000 -0.300000 -0.000000 1.000000 0.000000 0.693359 0.500000 30 30 30
0.200000 0.100000 -0.400000 -0.000000 1.000000 0.000000 0.693359 0.500000 30 30 30
0.300000 0.100000 0.000000 -0.000000 1.000000 0.000000 0.693359 0.500000 30 30 30
0.300000 0.100000 -0.300000 -0.000000 1.000000 0.000000 0.693359 0.500000 30 30 30
0.200000 0.100000 -0.300000 -0.000000 1.000000 0.000000 0.693359 0.500000 30 30 30
0.300000 0.100000 0.300000 -0.000000 1.000000 0.000000 0.693359 0.500000 30 30 30
0.300000 0.100000 0.100000 -0.000000 1.000000 0.000000 0.693359 0.500000 30 30 30
0.200000 0.100000 0.100000 -0.000000 1.000000 0.000000 0.693359 0.500000 30 30 30
0.200000 0.100000 0.000000 0.000000 1.000000 0.000000 0.693359 0.500000 30 30 30
0.100000 0.100000 0.000000 0.000000 1.000000 0.000000 0.693359 0.500000 30 30 30
0.100000 0.100000 0.100000 0.000000 1.000000 0.000000 0.693359 0.500000 30 30 30
-0.100000 -0.100000 0.300000 0.000000 0.000000 -1.000000 0.693359 0.500000 30 30 30
0.100000 0.100000 0.300000 0.000000 0.000000 -1.000000 0.693359 0.500000 30 30 30
0.100000 -0.100000 0.300000 0.000000 0.000000 -1.000000 0.693359 0.500000 30 30 30
-0.200000 0.100000 0.000000 0.000000 -0.000000 1.000000 0.693359 0.500000 30 30 30
0.300000 0.100000 0.000000 0.000000 -0.000000 1.000000 0.693359 0.500000 30 30 30
0.100000 0.100000 0.000000 0.000000 0.000000 -1.000000 0.693359 0.500000 30 30 30
-0.100000 -0.100000 -0.000000 0.000000 0.000000 -1.000000 0.693359 0.500000 30 30 30
0.100000 -0.100000 -0.000000 0.000000 0.000000 -1.000000 0.693359 0.500000 30 30 30
0.200000 -0.100000 -0.400000 1.000000 0.000000 0.000000 0.693359 0.500000 30 30 30
-0.200000 -0.100000 -0.300000 -1.000000 -0.000000 0.000000 0.693359 0.500000 30 30 30
0.200000 0.100000 0.300000 1.000000 -0.000000 0.000000 0.693359 0.500000 30 30 30
-0.200000 0.100000 0.400000 -1.000000 0.000000 0.000000 0.693359 0.500000 30 30 30
-0.100000 0.100000 0.100000 0.000000 -0.000000 1.000000 0.693359 0.500000 30 30 30
-0.100000 -0.100000 0.100000 0.000000 -0.000000 1.000000 0.693359 0.500000 30 30 30
0.100000 -0.100000 0.100000 0.000000 -0.000000 1.000000 0.693359 0.500000 30 30 30
0.200000 -0.100000 0.400000 -0.000000 0.000000 1.000000 0.693359 0.500000 30 30 30
0.200000 0.100000 0.400000 -0.000000 0.000000 1.000000 0.693359 0.500000 30 30 30
-0.200000 0.100000 0.400000 0.000000 0.000000 1.000000 0.693359 0.500000 30 30 30
-0.200000 0.100000 0.100000 -1.000000 0.000000 0.000000 0.693359 0.500000 30 30 30
-0.300000 -0.100000 0.100000 0.000000 0.000000 -1.000000 0.693359 0.500000 30 30 30
-0.100000 0.100000 -0.300000 0.000000 -0.000000 1.000000 0.693359 0.500000 30 30 30
-0.100000 -0.100000 -0.300000 0.000000 -0.000000 1.000000 0.693359 0.500000 30 30 30
0.100000 -0.100000 -0.300000 0.000000 -0.000000 1.000000 0.693359 0.500000 30 30 30
3 0 1 2
3 3 4 5
3 6 7 8
3 9 10 11
3 12 13 14
3 15 16 17
3 18 19 14
3 20 21 22
3 23 24 25
3 26 9 11
3 24 27 25
3 28 29 30
3 31 0 2
3 32 33 34
3 35 36 37
3 38 39 40
3 41 42 43
3 42 44 43
3 45 32 34
3 46 3 5
3 47 48 49
3 50 51 52
3 53 54 55
3 56 57 52
3 58 59 60
3 61 62 63
3 61 63 64
3 50 65 51
3 53 55 66
3 50 67 65
3 68 69 70
3 58 66 50
3 59 71 60
3 53 66 60
3 53 60 61
3 72 47 49
3 73 74 75
3 76 77 78
3 52 58 50
3 79 76 78
3 80 81 79
3 66 58 60
3 82 56 52
3 68 83 84
3 85 86 87
3 52 51 82
3 88 89 90
3 70 78 68
3 91 92 63
3 80 57 56
3 69 68 93
3 68 84 93
3 80 56 81
3 94 95 96
3 97 98 99
3 100 101 102
3 103 104 105
3 106 107 108
3 109 110 111
3 112 38 40
3 113 15 17
3 114 6 8
3 14 115 12
3 116 117 118
3 119 120 121
3 122 123 124
3 125 126 127
3 128 129 130
3 131 132 133
3 134 35 37
3 14 13 18
3 135 28 30
3 136 20 22
3 137 138 139
3 61 64 53
3 63 62 91
3 69 71 59
3 93 92 91
3 69 59 70
3 93 91 69
3 80 79 78
3 78 70 80
3 140 73 75
3 141 142 143
3 144 145 146
3 146 141 143
3 85 147 148
3 87 143 85
3 144 149 150
3 85 148 151
3 144 150 145
3 86 85 151
3 152 153 154
3 154 155 152
3 86 156 157
3 151 153 152
3 86 157 87
3 151 152 86
3 144 146 143
3 143 87 144
3 158 159 150
3 160 161 162
3 163 164 165
3 166 160 162
3 88 163 165
3 167 166 162
3 150 149 158
3 167 165 166
3 162 159 158
3 167 157 156
3 162 158 167
3 167 168 165
3 89 154 90
3 167 156 168
3 89 155 154
3 88 168 89
3 168 88 165
3 96 169 94
3 170 171 96
3 96 95 170
3 172 97 99
3 173 100 102
3 104 103 174
3 104 175 105
3 174 176 104
3 177 106 108
3 178 109 111
3 179 116 118
3 180 119 121
3 181 182 122
3 122 124 181
3 122 183 123
3 184 185 125
3 125 127 184
3 125 186 126
3 187 128 130
3 188 131 133
3 189 190 137
3 137 139 189
3 137 191 138
