ply
format ascii 1.0
comment Created by Blender 2.73 (sub 0) - www.blender.org, source file: '9.blend'
element vertex 120
property float x
property float y
property float z
property float nx
property float ny
property float nz
property float s
property float t
property uchar red
property uchar green
property uchar blue
element face 80
property list uchar uint vertex_indices
end_header
0.300000 0.100000 0.300000 0.000000 0.000000 1.000000 0.693359 0.500000 30 30 30
0.200000 0.100000 0.300000 0.000000 0.000000 1.000000 0.693359 0.500000 30 30 30
0.200000 -0.100000 0.300000 0.000000 0.000000 1.000000 0.693359 0.500000 30 30 30
0.100000 0.100000 -0.300000 -1.000000 0.000000 0.000000 0.693359 0.500000 30 30 30
0.100000 -0.100000 -0.300000 -1.000000 0.000000 0.000000 0.693359 0.500000 30 30 30
0.100000 -0.100000 -0.100000 -1.000000 0.000000 0.000000 0.693359 0.500000 30 30 30
-0.200000 -0.100000 -0.000000 -1.000000 -0.000000 0.000000 0.693359 0.500000 30 30 30
-0.200000 0.100000 0.000000 -1.000000 -0.000000 0.000000 0.693359 0.500000 30 30 30
-0.200000 0.100000 -0.100000 -1.000000 -0.000000 0.000000 0.693359 0.500000 30 30 30
0.100000 -0.100000 -0.000000 -1.000000 -0.000000 -0.000000 0.693359 0.500000 30 30 30
0.100000 -0.100000 0.300000 -1.000000 -0.000000 -0.000000 0.693359 0.500000 30 30 30
0.100000 0.100000 0.300000 -1.000000 -0.000000 -0.000000 0.693359 0.500000 30 30 30
-0.300000 0.100000 0.000000 0.000000 0.000000 -1.000000 0.693359 0.500000 30 30 30
-0.200000 0.100000 0.000000 0.000000 0.000000 -1.000000 0.693359 0.500000 30 30 30
-0.200000 -0.100000 -0.000000 0.000000 0.000000 -1.000000 0.693359 0.500000 30 30 30
-0.300000 0.100000 0.300000 -1.000000 0.000000 0.000000 0.693359 0.500000 30 30 30
-0.300000 0.100000 0.000000 -1.000000 0.000000 0.000000 0.693359 0.500000 30 30 30
-0.300000 -0.100000 -0.000000 -1.000000 0.000000 0.000000 0.693359 0.500000 30 30 30
-0.100000 -0.100000 0.300000 1.000000 0.000000 0.000000 0.693359 0.500000 30 30 30
-0.100000 -0.100000 -0.000000 1.000000 0.000000 0.000000 0.693359 0.500000 30 30 30
-0.100000 0.100000 0.000000 1.000000 0.000000 0.000000 0.693359 0.500000 30 30 30
0.200000 0.100000 -0.300000 0.000000 0.000000 -1.000000 0.693359 0.500000 30 30 30
0.300000 0.100000 -0.300000 0.000000 0.000000 -1.000000 0.693359 0.500000 30 30 30
0.300000 -0.100000 -0.300000 0.000000 0.000000 -1.000000 0.693359 0.500000 30 30 30
-0.200000 0.100000 0.300000 0.000000 0.000000 1.000000 0.693359 0.500000 30 30 30
-0.300000 0.100000 0.300000 0.000000 0.000000 1.000000 0.693359 0.500000 30 30 30
-0.300000 -0.100000 0.300000 0.000000 0.000000 1.000000 0.693359 0.500000 30 30 30
0.300000 0.100000 0.300000 1.000000 0.000000 -0.000000 0.693359 0.500000 30 30 30
0.300000 -0.100000 0.300000 1.000000 0.000000 -0.000000 0.693359 0.500000 30 30 30
0.300000 -0.100000 -0.300000 1.000000 0.000000 -0.000000 0.693359 0.500000 30 30 30
0.200000 -0.100000 0.300000 0.000000 -1.000000 -0.000000 0.693359 0.500000 30 30 30
0.200000 -0.100000 0.400000 0.000000 -1.000000 -0.000000 0.693359 0.500000 30 30 30
0.100000 -0.100000 0.300000 0.000000 -1.000000 -0.000000 0.693359 0.500000 30 30 30
-0.200000 -0.100000 -0.000000 0.000000 -1.000000 -0.000000 0.693359 0.500000 30 30 30
-0.100000 -0.100000 0.300000 0.000000 -1.000000 -0.000000 0.693359 0.500000 30 30 30
-0.200000 -0.100000 0.300000 0.000000 -1.000000 -0.000000 0.693359 0.500000 30 30 30
-0.200000 0.100000 -0.400000 -1.000000 0.000000 0.000000 0.693359 0.500000 30 30 30
-0.200000 -0.100000 -0.400000 -1.000000 0.000000 0.000000 0.693359 0.500000 30 30 30
-0.200000 -0.100000 -0.300000 -1.000000 0.000000 0.000000 0.693359 0.500000 30 30 30
0.300000 0.100000 0.300000 0.000000 1.000000 0.000000 0.693359 0.500000 30 30 30
0.100000 0.100000 0.000000 0.000000 1.000000 0.000000 0.693359 0.500000 30 30 30
0.200000 0.100000 0.300000 0.000000 1.000000 0.000000 0.693359 0.500000 30 30 30
-0.200000 0.100000 0.000000 0.000000 1.000000 0.000000 0.693359 0.500000 30 30 30
-0.200000 0.100000 0.300000 0.000000 1.000000 0.000000 0.693359 0.500000 30 30 30
-0.100000 0.100000 0.000000 0.000000 1.000000 0.000000 0.693359 0.500000 30 30 30
-0.100000 0.100000 0.300000 0.000000 0.000000 -1.000000 0.693359 0.500000 30 30 30
0.100000 0.100000 0.300000 0.000000 0.000000 -1.000000 0.693359 0.500000 30 30 30
0.100000 -0.100000 0.300000 0.000000 0.000000 -1.000000 0.693359 0.500000 30 30 30
0.200000 -0.100000 -0.400000 0.000000 0.000000 -1.000000 0.693359 0.500000 30 30 30
-0.200000 -0.100000 -0.400000 0.000000 0.000000 -1.000000 0.693359 0.500000 30 30 30
-0.200000 0.100000 -0.400000 0.000000 0.000000 -1.000000 0.693359 0.500000 30 30 30
0.100000 0.100000 -0.100000 0.000000 0.000000 -1.000000 0.693359 0.500000 30 30 30
0.100000 -0.100000 -0.100000 0.000000 0.000000 -1.000000 0.693359 0.500000 30 30 30
-0.200000 -0.100000 -0.100000 0.000000 0.000000 -1.000000 0.693359 0.500000 30 30 30
0.200000 0.100000 -0.400000 1.000000 -0.000000 0.000000 0.693359 0.500000 30 30 30
0.200000 0.100000 -0.300000 1.000000 -0.000000 0.000000 0.693359 0.500000 30 30 30
0.200000 -0.100000 -0.300000 1.000000 -0.000000 0.000000 0.693359 0.500000 30 30 30
-0.200000 0.100000 0.400000 0.000000 -0.000000 1.000000 0.693359 0.500000 30 30 30
-0.200000 -0.100000 0.400000 0.000000 -0.000000 1.000000 0.693359 0.500000 30 30 30
0.200000 -0.100000 0.400000 0.000000 -0.000000 1.000000 0.693359 0.500000 30 30 30
-0.200000 0.100000 0.300000 -1.000000 0.000000 0.000000 0.693359 0.500000 30 30 30
-0.200000 -0.100000 0.300000 -1.000000 0.000000 0.000000 0.693359 0.500000 30 30 30
-0.200000 -0.100000 0.400000 -1.000000 0.000000 0.000000 0.693359 0.500000 30 30 30
0.200000 0.100000 0.400000 1.000000 0.000000 -0.000000 0.693359 0.500000 30 30 30
0.200000 -0.100000 0.400000 1.000000 0.000000 -0.000000 0.693359 0.500000 30 30 30
0.200000 -0.100000 0.300000 1.000000 0.000000 -0.000000 0.693359 0.500000 30 30 30
-0.200000 0.100000 -0.300000 0.000000 -0.000000 1.000000 0.693359 0.500000 30 30 30
-0.200000 -0.100000 -0.300000 0.000000 -0.000000 1.000000 0.693359 0.500000 30 30 30
0.100000 -0.100000 -0.300000 0.000000 -0.000000 1.000000 0.693359 0.500000 30 30 30
0.100000 -0.100000 -0.000000 0.000000 -0.000000 1.000000 0.693359 0.500000 30 30 30
0.100000 0.100000 0.000000 0.000000 -0.000000 1.000000 0.693359 0.500000 30 30 30
-0.100000 0.100000 0.000000 0.000000 -0.000000 1.000000 0.693359 0.500000 30 30 30
0.300000 -0.100000 0.300000 -0.000000 0.000000 1.000000 0.693359 0.500000 30 30 30
0.100000 0.100000 -0.100000 -1.000000 0.000000 0.000000 0.693359 0.500000 30 30 30
-0.200000 -0.100000 -0.100000 -1.000000 -0.000000 -0.000000 0.693359 0.500000 30 30 30
0.100000 0.100000 0.000000 -1.000000 0.000000 -0.000000 0.693359 0.500000 30 30 30
-0.300000 -0.100000 -0.000000 0.000000 0.000000 -1.000000 0.693359 0.500000 30 30 30
-0.300000 -0.100000 0.300000 -1.000000 0.000000 0.000000 0.693359 0.500000 30 30 30
-0.100000 0.100000 0.300000 1.000000 0.000000 -0.000000 0.693359 0.500000 30 30 30
0.200000 -0.100000 -0.300000 0.000000 0.000000 -1.000000 0.693359 0.500000 30 30 30
-0.200000 -0.100000 0.300000 -0.000000 0.000000 1.000000 0.693359 0.500000 30 30 30
0.300000 0.100000 -0.300000 1.000000 -0.000000 0.000000 0.693359 0.500000 30 30 30
0.100000 -0.100000 -0.300000 0.000000 -1.000000 -0.000000 0.693359 0.500000 30 30 30
-0.200000 -0.100000 -0.300000 0.000000 -1.000000 -0.000000 0.693359 0.500000 30 30 30
-0.200000 -0.100000 -0.400000 0.000000 -1.000000 -0.000000 0.693359 0.500000 30 30 30
-0.100000 -0.100000 -0.000000 -0.000000 -1.000000 -0.000000 0.693359 0.500000 30 30 30
-0.200000 -0.100000 -0.100000 -0.000000 -1.000000 -0.000000 0.693359 0.500000 30 30 30
0.100000 -0.100000 -0.100000 -0.000000 -1.000000 -0.000000 0.693359 0.500000 30 30 30
0.200000 -0.100000 -0.400000 -0.000000 -1.000000 -0.000000 0.693359 0.500000 30 30 30
0.200000 -0.100000 -0.300000 0.000000 -1.000000 -0.000000 0.693359 0.500000 30 30 30
0.100000 -0.100000 -0.000000 0.000000 -1.000000 -0.000000 0.693359 0.500000 30 30 30
0.300000 -0.100000 -0.300000 0.000000 -1.000000 -0.000000 0.693359 0.500000 30 30 30
0.300000 -0.100000 0.300000 0.000000 -1.000000 -0.000000 0.693359 0.500000 30 30 30
-0.200000 -0.100000 0.400000 -0.000000 -1.000000 -0.000000 0.693359 0.500000 30 30 30
-0.300000 -0.100000 0.300000 -0.000000 -1.000000 -0.000000 0.693359 0.500000 30 30 30
-0.300000 -0.100000 -0.000000 -0.000000 -1.000000 -0.000000 0.693359 0.500000 30 30 30
-0.200000 0.100000 -0.300000 -1.000000 0.000000 0.000000 0.693359 0.500000 30 30 30
-0.200000 0.100000 -0.400000 0.000000 1.000000 0.000000 0.693359 0.500000 30 30 30
-0.200000 0.100000 -0.300000 0.000000 1.000000 0.000000 0.693359 0.500000 30 30 30
0.100000 0.100000 -0.300000 0.000000 1.000000 0.000000 0.693359 0.500000 30 30 30
0.200000 0.100000 -0.400000 -0.000000 1.000000 0.000000 0.693359 0.500000 30 30 30
0.100000 0.100000 -0.100000 -0.000000 1.000000 0.000000 0.693359 0.500000 30 30 30
0.300000 0.100000 -0.300000 -0.000000 1.000000 0.000000 0.693359 0.500000 30 30 30
0.200000 0.100000 -0.300000 -0.000000 1.000000 0.000000 0.693359 0.500000 30 30 30
0.100000 0.100000 0.300000 0.000000 1.000000 0.000000 0.693359 0.500000 30 30 30
0.200000 0.100000 0.400000 0.000000 1.000000 0.000000 0.693359 0.500000 30 30 30
-0.200000 0.100000 -0.100000 0.000000 1.000000 0.000000 0.693359 0.500000 30 30 30
-0.100000 0.100000 0.300000 -0.000000 1.000000 0.000000 0.693359 0.500000 30 30 30
-0.200000 0.100000 0.400000 -0.000000 1.000000 0.000000 0.693359 0.500000 30 30 30
-0.300000 0.100000 0.000000 -0.000000 1.000000 0.000000 0.693359 0.500000 30 30 30
-0.300000 0.100000 0.300000 0.000000 1.000000 0.000000 0.693359 0.500000 30 30 30
-0.100000 -0.100000 0.300000 -0.000000 -0.000000 -1.000000 0.693359 0.500000 30 30 30
0.200000 0.100000 -0.400000 0.000000 0.000000 -1.000000 0.693359 0.500000 30 30 30
-0.200000 0.100000 -0.100000 0.000000 0.000000 -1.000000 0.693359 0.500000 30 30 30
0.200000 -0.100000 -0.400000 1.000000 0.000000 0.000000 0.693359 0.500000 30 30 30
0.200000 0.100000 0.400000 0.000000 -0.000000 1.000000 0.693359 0.500000 30 30 30
-0.200000 0.100000 0.400000 -1.000000 0.000000 0.000000 0.693359 0.500000 30 30 30
0.200000 0.100000 0.300000 1.000000 -0.000000 0.000000 0.693359 0.500000 30 30 30
0.100000 0.100000 -0.300000 0.000000 -0.000000 1.000000 0.693359 0.500000 30 30 30
-0.100000 -0.100000 -0.000000 0.000000 -0.000000 1.000000 0.693359 0.500000 30 30 30
3 0 1 2
3 3 4 5
3 6 7 8
3 9 10 11
3 12 13 14
3 15 16 17
3 18 19 20
3 21 22 23
3 24 25 26
3 27 28 29
3 30 31 32
3 33 34 35
3 36 37 38
3 39 40 41
3 42 43 44
3 45 46 47
3 48 49 50
3 51 52 53
3 54 55 56
3 57 58 59
3 60 61 62
3 63 64 65
3 66 67 68
3 69 70 71
3 72 0 2
3 73 3 5
3 74 6 8
3 75 9 11
3 76 12 14
3 77 15 17
3 78 18 20
3 79 21 23
3 80 24 26
3 81 27 29
3 82 83 84
3 85 86 87
3 82 84 88
3 85 33 86
3 89 82 88
3 90 91 92
3 87 82 89
3 90 85 87
3 93 34 32
3 91 90 87
3 87 89 91
3 32 31 93
3 90 92 30
3 93 35 34
3 32 90 30
3 94 95 33
3 33 35 94
3 33 85 34
3 96 36 38
3 97 98 99
3 99 100 97
3 101 102 103
3 104 105 41
3 101 40 102
3 103 100 99
3 44 106 42
3 103 99 101
3 107 43 108
3 40 39 102
3 104 107 108
3 101 106 44
3 104 108 105
3 101 44 40
3 40 104 41
3 43 42 109
3 43 107 44
3 109 110 43
3 111 45 47
3 112 48 50
3 113 51 53
3 114 54 56
3 115 57 59
3 116 60 62
3 117 63 65
3 118 66 68
3 119 69 71
