ply
format ascii 1.0
comment Created by Blender 2.73 (sub 0) - www.blender.org, source file: 'tile.blend'
element vertex 348
property float x
property float y
property float z
property float nx
property float ny
property float nz
property float s
property float t
property uchar red
property uchar green
property uchar blue
element face 172
property list uchar uint vertex_indices
end_header
1.000000 -0.062501 0.000000 1.000000 0.000000 0.000001 0.000000 0.000000 255 255 255
1.000000 -0.500000 -0.200000 1.000000 0.000000 0.000001 0.000000 0.000000 255 255 255
1.000000 0.500000 -0.200000 1.000000 0.000000 0.000001 0.000000 0.000000 255 255 255
-0.500000 1.000000 0.000000 -0.707107 0.707107 0.000001 0.000000 0.000000 255 255 255
-0.500000 1.000000 -0.200000 -0.707107 0.707107 0.000001 0.000000 0.000000 255 255 255
-1.000000 0.500000 -0.200000 -0.707107 0.707107 0.000001 0.000000 0.000000 255 255 255
1.000000 -0.500001 0.000000 0.707106 -0.707107 0.000001 0.000000 0.000000 255 255 255
0.499999 -1.000000 0.000000 0.707106 -0.707107 0.000001 0.000000 0.000000 255 255 255
0.500000 -1.000000 -0.200000 0.707106 -0.707107 0.000001 0.000000 0.000000 255 255 255
-1.000000 0.500000 0.000000 -1.000000 0.000000 -0.000001 0.000000 0.000000 255 255 255
-1.000000 0.500000 -0.200000 -1.000000 0.000000 -0.000001 0.000000 0.000000 255 255 255
-1.000000 0.187500 0.000000 -1.000000 0.000000 -0.000001 0.000000 0.000000 255 255 255
0.187500 0.750000 0.100000 0.000000 0.371391 0.928477 0.000000 0.000000 255 255 255
0.500000 1.000000 0.000000 0.000000 0.371391 0.928477 0.000000 0.000000 255 255 255
0.187500 1.000000 0.000000 0.000000 0.371391 0.928477 0.000000 0.000000 255 255 255
1.000000 -0.500001 0.000000 0.348155 -0.348155 0.870388 0.000000 0.000000 255 255 0
0.625000 -0.500000 0.150000 0.348155 -0.348155 0.870388 0.000000 0.000000 255 255 0
0.499999 -1.000000 0.000000 0.348155 -0.348155 0.870388 0.000000 0.000000 255 255 0
-0.062500 1.000000 0.000000 0.000000 1.000000 0.000002 0.000000 0.000000 255 255 255
0.500000 1.000000 -0.200000 0.000000 1.000000 0.000002 0.000000 0.000000 255 255 255
-0.500000 1.000000 -0.200000 0.000000 1.000000 0.000002 0.000000 0.000000 255 255 255
-0.500000 1.000000 0.000000 -0.348155 0.348155 0.870388 0.000000 0.000000 0 0 255
-1.000000 0.500000 0.000000 -0.348155 0.348155 0.870388 0.000000 0.000000 0 0 255
-0.625000 0.500000 0.150000 -0.348155 0.348155 0.870388 0.000000 0.000000 0 0 255
-0.625000 0.500000 0.150000 0.000000 -0.000000 1.000000 0.000000 0.900000 255 255 255
-0.625000 -0.500000 0.150000 0.000000 -0.000000 1.000000 0.000000 0.100000 255 255 255
0.500000 0.625000 0.150000 0.000000 -0.000000 1.000000 0.900000 1.000000 255 255 255
1.000000 0.500000 -0.200000 0.707107 0.707107 0.000000 0.000000 0.000000 255 255 255
0.500000 1.000000 -0.200000 0.707107 0.707107 0.000000 0.000000 0.000000 255 255 255
0.500000 1.000000 0.000000 0.707107 0.707107 0.000000 0.000000 0.000000 255 255 255
-1.000000 -0.500000 0.000000 -0.371391 0.000000 0.928477 0.000000 0.000000 255 255 255
-0.750000 -0.187500 0.100000 -0.371391 0.000000 0.928477 0.000000 0.000000 255 255 255
-1.000000 -0.187500 0.000000 -0.371391 0.000000 0.928477 0.000000 0.000000 255 255 255
0.499999 -1.000000 0.000000 -0.000000 -0.371391 0.928477 0.000000 0.000000 255 255 255
0.187500 -0.750000 0.100000 -0.000000 -0.371391 0.928477 0.000000 0.000000 255 255 255
0.187499 -1.000000 0.000000 -0.000000 -0.371391 0.928477 0.000000 0.000000 255 255 255
0.750000 -0.187500 0.100000 0.371391 -0.000000 0.928477 0.000000 0.000000 255 255 255
1.000000 -0.500001 0.000000 0.371391 -0.000000 0.928477 0.000000 0.000000 255 255 255
1.000000 -0.187501 0.000000 0.371391 -0.000000 0.928477 0.000000 0.000000 255 255 255
1.000000 0.499999 0.000000 0.348155 0.348155 0.870388 0.000000 0.000000 255 0 0
0.500000 1.000000 0.000000 0.348155 0.348155 0.870388 0.000000 0.000000 255 0 0
0.625000 0.500000 0.150000 0.348155 0.348155 0.870388 0.000000 0.000000 255 0 0
0.500000 -1.000000 -0.200000 0.000000 0.000000 -1.000000 0.000000 0.000000 255 255 255
-0.500000 -1.000000 -0.200000 0.000000 0.000000 -1.000000 0.000000 0.000000 255 255 255
-1.000000 0.500000 -0.200000 0.000000 0.000000 -1.000000 0.000000 0.000000 255 255 255
-0.500000 0.625000 0.150000 0.000000 -0.000000 1.000000 0.068726 0.999811 255 255 255
-0.500000 -1.000000 0.000000 -0.707107 -0.707107 -0.000001 0.000000 0.000000 255 255 255
-1.000000 -0.500000 0.000000 -0.707107 -0.707107 -0.000001 0.000000 0.000000 255 255 255
-1.000000 -0.500000 -0.200000 -0.707107 -0.707107 -0.000001 0.000000 0.000000 255 255 255
-1.000000 -0.500000 0.000000 -0.348155 -0.348155 0.870388 0.000000 0.000000 0 255 0
-0.500000 -1.000000 0.000000 -0.348155 -0.348155 0.870388 0.000000 0.000000 0 255 0
-0.625000 -0.500000 0.150000 -0.348155 -0.348155 0.870388 0.000000 0.000000 0 255 0
0.187500 1.000000 0.020000 -0.000000 0.371391 0.928477 0.000000 0.000000 30 30 30
0.062500 1.000000 0.020000 -0.000000 0.371391 0.928477 0.000000 0.000000 30 30 30
0.062500 0.750000 0.120000 -0.000000 0.371391 0.928477 0.000000 0.000000 30 30 30
0.062500 1.000000 0.000000 0.000000 1.000000 0.000000 0.000000 0.000000 30 30 30
0.062500 1.000000 0.020000 0.000000 1.000000 0.000000 0.000000 0.000000 30 30 30
0.187500 1.000000 0.020000 0.000000 1.000000 0.000000 0.000000 0.000000 30 30 30
0.062500 0.750000 0.100000 -1.000000 0.000000 0.000000 0.000000 0.000000 30 30 30
0.062500 0.750000 0.120000 -1.000000 0.000000 0.000000 0.000000 0.000000 30 30 30
0.062500 1.000000 0.020000 -1.000000 0.000000 0.000000 0.000000 0.000000 30 30 30
0.187500 0.750000 0.100000 0.000000 -1.000000 0.000000 0.000000 0.000000 30 30 30
0.187500 0.750000 0.120000 0.000000 -1.000000 0.000000 0.000000 0.000000 30 30 30
0.062500 0.750000 0.120000 0.000000 -1.000000 0.000000 0.000000 0.000000 30 30 30
0.187500 1.000000 0.000000 1.000000 -0.000000 0.000000 0.000000 0.000000 30 30 30
0.187500 1.000000 0.020000 1.000000 -0.000000 0.000000 0.000000 0.000000 30 30 30
0.187500 0.750000 0.100000 1.000000 -0.000000 0.000000 0.000000 0.000000 30 30 30
0.750000 0.187500 0.120000 0.371391 -0.000000 0.928477 0.000000 0.000000 30 30 30
0.750000 0.062500 0.120000 0.371391 -0.000000 0.928477 0.000000 0.000000 30 30 30
1.000000 0.187499 0.020000 0.371391 -0.000000 0.928477 0.000000 0.000000 30 30 30
0.750000 0.062500 0.100000 -1.000000 -0.000000 -0.000000 0.000000 0.000000 30 30 30
0.750000 0.062500 0.120000 -1.000000 -0.000000 -0.000000 0.000000 0.000000 30 30 30
0.750000 0.187500 0.120000 -1.000000 -0.000000 -0.000000 0.000000 0.000000 30 30 30
1.000000 0.062499 0.000000 -0.000000 -1.000000 -0.000000 0.000000 0.000000 30 30 30
1.000000 0.062499 0.020000 -0.000000 -1.000000 -0.000000 0.000000 0.000000 30 30 30
0.750000 0.062500 0.100000 -0.000000 -1.000000 -0.000000 0.000000 0.000000 30 30 30
1.000000 0.187499 0.000000 1.000000 -0.000000 0.000000 0.000000 0.000000 30 30 30
1.000000 0.187499 0.020000 1.000000 -0.000000 0.000000 0.000000 0.000000 30 30 30
1.000000 0.062499 0.020000 1.000000 -0.000000 0.000000 0.000000 0.000000 30 30 30
0.750000 0.187500 0.100000 0.000000 1.000000 0.000000 0.000000 0.000000 30 30 30
0.750000 0.187500 0.120000 0.000000 1.000000 0.000000 0.000000 0.000000 30 30 30
1.000000 0.187499 0.020000 0.000000 1.000000 0.000000 0.000000 0.000000 30 30 30
-0.750000 -0.062500 0.120000 -0.371391 0.000000 0.928477 0.000000 0.000000 30 30 30
-1.000000 -0.062500 0.020000 -0.371391 0.000000 0.928477 0.000000 0.000000 30 30 30
-1.000000 -0.187500 0.020000 -0.371391 0.000000 0.928477 0.000000 0.000000 30 30 30
-1.000000 -0.062500 0.000000 0.000000 1.000000 0.000000 0.000000 0.000000 30 30 30
-1.000000 -0.062500 0.020000 0.000000 1.000000 0.000000 0.000000 0.000000 30 30 30
-0.750000 -0.062500 0.100000 0.000000 1.000000 0.000000 0.000000 0.000000 30 30 30
-1.000000 -0.187500 0.000000 -1.000000 -0.000000 -0.000000 0.000000 0.000000 30 30 30
-1.000000 -0.187500 0.020000 -1.000000 -0.000000 -0.000000 0.000000 0.000000 30 30 30
-1.000000 -0.062500 0.020000 -1.000000 -0.000000 -0.000000 0.000000 0.000000 30 30 30
-0.750000 -0.187500 0.100000 -0.000000 -1.000000 -0.000000 0.000000 0.000000 30 30 30
-0.750000 -0.187500 0.120000 -0.000000 -1.000000 -0.000000 0.000000 0.000000 30 30 30
-1.000000 -0.187500 0.020000 -0.000000 -1.000000 -0.000000 0.000000 0.000000 30 30 30
-0.750000 -0.062500 0.100000 1.000000 -0.000000 0.000000 0.000000 0.000000 30 30 30
-0.750000 -0.062500 0.120000 1.000000 -0.000000 0.000000 0.000000 0.000000 30 30 30
-0.750000 -0.187500 0.120000 1.000000 -0.000000 0.000000 0.000000 0.000000 30 30 30
1.000000 -0.062501 0.020000 0.371391 -0.000000 0.928477 0.000000 0.000000 30 30 30
0.750000 -0.062500 0.120000 0.371391 -0.000000 0.928477 0.000000 0.000000 30 30 30
0.750000 -0.187500 0.120000 0.371391 -0.000000 0.928477 0.000000 0.000000 30 30 30
0.750000 -0.062500 0.100000 0.000000 1.000000 0.000000 0.000000 0.000000 30 30 30
0.750000 -0.062500 0.120000 0.000000 1.000000 0.000000 0.000000 0.000000 30 30 30
1.000000 -0.062501 0.020000 0.000000 1.000000 0.000000 0.000000 0.000000 30 30 30
0.750000 -0.187500 0.100000 -1.000000 0.000000 0.000000 0.000000 0.000000 30 30 30
0.750000 -0.187500 0.120000 -1.000000 0.000000 0.000000 0.000000 0.000000 30 30 30
0.750000 -0.062500 0.120000 -1.000000 0.000000 0.000000 0.000000 0.000000 30 30 30
1.000000 -0.187501 0.000000 -0.000000 -1.000000 -0.000000 0.000000 0.000000 30 30 30
1.000000 -0.187501 0.020000 -0.000000 -1.000000 -0.000000 0.000000 0.000000 30 30 30
0.750000 -0.187500 0.100000 -0.000000 -1.000000 -0.000000 0.000000 0.000000 30 30 30
1.000000 -0.062501 0.000000 1.000000 -0.000000 0.000000 0.000000 0.000000 30 30 30
1.000000 -0.062501 0.020000 1.000000 -0.000000 0.000000 0.000000 0.000000 30 30 30
1.000000 -0.187501 0.020000 1.000000 -0.000000 0.000000 0.000000 0.000000 30 30 30
0.187500 -0.750000 0.120000 -0.000000 -0.371391 0.928477 0.000000 0.000000 30 30 30
0.062500 -0.750000 0.120000 -0.000000 -0.371391 0.928477 0.000000 0.000000 30 30 30
0.187499 -1.000000 0.020000 -0.000000 -0.371391 0.928477 0.000000 0.000000 30 30 30
0.062500 -0.750000 0.100000 0.000000 1.000000 0.000000 0.000000 0.000000 30 30 30
0.062500 -0.750000 0.120000 0.000000 1.000000 0.000000 0.000000 0.000000 30 30 30
0.187500 -0.750000 0.120000 0.000000 1.000000 0.000000 0.000000 0.000000 30 30 30
0.062499 -1.000000 0.000000 -1.000000 0.000000 0.000000 0.000000 0.000000 30 30 30
0.062499 -1.000000 0.020000 -1.000000 0.000000 0.000000 0.000000 0.000000 30 30 30
0.062500 -0.750000 0.100000 -1.000000 0.000000 0.000000 0.000000 0.000000 30 30 30
0.187499 -1.000000 0.000000 0.000000 -1.000000 0.000000 0.000000 0.000000 30 30 30
0.187499 -1.000000 0.020000 0.000000 -1.000000 0.000000 0.000000 0.000000 30 30 30
0.062499 -1.000000 0.020000 0.000000 -1.000000 0.000000 0.000000 0.000000 30 30 30
0.187500 -0.750000 0.100000 1.000000 -0.000000 0.000000 0.000000 0.000000 30 30 30
0.187500 -0.750000 0.120000 1.000000 -0.000000 0.000000 0.000000 0.000000 30 30 30
0.187499 -1.000000 0.020000 1.000000 -0.000000 0.000000 0.000000 0.000000 30 30 30
-0.062500 -0.750000 0.120000 -0.000000 -0.371391 0.928477 0.000000 0.000000 30 30 30
-0.187500 -0.750000 0.120000 -0.000000 -0.371391 0.928477 0.000000 0.000000 30 30 30
-0.187501 -1.000000 0.020000 -0.000000 -0.371391 0.928477 0.000000 0.000000 30 30 30
-0.187500 -0.750000 0.100000 0.000000 1.000000 0.000000 0.000000 0.000000 30 30 30
-0.187500 -0.750000 0.120000 0.000000 1.000000 0.000000 0.000000 0.000000 30 30 30
-0.062500 -0.750000 0.120000 0.000000 1.000000 0.000000 0.000000 0.000000 30 30 30
-0.187501 -1.000000 0.000000 -1.000000 0.000000 0.000000 0.000000 0.000000 30 30 30
-0.187501 -1.000000 0.020000 -1.000000 0.000000 0.000000 0.000000 0.000000 30 30 30
-0.187500 -0.750000 0.100000 -1.000000 0.000000 0.000000 0.000000 0.000000 30 30 30
-0.062501 -1.000000 0.000000 0.000000 -1.000000 0.000000 0.000000 0.000000 30 30 30
-0.062501 -1.000000 0.020000 0.000000 -1.000000 0.000000 0.000000 0.000000 30 30 30
-0.187501 -1.000000 0.020000 0.000000 -1.000000 0.000000 0.000000 0.000000 30 30 30
-0.062500 -0.750000 0.100000 1.000000 -0.000000 0.000000 0.000000 0.000000 30 30 30
-0.062500 -0.750000 0.120000 1.000000 -0.000000 0.000000 0.000000 0.000000 30 30 30
-0.062501 -1.000000 0.020000 1.000000 -0.000000 0.000000 0.000000 0.000000 30 30 30
-0.062500 1.000000 0.020000 -0.000000 0.371391 0.928477 0.000000 0.000000 30 30 30
-0.187500 1.000000 0.020000 -0.000000 0.371391 0.928477 0.000000 0.000000 30 30 30
-0.187500 0.750000 0.120000 -0.000000 0.371391 0.928477 0.000000 0.000000 30 30 30
-0.187500 1.000000 0.000000 0.000000 1.000000 0.000000 0.000000 0.000000 30 30 30
-0.187500 1.000000 0.020000 0.000000 1.000000 0.000000 0.000000 0.000000 30 30 30
-0.062500 1.000000 0.020000 0.000000 1.000000 0.000000 0.000000 0.000000 30 30 30
-0.187500 0.750000 0.100000 -1.000000 0.000000 0.000000 0.000000 0.000000 30 30 30
-0.187500 0.750000 0.120000 -1.000000 0.000000 0.000000 0.000000 0.000000 30 30 30
-0.187500 1.000000 0.020000 -1.000000 0.000000 0.000000 0.000000 0.000000 30 30 30
-0.062500 0.750000 0.100000 -0.000000 -1.000000 -0.000000 0.000000 0.000000 30 30 30
-0.062500 0.750000 0.120000 -0.000000 -1.000000 -0.000000 0.000000 0.000000 30 30 30
-0.187500 0.750000 0.120000 -0.000000 -1.000000 -0.000000 0.000000 0.000000 30 30 30
-0.062500 1.000000 0.000000 1.000000 -0.000000 0.000000 0.000000 0.000000 30 30 30
-0.062500 1.000000 0.020000 1.000000 -0.000000 0.000000 0.000000 0.000000 30 30 30
-0.062500 0.750000 0.100000 1.000000 -0.000000 0.000000 0.000000 0.000000 30 30 30
-1.000000 0.187500 0.020000 -0.371391 0.000000 0.928477 0.000000 0.000000 30 30 30
-1.000000 0.062500 0.020000 -0.371391 0.000000 0.928477 0.000000 0.000000 30 30 30
-0.750000 0.062500 0.120000 -0.371391 0.000000 0.928477 0.000000 0.000000 30 30 30
-1.000000 0.062500 0.000000 -1.000000 -0.000000 -0.000000 0.000000 0.000000 30 30 30
-1.000000 0.062500 0.020000 -1.000000 -0.000000 -0.000000 0.000000 0.000000 30 30 30
-1.000000 0.187500 0.020000 -1.000000 -0.000000 -0.000000 0.000000 0.000000 30 30 30
-0.750000 0.062500 0.100000 -0.000000 -1.000000 -0.000000 0.000000 0.000000 30 30 30
-0.750000 0.062500 0.120000 -0.000000 -1.000000 -0.000000 0.000000 0.000000 30 30 30
-1.000000 0.062500 0.020000 -0.000000 -1.000000 -0.000000 0.000000 0.000000 30 30 30
-0.750000 0.187500 0.100000 1.000000 -0.000000 0.000000 0.000000 0.000000 30 30 30
-0.750000 0.187500 0.120000 1.000000 -0.000000 0.000000 0.000000 0.000000 30 30 30
-0.750000 0.062500 0.120000 1.000000 -0.000000 0.000000 0.000000 0.000000 30 30 30
-1.000000 0.187500 0.000000 0.000000 1.000000 0.000000 0.000000 0.000000 30 30 30
-1.000000 0.187500 0.020000 0.000000 1.000000 0.000000 0.000000 0.000000 30 30 30
-0.750000 0.187500 0.100000 0.000000 1.000000 0.000000 0.000000 0.000000 30 30 30
1.000000 -0.187501 0.000000 1.000000 -0.000001 0.000002 0.000000 0.000000 255 255 255
1.000000 -0.500001 0.000000 1.000000 -0.000001 0.000002 0.000000 0.000000 255 255 255
1.000000 -0.500000 -0.200000 1.000000 -0.000001 0.000002 0.000000 0.000000 255 255 255
0.062499 -1.000000 0.000000 -0.000000 -1.000000 -0.000002 0.000000 0.000000 255 255 255
-0.500000 -1.000000 -0.200000 -0.000000 -1.000000 -0.000002 0.000000 0.000000 255 255 255
0.500000 -1.000000 -0.200000 -0.000000 -1.000000 -0.000002 0.000000 0.000000 255 255 255
1.000000 -0.062501 0.000000 1.000000 -0.000000 0.000002 0.000000 0.000000 255 255 255
1.000000 -0.187501 0.000000 1.000000 -0.000000 0.000002 0.000000 0.000000 255 255 255
1.000000 -0.500000 -0.200000 1.000000 -0.000000 0.000002 0.000000 0.000000 255 255 255
1.000000 0.062499 0.000000 1.000000 -0.000001 -0.000002 0.000000 0.000000 255 255 255
1.000000 -0.062501 0.000000 1.000000 -0.000001 -0.000002 0.000000 0.000000 255 255 255
1.000000 0.500000 -0.200000 1.000000 -0.000001 -0.000002 0.000000 0.000000 255 255 255
1.000000 0.187499 0.000000 1.000000 0.000000 -0.000000 0.000000 0.000000 255 255 255
1.000000 0.062499 0.000000 1.000000 0.000000 -0.000000 0.000000 0.000000 255 255 255
1.000000 0.500000 -0.200000 1.000000 0.000000 -0.000000 0.000000 0.000000 255 255 255
-1.000000 0.500000 0.000000 -0.707107 0.707107 -0.000000 0.000000 0.000000 255 255 255
-0.500000 1.000000 0.000000 -0.707107 0.707107 -0.000000 0.000000 0.000000 255 255 255
-1.000000 0.500000 -0.200000 -0.707107 0.707107 -0.000000 0.000000 0.000000 255 255 255
1.000000 -0.500000 -0.200000 0.707107 -0.707107 -0.000001 0.000000 0.000000 255 255 255
1.000000 -0.500001 0.000000 0.707107 -0.707107 -0.000001 0.000000 0.000000 255 255 255
0.500000 -1.000000 -0.200000 0.707107 -0.707107 -0.000001 0.000000 0.000000 255 255 255
-1.000000 -0.187500 0.000000 -1.000000 0.000000 -0.000001 0.000000 0.000000 255 255 255
-1.000000 -0.500000 -0.200000 -1.000000 0.000000 -0.000001 0.000000 0.000000 255 255 255
-1.000000 -0.500000 0.000000 -1.000000 0.000000 -0.000001 0.000000 0.000000 255 255 255
-0.500000 1.000000 0.000000 0.000000 1.000000 0.000002 0.000000 0.000000 255 255 255
-0.187500 1.000000 0.000000 0.000000 1.000000 0.000002 0.000000 0.000000 255 255 255
-1.000000 -0.062500 0.000000 -1.000000 0.000000 -0.000001 0.000000 0.000000 255 255 255
-1.000000 0.062500 0.000000 -1.000000 0.000000 -0.000001 0.000000 0.000000 255 255 255
-1.000000 -0.062500 0.000000 -1.000000 0.000002 -0.000005 0.000000 0.000000 255 255 255
-1.000000 0.062500 0.000000 -1.000000 0.000002 -0.000005 0.000000 0.000000 255 255 255
-1.000000 -0.500000 -0.200000 -1.000000 0.000002 -0.000005 0.000000 0.000000 255 255 255
0.500000 0.625000 0.150000 0.000000 0.371391 0.928477 0.000000 0.000000 255 255 255
-0.500000 1.000000 0.000000 0.000000 0.371391 0.928477 0.000000 0.000000 255 255 255
-0.187500 0.750000 0.100000 0.000000 0.371391 0.928477 0.000000 0.000000 255 255 255
-0.187500 1.000000 0.000000 0.000000 0.371391 0.928477 0.000000 0.000000 255 255 255
-0.500000 0.625000 0.150000 0.000000 0.371391 0.928477 0.000000 0.000000 255 255 255
-0.187500 0.750000 0.100000 0.000000 0.371390 0.928477 0.000000 0.000000 255 255 255
-0.500000 0.625000 0.150000 0.000000 0.371390 0.928477 0.000000 0.000000 255 255 255
-0.062500 0.750000 0.100000 0.000000 0.371390 0.928477 0.000000 0.000000 255 255 255
0.062500 1.000000 0.000000 -0.000000 0.371391 0.928477 0.000000 0.000000 255 255 255
-0.062500 1.000000 0.000000 -0.000000 0.371391 0.928477 0.000000 0.000000 255 255 255
0.062500 0.750000 0.100000 -0.000000 0.371391 0.928477 0.000000 0.000000 255 255 255
-0.062500 0.750000 0.100000 0.000000 0.371391 0.928477 0.000000 0.000000 255 255 255
0.500000 0.625000 0.150000 0.000000 -0.000000 1.000000 1.000000 0.100000 255 255 255
0.500000 -0.625000 0.150000 0.000000 -0.000000 1.000000 0.900000 1.000000 255 255 255
0.625000 -0.500000 0.150000 0.000000 -0.000000 1.000000 0.900000 0.000000 255 255 255
0.062500 0.750000 0.100000 -0.000000 0.371390 0.928477 0.000000 0.000000 255 255 255
0.500000 0.625000 0.150000 -0.000000 0.371390 0.928477 0.000000 0.000000 255 255 255
0.187500 0.750000 0.100000 -0.000000 0.371390 0.928477 0.000000 0.000000 255 255 255
-0.500000 -0.625000 0.150000 -0.348155 -0.348155 0.870388 0.000000 0.000000 0 255 0
-0.500000 -1.000000 -0.200000 -0.000000 -1.000000 -0.000000 0.000000 0.000000 255 255 255
-0.187501 -1.000000 0.000000 -0.000000 -1.000000 -0.000000 0.000000 0.000000 255 255 255
-0.500000 -1.000000 0.000000 -0.000000 -1.000000 -0.000000 0.000000 0.000000 255 255 255
0.625000 -0.500000 0.150000 0.371391 -0.000000 0.928477 0.000000 0.000000 255 255 255
0.750000 -0.062500 0.100000 0.371391 -0.000000 0.928477 0.000000 0.000000 255 255 255
-0.062501 -1.000000 0.000000 0.000000 -1.000000 -0.000001 0.000000 0.000000 255 255 255
-0.187501 -1.000000 0.000000 0.000000 -1.000000 -0.000001 0.000000 0.000000 255 255 255
-0.500000 -1.000000 -0.200000 0.000000 -1.000000 -0.000001 0.000000 0.000000 255 255 255
0.062499 -1.000000 0.000000 -0.000002 -1.000000 0.000004 0.000000 0.000000 255 255 255
-0.062501 -1.000000 0.000000 -0.000002 -1.000000 0.000004 0.000000 0.000000 255 255 255
-0.500000 -1.000000 -0.200000 -0.000002 -1.000000 0.000004 0.000000 0.000000 255 255 255
0.187499 -1.000000 0.000000 0.000000 -1.000000 -0.000001 0.000000 0.000000 255 255 255
0.062499 -1.000000 0.000000 0.000000 -1.000000 -0.000001 0.000000 0.000000 255 255 255
0.500000 -1.000000 -0.200000 0.000000 -1.000000 -0.000001 0.000000 0.000000 255 255 255
-0.500000 0.625000 0.150000 -0.348155 0.348155 0.870388 0.000000 0.000000 0 0 255
0.187500 1.000000 0.000000 0.000000 1.000000 0.000002 0.000000 0.000000 255 255 255
0.500000 1.000000 0.000000 0.000000 1.000000 0.000002 0.000000 0.000000 255 255 255
0.499999 -1.000000 0.000000 -0.000000 -1.000000 -0.000002 0.000000 0.000000 255 255 255
0.187499 -1.000000 0.000000 -0.000000 -1.000000 -0.000002 0.000000 0.000000 255 255 255
0.500000 1.000000 -0.200000 0.000000 1.000000 0.000001 0.000000 0.000000 255 255 255
0.062500 1.000000 0.000000 0.000000 1.000000 0.000001 0.000000 0.000000 255 255 255
0.187500 1.000000 0.000000 0.000000 1.000000 0.000001 0.000000 0.000000 255 255 255
-0.062500 1.000000 0.000000 0.000000 1.000000 0.000001 0.000000 0.000000 255 255 255
1.000000 0.499999 0.000000 0.707107 0.707107 0.000001 0.000000 0.000000 255 255 255
1.000000 0.500000 -0.200000 0.707107 0.707107 0.000001 0.000000 0.000000 255 255 255
0.500000 1.000000 0.000000 0.707107 0.707107 0.000001 0.000000 0.000000 255 255 255
-0.625000 -0.500000 0.150000 -0.371391 0.000000 0.928477 0.000000 0.000000 255 255 255
-0.750000 0.187500 0.100000 -0.371391 0.000000 0.928477 0.000000 0.000000 255 255 255
-1.000000 0.500000 0.000000 -0.371391 0.000000 0.928477 0.000000 0.000000 255 255 255
-1.000000 0.187500 0.000000 -0.371391 0.000000 0.928477 0.000000 0.000000 255 255 255
-0.625000 0.500000 0.150000 -0.371391 0.000000 0.928477 0.000000 0.000000 255 255 255
-1.000000 0.062500 0.000000 -0.371391 0.000001 0.928477 0.000000 0.000000 255 255 255
-1.000000 -0.062500 0.000000 -0.371391 0.000001 0.928477 0.000000 0.000000 255 255 255
-0.750000 -0.062500 0.100000 -0.371391 0.000001 0.928477 0.000000 0.000000 255 255 255
-0.750000 -0.187500 0.100000 -0.000000 0.000000 1.000000 0.000000 0.000000 255 255 255
-0.750000 0.062500 0.100000 -0.000000 0.000000 1.000000 0.000000 0.000000 255 255 255
-0.750000 -0.062500 0.100000 -0.000000 0.000000 1.000000 0.000000 0.000000 255 255 255
-0.750000 0.062500 0.100000 -0.371391 0.000000 0.928477 0.000000 0.000000 255 255 255
-1.000000 0.062500 0.000000 -0.371391 0.000000 0.928477 0.000000 0.000000 255 255 255
-0.750000 -0.062500 0.100000 -0.371391 0.000000 0.928477 0.000000 0.000000 255 255 255
-0.750000 -0.187500 0.100000 0.000000 0.000000 0.000000 0.000000 0.000000 255 255 255
-0.750000 0.187500 0.100000 0.000000 0.000000 0.000000 0.000000 0.000000 255 255 255
-0.750000 0.062500 0.100000 0.000000 0.000000 0.000000 0.000000 0.000000 255 255 255
0.500000 -0.625000 0.150000 -0.000000 -0.371391 0.928477 0.000000 0.000000 255 255 255
-0.187500 -0.750000 0.100000 -0.000000 -0.371391 0.928477 0.000000 0.000000 255 255 255
-0.500000 -1.000000 0.000000 -0.000000 -0.371391 0.928477 0.000000 0.000000 255 255 255
-0.187501 -1.000000 0.000000 -0.000000 -0.371391 0.928477 0.000000 0.000000 255 255 255
-0.500000 -0.625000 0.150000 -0.000000 -0.371391 0.928477 0.000000 0.000000 255 255 255
0.062500 -0.750000 0.100000 -0.000000 -0.371391 0.928477 0.000000 0.000000 255 255 255
-0.062500 -0.750000 0.100000 -0.000000 -0.371391 0.928477 0.000000 0.000000 255 255 255
-0.062501 -1.000000 0.000000 -0.000000 -0.371391 0.928477 0.000000 0.000000 255 255 255
-0.062500 -0.750000 0.100000 -0.000000 -0.371390 0.928477 0.000000 0.000000 255 255 255
0.062500 -0.750000 0.100000 -0.000000 -0.371390 0.928477 0.000000 0.000000 255 255 255
0.500000 -0.625000 0.150000 -0.000000 -0.371390 0.928477 0.000000 0.000000 255 255 255
1.000000 0.499999 0.000000 0.371391 -0.000000 0.928477 0.000000 0.000000 255 255 255
0.750000 0.187500 0.100000 0.371391 -0.000000 0.928477 0.000000 0.000000 255 255 255
1.000000 0.187499 0.000000 0.371391 -0.000000 0.928477 0.000000 0.000000 255 255 255
0.625000 0.500000 0.150000 0.371391 -0.000000 0.928477 0.000000 0.000000 255 255 255
1.000000 -0.062501 0.000000 0.371391 -0.000000 0.928477 0.000000 0.000000 255 255 255
0.750000 0.062500 0.100000 0.371391 -0.000000 0.928477 0.000000 0.000000 255 255 255
0.625000 0.500000 0.150000 0.371391 0.000000 0.928476 0.000000 0.000000 255 255 255
0.750000 0.062500 0.100000 0.371391 0.000000 0.928476 0.000000 0.000000 255 255 255
0.750000 0.187500 0.100000 0.371391 0.000000 0.928476 0.000000 0.000000 255 255 255
0.625000 0.500000 0.150000 0.371390 -0.000000 0.928477 0.000000 0.000000 255 255 255
0.750000 -0.062500 0.100000 0.371390 -0.000000 0.928477 0.000000 0.000000 255 255 255
0.750000 0.062500 0.100000 0.371390 -0.000000 0.928477 0.000000 0.000000 255 255 255
0.500000 1.000000 -0.200000 -0.000000 0.000000 -1.000000 0.000000 0.000000 255 255 255
1.000000 0.500000 -0.200000 -0.000000 0.000000 -1.000000 0.000000 0.000000 255 255 255
0.500000 0.625000 0.150000 0.348155 0.348155 0.870388 0.000000 0.000000 255 0 0
-0.500000 1.000000 -0.200000 -0.000000 0.000000 -1.000000 0.000000 0.000000 255 255 255
1.000000 -0.500000 -0.200000 0.000000 -0.000000 -1.000000 0.000000 0.000000 255 255 255
0.500000 -0.625000 0.150000 0.348155 -0.348155 0.870388 0.000000 0.000000 255 255 0
-1.000000 -0.500000 -0.200000 0.000000 -0.000000 -1.000000 0.000000 0.000000 255 255 255
-0.500000 -0.625000 0.150000 0.000000 -0.000000 1.000000 0.100000 0.000000 255 255 255
0.500000 -0.625000 0.150000 0.000000 -0.000000 1.000000 0.900000 0.000000 255 255 255
0.625000 0.500000 0.150000 -0.000000 -0.000000 1.000000 0.900000 1.000000 255 255 255
0.500000 0.625000 0.150000 -0.000000 -0.000000 1.000000 1.000000 0.900000 255 255 255
0.625000 -0.500000 0.150000 -0.000000 -0.000000 1.000000 1.000000 0.100000 255 255 255
0.062499 -1.000000 0.020000 0.000000 -0.371391 0.928477 0.000000 0.000000 30 30 30
-0.500000 -1.000000 -0.200000 -0.707107 -0.707107 -0.000001 0.000000 0.000000 255 255 255
-0.062501 -1.000000 0.000000 -0.000001 -0.371391 0.928477 0.000000 0.000000 255 255 255
0.062499 -1.000000 0.000000 -0.000001 -0.371391 0.928477 0.000000 0.000000 255 255 255
0.062500 -0.750000 0.100000 -0.000001 -0.371391 0.928477 0.000000 0.000000 255 255 255
0.187500 0.750000 0.120000 0.000000 0.371391 0.928477 0.000000 0.000000 30 30 30
0.187500 1.000000 0.000000 -0.000000 1.000000 0.000000 0.000000 0.000000 30 30 30
0.062500 1.000000 0.000000 -1.000000 0.000000 0.000000 0.000000 0.000000 30 30 30
0.062500 0.750000 0.100000 -0.000000 -1.000000 -0.000000 0.000000 0.000000 30 30 30
0.187500 0.750000 0.120000 1.000000 -0.000000 0.000000 0.000000 0.000000 30 30 30
1.000000 0.062499 0.000000 0.371391 -0.000000 0.928477 0.000000 0.000000 255 255 255
0.750000 0.187500 0.100000 -1.000000 0.000000 -0.000000 0.000000 0.000000 30 30 30
0.750000 0.062500 0.120000 -0.000000 -1.000000 0.000000 0.000000 0.000000 30 30 30
1.000000 0.062499 0.000000 1.000000 0.000000 0.000000 0.000000 0.000000 30 30 30
1.000000 0.187499 0.000000 0.000000 1.000000 0.000000 0.000000 0.000000 30 30 30
-0.750000 -0.187500 0.120000 -0.371391 0.000000 0.928477 0.000000 0.000000 30 30 30
-0.750000 -0.062500 0.120000 0.000000 1.000000 -0.000000 0.000000 0.000000 30 30 30
-1.000000 -0.062500 0.000000 -1.000000 0.000000 -0.000000 0.000000 0.000000 30 30 30
-1.000000 -0.187500 0.000000 -0.000000 -1.000000 0.000000 0.000000 0.000000 30 30 30
-0.750000 -0.187500 0.100000 1.000000 0.000000 0.000000 0.000000 0.000000 30 30 30
1.000000 -0.187501 0.020000 0.371391 -0.000000 0.928477 0.000000 0.000000 30 30 30
1.000000 -0.062501 0.000000 0.000000 1.000000 0.000000 0.000000 0.000000 30 30 30
0.750000 -0.062500 0.100000 -1.000000 0.000000 0.000000 0.000000 0.000000 30 30 30
0.750000 -0.187500 0.120000 -0.000000 -1.000000 0.000000 0.000000 0.000000 30 30 30
1.000000 -0.187501 0.000000 1.000000 -0.000000 0.000000 0.000000 0.000000 30 30 30
1.000000 0.062499 0.020000 0.371391 0.000000 0.928477 0.000000 0.000000 30 30 30
0.187500 -0.750000 0.100000 0.000000 1.000000 0.000000 0.000000 0.000000 30 30 30
0.062500 -0.750000 0.120000 -1.000000 0.000000 0.000000 0.000000 0.000000 30 30 30
0.062499 -1.000000 0.000000 -0.000000 -1.000000 -0.000000 0.000000 0.000000 30 30 30
0.187499 -1.000000 0.000000 1.000000 -0.000000 0.000000 0.000000 0.000000 30 30 30
-0.062501 -1.000000 0.020000 0.000000 -0.371391 0.928477 0.000000 0.000000 30 30 30
-0.062500 -0.750000 0.100000 0.000000 1.000000 0.000000 0.000000 0.000000 30 30 30
-0.187500 -0.750000 0.120000 -1.000000 0.000000 0.000000 0.000000 0.000000 30 30 30
-0.187501 -1.000000 0.000000 -0.000000 -1.000000 -0.000000 0.000000 0.000000 30 30 30
-0.062501 -1.000000 0.000000 1.000000 -0.000000 0.000000 0.000000 0.000000 30 30 30
-0.062500 0.750000 0.120000 0.000000 0.371391 0.928477 0.000000 0.000000 30 30 30
-0.062500 1.000000 0.000000 -0.000000 1.000000 0.000000 0.000000 0.000000 30 30 30
-0.187500 1.000000 0.000000 -1.000000 0.000000 0.000000 0.000000 0.000000 30 30 30
-0.187500 0.750000 0.100000 -0.000000 -1.000000 0.000000 0.000000 0.000000 30 30 30
-0.062500 0.750000 0.120000 1.000000 -0.000000 0.000000 0.000000 0.000000 30 30 30
-0.750000 0.187500 0.120000 -0.371391 0.000000 0.928477 0.000000 0.000000 30 30 30
-1.000000 0.187500 0.000000 -1.000000 0.000000 -0.000000 0.000000 0.000000 30 30 30
-1.000000 0.062500 0.000000 -0.000000 -1.000000 0.000000 0.000000 0.000000 30 30 30
-0.750000 0.062500 0.100000 1.000000 -0.000000 0.000000 0.000000 0.000000 30 30 30
-0.750000 0.187500 0.120000 0.000000 1.000000 -0.000000 0.000000 0.000000 30 30 30
1.000000 0.500000 -0.200000 1.000000 -0.000001 -0.000001 0.000000 0.000000 255 255 255
1.000000 0.499999 0.000000 1.000000 -0.000001 -0.000001 0.000000 0.000000 255 255 255
1.000000 0.187499 0.000000 1.000000 -0.000001 -0.000001 0.000000 0.000000 255 255 255
3 0 1 2
3 3 4 5
3 6 7 8
3 9 10 11
3 12 13 14
3 15 16 17
3 18 19 20
3 21 22 23
3 24 25 26
3 27 28 29
3 30 31 32
3 33 34 35
3 36 37 38
3 39 40 41
3 42 43 44
3 45 24 26
3 46 47 48
3 49 50 51
3 52 53 54
3 55 56 57
3 58 59 60
3 61 62 63
3 64 65 66
3 67 68 69
3 70 71 72
3 73 74 75
3 76 77 78
3 79 80 81
3 82 83 84
3 85 86 87
3 88 89 90
3 91 92 93
3 94 95 96
3 97 98 99
3 100 101 102
3 103 104 105
3 106 107 108
3 109 110 111
3 112 113 114
3 115 116 117
3 118 119 120
3 121 122 123
3 124 125 126
3 127 128 129
3 130 131 132
3 133 134 135
3 136 137 138
3 139 140 141
3 142 143 144
3 145 146 147
3 148 149 150
3 151 152 153
3 154 155 156
3 157 158 159
3 160 161 162
3 163 164 165
3 166 167 168
3 169 170 171
3 172 173 174
3 175 176 177
3 178 179 180
3 181 182 183
3 184 185 186
3 187 188 189
3 190 191 192
3 193 194 195
3 20 196 197
3 198 194 193
3 194 199 10
3 200 201 202
3 12 203 13
3 204 205 206
3 207 205 204
3 208 209 210
3 211 212 213
3 212 214 213
3 215 216 217
3 218 210 219
3 220 218 219
3 50 221 51
3 222 223 224
3 225 36 226
3 227 228 229
3 230 231 232
3 233 234 235
3 236 21 23
3 19 237 238
3 177 239 240
3 241 242 243
3 197 18 20
3 244 242 241
3 245 246 247
3 248 31 30
3 249 250 251
3 249 252 250
3 252 31 248
3 249 31 252
3 253 254 255
3 256 257 258
3 259 260 261
3 262 263 264
3 265 34 33
3 266 267 268
3 266 269 267
3 34 265 270
3 271 272 270
3 266 271 269
3 273 274 275
3 269 271 265
3 199 11 10
3 36 225 37
3 276 277 278
3 279 277 276
3 279 225 226
3 226 280 281
3 282 283 284
3 207 203 214
3 285 286 287
3 42 288 289
3 40 290 41
3 44 291 288
3 42 44 288
3 292 42 289
3 16 293 17
3 43 294 44
3 26 25 295
3 26 295 296
3 297 298 299
3 113 300 114
3 301 46 48
3 302 303 304
3 305 52 54
3 306 55 57
3 307 58 60
3 308 61 63
3 65 309 66
3 280 310 281
3 311 70 72
3 74 312 75
3 313 76 78
3 314 79 81
3 315 82 84
3 86 316 87
3 317 88 90
3 318 91 93
3 319 94 96
3 320 97 99
3 321 100 102
3 322 103 105
3 107 323 108
3 324 109 111
3 68 325 69
3 326 115 117
3 119 327 120
3 328 121 123
3 329 124 126
3 330 127 129
3 331 130 132
3 134 332 135
3 333 136 138
3 334 139 141
3 335 142 144
3 336 145 147
3 337 148 150
3 338 151 153
3 155 339 156
3 340 157 159
3 341 160 162
3 342 163 165
3 343 166 168
3 170 344 171
3 345 346 347
